<?xml version="1.0" encoding="UTF-8" standalone="no"?>
<!DOCTYPE svg  PUBLIC '-//W3C//DTD SVG 1.1//EN'  'http://www.w3.org/Graphics/SVG/1.1/DTD/svg11.dtd'>
<svg xmlns="http://www.w3.org/2000/svg">
<defs>
<font id="FiraCode-Regular" horiz-adv-x="600">
<font-face underline-position="-50" font-weight="400" descent="-200" panose-1="2 11 5 9 5 0 0 2 0 4" units-per-em="1000" unicode-range="U+0020-1F310" bbox="-1777 -500 1192 1050" x-height="527" underline-thickness="50" font-family="FiraCode" ascent="800" cap-height="689"/>
<missing-glyph d="M247 85q0 15 10 25t25 10t25 -10t10 -25q0 -16 -10 -26.5t-25 -10.5t-25 10.5t-10 26.5zM307 173q0 -11 -7.5 -17.5t-17.5 -6.5t-17.5 6.5t-7.5 17.5v84q53 3 72 19.5t19 57.5q0 33 -13 51t-48 18q-29 0 -52 -11q-7 -3 -13 -3q-24 0 -24 23q0 19 29.5 29t63.5 10 q111 0 111 -115q0 -104 -95 -118v-45zM456 -298v1296h-311v-1296h311zM90 1050h420v-1400h-420v1400z"/>
<glyph glyph-name=".notdef" d="M247 85q0 15 10 25t25 10t25 -10t10 -25q0 -16 -10 -26.5t-25 -10.5t-25 10.5t-10 26.5zM307 173q0 -11 -7.5 -17.5t-17.5 -6.5t-17.5 6.5t-7.5 17.5v84q53 3 72 19.5t19 57.5q0 33 -13 51t-48 18q-29 0 -52 -11q-7 -3 -13 -3q-24 0 -24 23q0 19 29.5 29t63.5 10 q111 0 111 -115q0 -104 -95 -118v-45zM456 -298v1296h-311v-1296h311zM90 1050h420v-1400h-420v1400z"/>
<glyph glyph-name=".null" horiz-adv-x="0"/>
<glyph glyph-name="nonmarkingreturn" horiz-adv-x="333"/>
<glyph glyph-name="space" unicode=" "/>
<glyph glyph-name="exclam" d="M299 123q29 0 48 -19.5t19 -47.5q0 -29 -19 -48t-48 -19t-48 19.5t-19 47.5t19.5 47.5t47.5 19.5zM345 689l-9 -462h-75l-10 462h94z" unicode="!"/>
<glyph glyph-name="quotedbl" d="M347 479l-16 260h105l-15 -260h-74zM179 479l-15 260h105l-16 -260h-74z" unicode='&quot;'/>
<glyph glyph-name="numbersign" d="M212 234h145l31 222h-147zM458 456l-29 -222h81v-64h-91l-21 -170h-71l22 170h-145l-23 -170h-71l22 170h-79v64h87l31 222h-81v66h89l23 167h71l-23 -167h146l23 167h71l-23 -167h80v-66h-89z" unicode="#"/>
<glyph glyph-name="dollar" d="M346 314v-249q101 20 101 123q0 43 -23 73t-78 53zM278 626q-43 -7 -68.5 -31.5t-25.5 -65.5q0 -37 20.5 -61t73.5 -45v203zM346 848v-150q106 -11 183 -80l-51 -53q-59 54 -132 63v-227q41 -14 72.5 -30.5t60 -41.5t44 -60.5t15.5 -79.5q0 -75 -50 -129.5t-142 -66.5 v-146h-68v143q-120 6 -209 93l50 56q71 -71 159 -78v276q-183 61 -183 191q0 64 47.5 112.5t135.5 57.5v150h68z" unicode="$"/>
<glyph glyph-name="percent" d="M436 256q-32 0 -51 -25t-19 -75q0 -48 19.5 -75.5t50.5 -27.5q32 0 50.5 25.5t18.5 77.5q0 100 -69 100zM436 316q68 0 107.5 -46.5t39.5 -113.5t-39.5 -114.5t-107.5 -47.5q-67 0 -107 47.5t-40 114.5t40 113.5t107 46.5zM166 640q-31 0 -50.5 -26t-19.5 -75 q0 -47 19.5 -74.5t50.5 -27.5q32 0 50.5 25.5t18.5 76.5q0 101 -69 101zM166 700q68 0 107.5 -46.5t39.5 -114.5q0 -66 -39.5 -113.5t-107.5 -47.5q-67 0 -107 47.5t-40 113.5q0 68 40 114.5t107 46.5zM505 707l53 -35l-473 -692l-53 35z" unicode="%"/>
<glyph glyph-name="ampersand" d="M407 353h-124q-71 0 -109 -47.5t-38 -107.5t36 -100.5t107 -40.5q87 0 128 52v244zM279 699q49 0 88.5 -16t78.5 -59l-50 -46q-52 58 -118 58q-52 0 -79 -28t-27 -74t36 -80t88 -34h278v-67h-90v-272q-73 -92 -207 -92q-110 0 -166.5 60.5t-56.5 145.5q0 77 40.5 126.5 t115.5 65.5v3q-120 28 -120 144q0 69 52 117t137 48z" unicode="&amp;"/>
<glyph glyph-name="quotesingle" d="M263 479l-16 260h106l-16 -260h-74z" unicode="&apos;"/>
<glyph glyph-name="parenleft" d="M213 350q0 -149 49.5 -245.5t163.5 -198.5l-43 -46q-65 53 -109.5 101.5t-80 107t-52 128t-16.5 153.5t16.5 153.5t52 128t80 107t109.5 101.5l43 -46q-115 -102 -164 -198t-49 -246z" unicode="("/>
<glyph glyph-name="parenright" d="M387 350q0 150 -49 246t-164 198l43 46q65 -53 109.5 -101.5t80 -107t52 -128t16.5 -153.5t-16.5 -153.5t-52 -128t-80 -107t-109.5 -101.5l-43 46q114 102 163.5 198.5t49.5 245.5z" unicode=")"/>
<glyph glyph-name="asterisk" d="M342 527l-15 -165l152 63l25 -80l-158 -36l110 -120l-68 -52l-87 140l-81 -143l-71 48l106 127l-159 36l25 80l151 -63l-14 165h84z" unicode="*"/>
<glyph glyph-name="plus" d="M338 495v-149h146v-70h-146v-149h-78v149h-144v70h144v149h78z" unicode="+"/>
<glyph glyph-name="comma" d="M300 165q34 0 57.5 -23.5t23.5 -56.5q0 -37 -19 -79l-81 -185h-76l47 197q-32 24 -32 66q0 34 23 57.5t57 23.5z" unicode=","/>
<glyph glyph-name="hyphen" d="M125 277v72h350v-72h-350z" unicode="-"/>
<glyph glyph-name="period" d="M211 77q0 37 25.5 62.5t62.5 25.5q38 0 63 -25.5t25 -62.5q0 -38 -25 -63t-63 -25q-37 0 -62.5 25.5t-25.5 62.5z" unicode="."/>
<glyph glyph-name="slash" d="M121 -103l-68 30l427 882l67 -32z" unicode="/"/>
<glyph glyph-name="zero" d="M300 410q28 0 47 -19t19 -46q0 -28 -19 -47t-47 -19t-46.5 19t-18.5 47q0 27 18.5 46t46.5 19zM300 632q-137 0 -137 -287q0 -288 137 -288t137 288q0 287 -137 287zM300 700q110 0 167.5 -91.5t57.5 -263.5q0 -173 -57.5 -264.5t-167.5 -91.5t-167.5 91.5t-57.5 264.5 q0 172 57.5 263.5t167.5 91.5z" unicode="0"/>
<glyph glyph-name="one" d="M374 68h143v-68h-397v68h169v529l-157 -95l-37 59l205 128h74v-621z" unicode="1"/>
<glyph glyph-name="two" d="M269 700q95 0 151.5 -54t56.5 -138q0 -93 -66 -184.5t-242 -251.5h324l-10 -72h-410v68q196 187 256 270t60 167q0 58 -33 91t-91 33q-49 0 -81.5 -16.5t-66.5 -56.5l-58 45q81 99 210 99z" unicode="2"/>
<glyph glyph-name="three" d="M269 700q95 0 153 -50t58 -123q0 -60 -39 -104.5t-95 -55.5q65 -5 110.5 -49t45.5 -120q0 -90 -66.5 -149.5t-172.5 -59.5q-61 0 -117.5 23t-93.5 68l56 46q58 -68 153 -68q72 0 112.5 37.5t40.5 102.5q0 131 -143 131h-57l10 67h41q54 0 92 30.5t38 89.5 q0 55 -36.5 85.5t-93.5 30.5q-77 0 -146 -63l-46 51q84 80 196 80z" unicode="3"/>
<glyph glyph-name="four" d="M528 235v-68h-89v-167h-81v167h-286v62l202 471l70 -30l-183 -435h198l7 195h73v-195h89z" unicode="4"/>
<glyph glyph-name="five" d="M487 689l-12 -68h-272v-217q53 30 118 30q86 0 137.5 -57t51.5 -159q0 -104 -63.5 -166.5t-169.5 -62.5q-115 0 -200 82l52 51q63 -64 148 -64q69 0 107 42t38 121q0 147 -125 147q-41 0 -107 -23h-68v344h365z" unicode="5"/>
<glyph glyph-name="six" d="M308 57q64 0 97.5 45.5t33.5 126.5q0 151 -122 151q-95 0 -152 -98q2 -117 36 -171t107 -54zM330 448q84 0 139.5 -55.5t55.5 -160.5q0 -112 -62 -177.5t-155 -65.5q-229 0 -229 336q0 173 68 274t188 101q76 0 137 -41l-33 -56q-49 29 -105 29q-79 0 -123.5 -74 t-46.5 -202q61 92 166 92z" unicode="6"/>
<glyph glyph-name="seven" d="M230 -9l-78 23l268 605h-323v70h408v-65z" unicode="7"/>
<glyph glyph-name="eight" d="M446 183q0 27 -10 48.5t-22 35t-42 28.5t-48.5 22t-62.5 22q-107 -50 -107 -156q0 -59 37 -92.5t107 -33.5t109 35t39 91zM176 519q0 -29 9 -48.5t33.5 -34.5t44.5 -23t65 -23q51 30 73.5 58.5t22.5 72.5q0 52 -32.5 82.5t-91.5 30.5t-91.5 -30t-32.5 -85zM506 525 q0 -90 -119 -156q70 -29 109 -76t39 -108q0 -86 -65 -141t-172 -55q-108 0 -170.5 55t-62.5 139q0 115 139 180q-57 27 -83.5 63.5t-26.5 93.5q0 87 64 133.5t142 46.5q83 0 144.5 -45t61.5 -130z" unicode="8"/>
<glyph glyph-name="nine" d="M279 320q87 1 148 92v15q0 111 -33 157.5t-105 46.5q-135 0 -135 -162q0 -149 122 -149h3zM289 699q113 0 169 -70t56 -196q0 -110 -20 -184.5t-68 -126t-112 -83t-167 -60.5l-20 64q147 39 222 107t76 187q-58 -82 -161 -85h-2q-87 0 -141.5 59.5t-54.5 160.5 q0 107 63 167t160 60z" unicode="9"/>
<glyph glyph-name="colon" d="M219 70q0 33 23 57t57 24q35 0 58 -23.5t23 -57.5q0 -35 -23 -58t-58 -23q-34 0 -57 23t-23 58zM219 431q0 33 23 56.5t57 23.5q35 0 58 -23.5t23 -56.5q0 -34 -23 -58t-58 -24q-34 0 -57 24t-23 58z" unicode=":"/>
<glyph glyph-name="semicolon" d="M299 166q34 0 57.5 -23.5t23.5 -57.5q0 -36 -19 -79l-82 -186h-76l48 198q-32 24 -32 67q0 34 23 57.5t57 23.5zM299 511q35 0 58 -23.5t23 -56.5q0 -34 -23 -58t-58 -24q-34 0 -57 24t-23 58q0 33 23 56.5t57 23.5z" unicode=";"/>
<glyph glyph-name="less" d="M472 594l41 -64l-353 -217l353 -219l-45 -61l-380 237v87z" unicode="&lt;"/>
<glyph glyph-name="equal" d="M494 252v-72h-388v72h388zM494 442v-72h-388v72h388z" unicode="="/>
<glyph glyph-name="greater" d="M129 594l384 -238v-86l-380 -237l-45 62l353 218l-353 217z" unicode="&gt;"/>
<glyph glyph-name="question" d="M277 123q29 0 48 -19.5t19 -47.5q0 -29 -19 -48t-48 -19t-48 19.5t-19 47.5t19.5 47.5t47.5 19.5zM299 700q89 0 143.5 -46.5t54.5 -108.5q0 -44 -18.5 -76t-45.5 -51.5t-53.5 -38.5t-45 -48.5t-18.5 -69.5v-34h-84v39q0 45 18 79t44 55.5t52.5 40.5t44.5 43.5t18 55.5 q0 42 -33 66t-85 24q-81 0 -142 -74l-59 45q84 99 209 99z" unicode="?"/>
<glyph glyph-name="at" d="M229 379q-66 0 -92 -47t-26 -149q0 -166 79 -166q23 0 41 8t30 23t18 26t12 26q1 3 2 5v260q-29 14 -64 14zM284 700q75 0 130.5 -24.5t87.5 -62.5t51.5 -94.5t26 -111t6.5 -122.5q0 -201 -30.5 -288.5t-116.5 -87.5q-57 0 -88 48.5t-30 94.5h-4q-40 -98 -137 -98 q-78 0 -114 61.5t-36 167.5q0 129 50.5 193.5t145.5 64.5q72 0 141 -37v-296q0 -74 18.5 -102.5t51.5 -28.5q41 0 51.5 69t10.5 222v16q0 79 -8 135t-30 106t-66 75.5t-110 25.5q-124 0 -227 -92l-49 57q127 109 275 109z" unicode="@"/>
<glyph glyph-name="A" d="M184 248h227l-113 367zM434 176h-273l-55 -176h-86l225 689h110l224 -689h-90z" unicode="A"/>
<glyph glyph-name="B" d="M448 193q0 131 -148 131h-117v-252h114q151 0 151 121zM421 510q0 108 -135 108h-103v-222h111q127 0 127 114zM540 196q0 -54 -22 -93.5t-60 -61t-82 -31.5t-94 -10h-186v689h170q49 0 90 -8.5t77 -27.5t56.5 -54t20.5 -84q0 -62 -37 -99.5t-92 -50.5q159 -27 159 -169z " unicode="B"/>
<glyph glyph-name="C" d="M358 700q64 0 110 -16.5t90 -50.5l-49 -57q-61 51 -145 51q-93 0 -151.5 -67.5t-58.5 -214.5q0 -146 57 -214t152 -68q87 0 160 57l45 -56q-77 -75 -206 -75q-131 0 -215 94t-84 262q0 167 84.5 261t210.5 94z" unicode="C"/>
<glyph glyph-name="D" d="M460 348q0 85 -18.5 142.5t-51.5 83.5t-65 35t-74 9h-81v-548h82q41 0 75 12t65.5 41t49.5 86t18 139zM553 348q0 -83 -19 -146.5t-49 -101t-72.5 -61t-83.5 -31.5t-88 -8h-158v689h147q53 0 96.5 -7.5t87 -30t73 -59.5t48 -99t18.5 -145z" unicode="D"/>
<glyph glyph-name="E" d="M212 617v-232h256v-71h-256v-244h314v-70h-400v689h391l-10 -72h-295z" unicode="E"/>
<glyph glyph-name="F" d="M225 617v-241h270v-70h-270v-306h-87v689h406l-10 -72h-309z" unicode="F"/>
<glyph glyph-name="G" d="M314 -11q-126 0 -197.5 90.5t-71.5 265.5q0 169 84.5 262t204.5 93q65 0 109 -18t87 -58l-52 -54q-61 57 -144 57q-84 0 -140 -67t-56 -215q0 -147 45.5 -215t137.5 -68q73 0 131 33v209h-135l-10 73h232v-328q-106 -60 -225 -60z" unicode="G"/>
<glyph glyph-name="H" d="M430 0v327h-260v-327h-87v689h87v-291h260v291h87v-689h-87z" unicode="H"/>
<glyph glyph-name="I" d="M497 689v-70h-153v-550h153v-69h-394v69h153v550h-153v70h394z" unicode="I"/>
<glyph glyph-name="J" d="M497 689v-460q0 -46 -12 -86.5t-37.5 -76.5t-73.5 -57t-113 -21q-105 0 -188 63l38 57q75 -47 149 -47q72 0 111 45.5t39 126.5v385h-204v71h291z" unicode="J"/>
<glyph glyph-name="K" d="M197 368l270 321h101l-269 -316l288 -373h-109zM192 0h-87v689h87v-689z" unicode="K"/>
<glyph glyph-name="L" d="M136 0v689h86v-612h315l-11 -77h-390z" unicode="L"/>
<glyph glyph-name="M" d="M531 689l39 -689h-84l-21 360q-6 95 -6 249l-116 -485h-87l-124 485q2 -36 2 -96q0 -92 -4 -153l-18 -360h-82l39 689h121l112 -472l107 472h122z" unicode="M"/>
<glyph glyph-name="N" d="M395 0l-243 605q12 -180 12 -260v-345h-81v689h118l247 -608q0 5 -3.5 48.5t-6 101.5t-2.5 113v345h81v-689h-122z" unicode="N"/>
<glyph glyph-name="O" d="M463 344q0 141 -39 212t-124 71t-124 -71.5t-39 -212.5q0 -281 163 -281q85 0 124 70.5t39 211.5zM553 344q0 -161 -65.5 -258t-187.5 -97q-123 0 -188 95t-65 259q0 161 65.5 259t187.5 98t187.5 -96.5t65.5 -259.5z" unicode="O"/>
<glyph glyph-name="P" d="M464 476q0 144 -162 144h-100v-295h97q78 0 121.5 34t43.5 117zM557 477q0 -115 -71 -168t-195 -53h-89v-256h-86v689h175q127 0 196.5 -53t69.5 -159z" unicode="P"/>
<glyph glyph-name="Q" d="M463 344q0 141 -39 212t-124 71q-164 0 -164 -284q0 -281 164 -281q85 0 124 70.5t39 211.5zM554 344q0 -239 -143 -317q74 -15 115.5 -52t66.5 -112l-92 -36q-34 85 -80 124t-131 39q-117 0 -181 95.5t-64 257.5q0 161 66 259t189 98q122 0 188 -96.5t66 -259.5z" unicode="Q"/>
<glyph glyph-name="R" d="M445 495q0 66 -38 95t-119 29h-100v-256h101q156 0 156 132zM537 495q0 -74 -46 -122.5t-122 -67.5l205 -305h-104l-189 295h-93v-295h-86v689h176q259 0 259 -194z" unicode="R"/>
<glyph glyph-name="S" d="M537 191q0 -91 -67 -146.5t-185 -55.5q-152 0 -242 87l52 59q79 -74 191 -74q68 0 114 33t46 95q0 51 -31.5 80t-118.5 54q-112 33 -167 77.5t-55 121.5q0 78 62 128t161 50q128 0 220 -79l-52 -56q-71 62 -165 62q-60 0 -99 -26t-39 -76q0 -44 37 -71t136 -56 q97 -28 149.5 -73t52.5 -134z" unicode="S"/>
<glyph glyph-name="T" d="M342 614v-614h-87v614h-215v75h519l-9 -75h-208z" unicode="T"/>
<glyph glyph-name="U" d="M528 689v-466q0 -105 -62.5 -169.5t-166.5 -64.5q-105 0 -166 64t-61 170v466h87v-469q0 -78 36 -117t104 -39q141 0 141 156v469h88z" unicode="U"/>
<glyph glyph-name="V" d="M302 99l186 590h87l-230 -689h-90l-230 689h93z" unicode="V"/>
<glyph glyph-name="W" d="M595 689l-104 -689h-114l-79 520l-80 -520h-117l-96 689h87l73 -594l83 514h106l79 -514l82 594h80z" unicode="W"/>
<glyph glyph-name="X" d="M49 689h100l151 -265l152 265h93l-195 -317l219 -372h-100l-171 311l-174 -311h-93l216 367z" unicode="X"/>
<glyph glyph-name="Y" d="M344 266v-266h-88v265l-233 424h96l183 -346l185 346h90z" unicode="Y"/>
<glyph glyph-name="Z" d="M167 75h360l-10 -75h-445v70l363 544h-327v75h420v-72z" unicode="Z"/>
<glyph glyph-name="bracketleft" d="M184 -115v930h251v-72h-171v-787h171v-71h-251z" unicode="["/>
<glyph glyph-name="backslash" d="M53 777l66 32l428 -882l-68 -30z" unicode="\"/>
<glyph glyph-name="bracketright" d="M416 815v-930h-251v71h171v787h-171v72h251z" unicode="]"/>
<glyph glyph-name="asciicircum" d="M337 840l189 -313h-91l-136 237l-135 -237h-90l189 313h74z" unicode="^"/>
<glyph glyph-name="underscore" d="M50 -182v74h500v-74h-500z" unicode="_"/>
<glyph glyph-name="grave" d="M387 622l-203 93l46 72l184 -119z" unicode="`"/>
<glyph glyph-name="a" d="M260 52q39 0 74.5 20t58.5 55v135h-76q-158 0 -158 -110q0 -100 101 -100zM478 115q0 -31 10 -45.5t33 -21.5l-21 -60q-77 10 -96 75q-57 -74 -165 -74q-79 0 -124.5 44t-45.5 118q0 81 63.5 125t182.5 44h78v43q0 105 -125 105q-60 0 -137 -27l-23 64q93 33 173 33 q96 0 146.5 -45t50.5 -125v-253z" unicode="a"/>
<glyph glyph-name="b" d="M304 57q137 0 137 207q0 206 -125 206q-74 0 -132 -84v-261q44 -68 120 -68zM184 458q61 80 151 80q101 0 149 -72t48 -202q0 -124 -55 -199.5t-154 -75.5q-91 0 -143 66l-6 -55h-74v739l84 10v-291z" unicode="b"/>
<glyph glyph-name="c" d="M339 61q69 0 137 46l40 -55q-33 -29 -82 -46t-95 -17q-117 0 -182.5 73.5t-65.5 198.5q0 122 66.5 199.5t181.5 77.5q102 0 176 -62l-41 -55q-69 46 -136 46q-71 0 -113.5 -52.5t-42.5 -153.5t42.5 -150.5t114.5 -49.5z" unicode="c"/>
<glyph glyph-name="d" d="M296 470q-66 0 -101.5 -52t-35.5 -155q0 -207 127 -207q75 0 130 84v262q-46 68 -120 68zM416 749l84 -10v-739h-74l-8 69q-57 -80 -149 -80q-100 0 -150.5 73t-50.5 201q0 121 55.5 198t150.5 77q87 0 142 -63v274z" unicode="d"/>
<glyph glyph-name="e" d="M309 469q-61 0 -99 -43.5t-43 -127.5h274q-1 83 -36 127t-96 44zM167 234q3 -87 45.5 -131t107.5 -44q70 0 141 47l39 -56q-79 -61 -180 -61q-114 0 -177.5 74.5t-63.5 199.5q0 121 62.5 198t166.5 77q100 0 157.5 -69.5t57.5 -189.5q0 -23 -2 -45h-354z" unicode="e"/>
<glyph glyph-name="f" d="M411 749q75 0 143 -28l-27 -63q-50 22 -113 22q-110 0 -110 -87v-107h178l-9 -67h-169v-419h-85v419h-125v67h125v105q0 71 54.5 114.5t137.5 43.5z" unicode="f"/>
<glyph glyph-name="g" d="M288 476q-61 0 -92 -32.5t-31 -88.5t31.5 -89.5t93.5 -33.5q56 0 85.5 32.5t29.5 91.5q0 120 -117 120zM529 582l25 -79q-47 -15 -154 -15q92 -42 92 -133q0 -80 -53 -129.5t-145 -49.5q-47 0 -79 11q-27 -22 -27 -51q0 -45 70 -45h95q80 0 133 -41t53 -102 q0 -77 -65.5 -118.5t-185.5 -41.5q-122 0 -172 38t-50 121h76q0 -49 30.5 -70t115.5 -21q166 0 166 87q0 36 -33 55.5t-85 19.5h-94q-65 0 -99 28.5t-34 71.5q0 54 58 92q-88 45 -88 145q0 81 58.5 132t151.5 51q63 0 108.5 6.5t69.5 14t62 23.5z" unicode="g"/>
<glyph glyph-name="h" d="M184 747v-293q31 40 76 62t93 22q148 0 148 -156v-382h-84v381q0 47 -22 68.5t-70 21.5q-41 0 -79 -26t-62 -61v-384h-84v738z" unicode="h"/>
<glyph glyph-name="i" d="M367 527v-460h148v-67h-394v67h162v393h-157v67h241zM300 773q28 0 45 -16.5t17 -42.5t-17 -42.5t-45 -16.5q-27 0 -43.5 16.5t-16.5 42.5t16.5 42.5t43.5 16.5z" unicode="i"/>
<glyph glyph-name="j" d="M445 527v-443q0 -127 -84.5 -197.5t-250.5 -98.5l-14 65q127 21 196 73.5t69 152.5v381h-219v67h303zM367 773q27 0 44 -16.5t17 -42.5t-17 -42.5t-44 -16.5t-44 16.5t-17 42.5t17 42.5t44 16.5z" unicode="j"/>
<glyph glyph-name="k" d="M541 527l-236 -238l264 -289h-111l-259 288l234 239h108zM190 749v-749h-84v739z" unicode="k"/>
<glyph glyph-name="l" d="M306 739v-609q0 -71 87 -71q41 0 88 18l22 -61q-50 -27 -125 -27q-71 0 -113.5 39t-42.5 106v538h-162v67h246z" unicode="l"/>
<glyph glyph-name="m" d="M447 538q102 0 102 -146v-392h-77v378q0 55 -7 74.5t-34 19.5q-51 0 -92 -63v-409h-78v378q0 55 -7 74.5t-34 19.5q-51 0 -92 -63v-409h-77v527h65l6 -62q50 73 114 73q74 0 95 -70q48 70 116 70z" unicode="m"/>
<glyph glyph-name="n" d="M100 0v527h72l7 -74q31 40 78.5 62.5t95.5 22.5q148 0 148 -156v-382h-84v320q0 86 -17 118.5t-73 32.5q-43 0 -81 -26t-62 -62v-383h-84z" unicode="n"/>
<glyph glyph-name="o" d="M301 469q-137 0 -137 -206q0 -205 136 -205t136 206q0 205 -135 205zM301 538q109 0 167.5 -73.5t58.5 -200.5q0 -124 -59.5 -199.5t-167.5 -75.5q-109 0 -168 73.5t-59 200.5q0 125 59.5 200t168.5 75z" unicode="o"/>
<glyph glyph-name="p" d="M316 470q-74 0 -132 -84v-261q45 -66 121 -66q131 0 131 205q0 206 -120 206zM336 538q191 0 191 -274q0 -125 -52 -200t-151 -75q-86 0 -140 60v-251l-84 -10v739h72l7 -74q60 85 157 85z" unicode="p"/>
<glyph glyph-name="q" d="M295 470q-131 0 -131 -207q0 -204 121 -204q78 0 131 81v262q-44 68 -121 68zM274 538q92 0 147 -69l7 58h72v-739l-84 10v268q-56 -77 -149 -77q-194 0 -194 274q0 122 53 198.5t148 76.5z" unicode="q"/>
<glyph glyph-name="r" d="M456 538q32 0 74 -11l-12 -179h-68v113h-5q-122 0 -173 -174v-222h107v-65h-274v65h83v397h-83v65h146l16 -125q32 68 76.5 102t112.5 34z" unicode="r"/>
<glyph glyph-name="s" d="M280 58q60 0 95 23t35 61t-24 59t-103 41q-92 23 -136 55.5t-44 96.5q0 66 55 105t145 39q110 0 192 -58l-38 -58q-69 48 -152 48q-114 0 -114 -69q0 -35 28 -52.5t111 -40.5q86 -23 128.5 -58.5t42.5 -103.5q0 -79 -64 -118t-157 -39q-124 0 -206 71l47 55 q69 -57 159 -57z" unicode="s"/>
<glyph glyph-name="t" d="M519 27q-59 -38 -142 -38t-130 43.5t-47 114.5v314h-121v66h121v119l84 10v-129h183l-11 -66h-172v-313q0 -89 101 -89q54 0 101 25z" unicode="t"/>
<glyph glyph-name="u" d="M184 527v-374q0 -51 21.5 -74.5t67.5 -23.5q42 0 81 24t62 60v388h84v-527h-72l-7 71q-31 -39 -76.5 -60.5t-92.5 -21.5q-75 0 -113.5 40t-38.5 115v383h84z" unicode="u"/>
<glyph glyph-name="v" d="M540 527l-192 -527h-97l-191 527h90l152 -451l150 451h88z" unicode="v"/>
<glyph glyph-name="w" d="M491 0h-119l-69 386l-74 -386h-116l-95 527h85l68 -475l84 408h99l79 -408l68 475h81z" unicode="w"/>
<glyph glyph-name="x" d="M152 0h-96l194 278l-171 249h100l122 -196l123 196h97l-171 -245l194 -282h-102l-145 226z" unicode="x"/>
<glyph glyph-name="y" d="M538 527l-184 -530q-31 -91 -85 -145t-151 -64l-12 67q76 13 110.5 46t56.5 99h-28l-183 527h89l151 -463l149 463h87z" unicode="y"/>
<glyph glyph-name="z" d="M205 72h293l-10 -72h-386v64l292 389h-269v74h370v-66z" unicode="z"/>
<glyph glyph-name="braceleft" d="M451 836v-67q-125 0 -125 -71v-9l20 -205q1 -9 1 -26q0 -48 -23 -73.5t-71 -34.5q49 -9 71.5 -33.5t22.5 -73.5q0 -17 -1 -27l-20 -205v-9q0 -71 125 -71v-67q-204 0 -204 136q0 13 1 20l21 190q1 7 1 20q0 45 -33 65.5t-120 20.5v68q87 0 120 20.5t33 64.5q0 12 -1 19 l-21 192q-1 7 -1 20q0 136 204 136z" unicode="{"/>
<glyph glyph-name="bar" d="M337 807v-909h-75v909h75z" unicode="|"/>
<glyph glyph-name="braceright" d="M149 836q204 0 204 -136q0 -13 -1 -20l-21 -192q-1 -5 -1 -15q0 -45 35.5 -67t117.5 -22v-68q-83 0 -118 -22t-35 -68q0 -10 1 -16l21 -190q1 -7 1 -20q0 -136 -204 -136v67q125 0 125 71v9l-20 205q-2 20 -2 27q0 50 25 74t81 32q-55 10 -80 35.5t-25 74.5q0 16 1 25 l20 205v9q0 71 -125 71v67z" unicode="}"/>
<glyph glyph-name="asciitilde" d="M205 401q34 0 64 -15.5t47.5 -34.5t39.5 -34.5t42 -15.5q53 0 99 85l60 -32q-19 -36 -36 -59.5t-51 -45t-75 -21.5q-40 0 -74.5 25t-63.5 50t-55 25q-53 0 -99 -85l-60 30q14 27 26.5 45.5t32 39.5t45.5 32t58 11z" unicode="~"/>
<glyph glyph-name="uni00A0" unicode=" "/>
<glyph glyph-name="exclamdown" d="M335 260l13 -457h-97l12 457h72zM299 499q28 0 47.5 -20t19.5 -48t-19.5 -47t-47.5 -19t-47.5 19t-19.5 47q0 29 19.5 48.5t47.5 19.5z" unicode="¡"/>
<glyph glyph-name="cent" d="M373 683v-150q68 -8 121 -51l-42 -56q-56 41 -116 41q-67 0 -103 -52t-36 -154q0 -200 139 -200q60 0 117 45l41 -60q-52 -44 -121 -52v-147h-75v147q-94 12 -143 82t-49 185q0 111 49.5 184.5t143.5 86.5v151h74z" unicode="¢"/>
<glyph glyph-name="sterling" d="M346 700q117 0 179 -87l-56 -43q-48 59 -120 59q-108 0 -108 -121v-121h206v-58h-206v-124q0 -98 -62 -133h338l-10 -72h-432v68q29 9 46 21.5t24.5 32t9 35t1.5 44.5v128h-82v58h82v128q0 81 51.5 133t138.5 52z" unicode="£"/>
<glyph glyph-name="currency" d="M301 486q-62 0 -95 -38t-33 -106t33 -105.5t95 -37.5t94.5 37.5t32.5 105.5t-32.5 106t-94.5 38zM89 610l88 -90q55 33 124 33q73 0 121 -33l89 89l55 -54l-87 -88q36 -54 36 -125q0 -68 -37 -127l88 -87l-55 -54l-90 88q-50 -32 -120 -32q-71 0 -123 32l-89 -89l-55 54 l89 89q-35 56 -35 126t34 123l-88 91z" unicode="¤"/>
<glyph glyph-name="yen" d="M561 689l-194 -344h119v-58h-142v-86h142v-59h-142v-142h-88v142h-140v59h140v86h-140v58h116l-193 344h96l166 -317h4l167 317h89z" unicode="¥"/>
<glyph glyph-name="brokenbar" d="M337 253v-355h-75v355h75zM337 807v-355h-75v355h75z" unicode="¦"/>
<glyph glyph-name="section" d="M239 416q-49 -38 -49 -85q0 -40 26.5 -57.5t125.5 -53.5q12 -5 19 -7q49 40 49 86q0 39 -28.5 57t-142.5 60zM317 700q93 0 167 -54l-40 -57q-62 42 -133 42q-43 0 -69 -19.5t-26 -50.5q0 -34 24 -53.5t100 -45.5q83 -27 118 -61t35 -91q0 -77 -80 -126q59 -44 59 -108 q0 -67 -53.5 -106t-139.5 -39q-98 0 -171 54l40 57q61 -43 136 -43q43 0 71.5 19.5t28.5 51.5q0 34 -24.5 53t-99.5 44q-83 28 -118.5 61.5t-35.5 91.5q0 75 81 125q-59 45 -59 109q0 66 54.5 106t134.5 40z" unicode="§"/>
<glyph glyph-name="dieresis" d="M403 648q-23 0 -38.5 15t-15.5 38q0 24 15.5 39.5t38.5 15.5t39 -15.5t16 -39.5q0 -22 -16 -37.5t-39 -15.5zM196 648q-23 0 -39 15.5t-16 37.5q0 24 16 39.5t39 15.5t38.5 -15.5t15.5 -39.5q0 -23 -15.5 -38t-38.5 -15z" unicode="¨"/>
<glyph glyph-name="copyright" d="M304 625q66 0 118 -39l-36 -47q-39 30 -78 30q-42 0 -68 -32.5t-26 -100.5q0 -64 25 -96.5t69 -32.5q48 0 86 35l33 -48q-53 -47 -122 -47q-73 0 -118 50t-45 139t47 139t115 50zM301 697q-104 0 -160 -73.5t-56 -188.5q0 -114 56 -186.5t160 -72.5t159.5 72.5 t55.5 186.5t-55.5 188t-159.5 74zM301 747q125 0 197.5 -89t72.5 -223q0 -133 -72.5 -221.5t-197.5 -88.5t-198.5 88.5t-73.5 221.5q0 134 73 223t199 89z" unicode="©"/>
<glyph glyph-name="ordfeminine" d="M498 75v-75h-392v75h392zM378 520h-58q-133 0 -133 -76q0 -77 86 -77q63 0 105 56v97zM290 749q82 0 124 -36.5t42 -103.5v-197q0 -41 34 -51l-19 -54q-64 8 -83 59q-51 -59 -134 -59q-68 0 -110 36.5t-42 96.5q0 66 57 101.5t160 35.5h59v29q0 79 -99 79q-55 0 -122 -25 l-23 59q80 30 156 30z" unicode="ª"/>
<glyph glyph-name="guillemotleft" d="M517 87l-51 -32l-177 208v61l177 208l51 -32l-136 -206zM309 87l-51 -32l-176 208v61l176 208l51 -32l-136 -206z" unicode="«"/>
<glyph glyph-name="logicalnot" d="M484 348v-214h-77v142h-291v72h368z" unicode="¬"/>
<glyph glyph-name="uni00AD" d="M144 277v72h312v-72h-312z" unicode="­"/>
<glyph glyph-name="registered" d="M287 592h-30v-86h32q61 0 61 45q0 41 -63 41zM286 636q122 0 122 -85q0 -60 -67 -79l86 -118h-66l-75 109h-29v-109h-56v282h85zM300 700q-85 0 -143 -61t-58 -147q0 -87 57.5 -146.5t143.5 -59.5t143 59.5t57 146.5q0 86 -57.5 147t-142.5 61zM300 747q105 0 179 -75 t74 -180q0 -106 -74 -179.5t-179 -73.5t-179.5 74t-74.5 179t74.5 180t179.5 75z" unicode="®"/>
<glyph glyph-name="macron" d="M434 676h-269v64h269v-64z" unicode="¯"/>
<glyph glyph-name="degree" d="M228 689q-37 0 -63 -24.5t-26 -71.5t26 -72.5t63 -25.5t63 25t26 72t-26 72t-63 25zM228 749q66 0 114 -42.5t48 -114.5t-48 -114t-114 -42t-114.5 42.5t-48.5 114.5t48.5 114t114.5 42z" unicode="°"/>
<glyph glyph-name="plusminus" d="M484 73v-73h-368v73h368zM340 538v-149h144v-71h-144v-155h-80v155h-144v71h144v149h80z" unicode="±"/>
<glyph glyph-name="uni00B2" d="M435 536q0 -47 -35.5 -79.5t-133.5 -80.5h179l-9 -61h-277v53q130 79 165 106.5t35 58.5q0 23 -15.5 35.5t-43.5 12.5q-55 0 -95 -48l-51 39q61 70 148 70q62 0 97.5 -29t35.5 -77z" unicode="²"/>
<glyph glyph-name="uni00B3" d="M308 642q60 0 95 -24t35 -65q0 -28 -16 -44t-55 -23q44 -7 64.5 -24t20.5 -52q0 -46 -41 -73.5t-113 -27.5q-94 0 -151 58l46 39q44 -40 108 -40q76 0 76 46q0 47 -72 47h-46l7 43h35q64 0 64 41q0 44 -62 44q-54 0 -104 -38l-40 41q64 52 149 52z" unicode="³"/>
<glyph glyph-name="acute" d="M384 797l38 -72l-209 -85l-26 45z" unicode="´"/>
<glyph glyph-name="uni00B5" d="M484 527v-359q0 -78 27 -168l-79 -12q-18 32 -24 85q-23 -38 -62 -61.5t-79 -23.5t-62 11.5t-42 39.5q9 -65 9 -88v-153l-84 -10v739h84v-296q0 -89 16.5 -128.5t72.5 -39.5q83 0 139 79v385h84z" unicode="µ"/>
<glyph glyph-name="paragraph" d="M556 689v-890l-77 -11v831h-112v-820l-77 -11v501q-118 0 -182.5 55.5t-64.5 142.5q0 88 66.5 145t187.5 57h259z" unicode="¶"/>
<glyph glyph-name="periodcentered" d="M211 342q0 37 25.5 62t62.5 25q38 0 63 -25t25 -62q0 -38 -25 -63.5t-63 -25.5q-37 0 -62.5 25.5t-25.5 63.5z" unicode="·"/>
<glyph glyph-name="cedilla" d="M340 -141q0 26 -21 35t-65 9l8 113h58v-73q46 -4 69.5 -27.5t23.5 -55.5q0 -47 -35.5 -72.5t-86.5 -25.5q-63 0 -105 24l27 48q30 -16 67 -16q60 0 60 41z" unicode="¸"/>
<glyph glyph-name="uni00B9" d="M364 315v239l-96 -52l-35 49l145 85h57v-321h-71z" unicode="¹"/>
<glyph glyph-name="ordmasculine" d="M497 75v-75h-393v75h393zM300 685q-56 0 -88 -39t-32 -117q0 -79 31.5 -118t88.5 -39q56 0 87.5 39t31.5 118q0 78 -31.5 117t-87.5 39zM300 749q94 0 148.5 -59.5t54.5 -160.5q0 -99 -55.5 -160.5t-147.5 -61.5q-93 0 -148.5 60.5t-55.5 161.5q0 98 56 159t148 61z" unicode="º"/>
<glyph glyph-name="guillemotright" d="M424 294l-135 206l51 32l177 -208v-61l-177 -208l-51 32zM217 294l-135 206l51 32l176 -208v-61l-176 -208l-51 32z" unicode="»"/>
<glyph glyph-name="onequarter" d="M546 56v-56h-73v56h-178v48l135 227l62 -25l-115 -191h96l6 86h67v-86h55v-59h-55zM45 184l-31 54l535 256l30 -54zM129 368v239l-96 -52l-35 49l145 85h57v-321h-71z" unicode="¼"/>
<glyph glyph-name="onehalf" d="M595 221q0 -46 -36 -79t-133 -81h178l-8 -61h-277v53q130 79 164.5 106.5t34.5 58.5q0 23 -15.5 35.5t-43.5 12.5q-55 0 -95 -48l-51 39q61 70 149 70q62 0 97.5 -29t35.5 -77zM41 184l-31 54l535 256l30 -54zM126 368v239l-96 -52l-35 49l145 85h57v-321h-71z" unicode="½"/>
<glyph glyph-name="threequarters" d="M547 56v-56h-72v56h-179v48l136 227l61 -25l-115 -191h97l6 86h66v-86h56v-59h-56zM54 184l-31 54l535 256l30 -54zM158 695q60 0 95 -24t35 -65q0 -28 -16 -44t-55 -23q44 -7 64.5 -24t20.5 -52q0 -46 -41 -73.5t-113 -27.5q-94 0 -151 58l46 39q44 -40 108 -40 q76 0 76 46q0 47 -72 47h-46l7 43h35q64 0 64 41q0 44 -62 44q-54 0 -104 -38l-40 41q64 52 149 52z" unicode="¾"/>
<glyph glyph-name="questiondown" d="M370 260v-38q0 -45 -18.5 -79.5t-44.5 -55.5t-52 -40t-44.5 -43.5t-18.5 -55.5q0 -42 33 -66t85 -24q84 0 142 74l60 -45q-84 -99 -210 -99q-88 0 -142.5 46.5t-54.5 108.5q0 37 13.5 66t33.5 45.5t43 34.5t43 34t33.5 42.5t13.5 60.5v34h85zM324 499q28 0 47.5 -20 t19.5 -48t-19.5 -47t-47.5 -19t-47.5 19t-19.5 47q0 29 19.5 48.5t47.5 19.5z" unicode="¿"/>
<glyph glyph-name="Agrave" d="M184 248h227l-113 367zM434 176h-273l-55 -176h-86l225 689h110l224 -689h-90zM231 909l185 -108l-26 -46l-205 82z" unicode="À"/>
<glyph glyph-name="Aacute" d="M184 248h227l-113 367zM434 176h-273l-55 -176h-86l225 689h110l224 -689h-90zM383 906l37 -72l-213 -79l-22 46z" unicode="Á"/>
<glyph glyph-name="Acircumflex" d="M184 248h227l-113 367zM434 176h-273l-55 -176h-86l225 689h110l224 -689h-90zM329 910l134 -107l-37 -43l-126 81l-125 -81l-38 43l135 107h57z" unicode="Â"/>
<glyph glyph-name="Atilde" d="M184 248h227l-113 367zM434 176h-273l-55 -176h-86l225 689h110l224 -689h-90zM358 778q-28 0 -64 24t-52 24q-28 0 -53 -46l-53 26q41 85 106 85q30 0 65 -24.5t51 -24.5q27 0 53 45l54 -27q-38 -82 -107 -82z" unicode="Ã"/>
<glyph glyph-name="Adieresis" d="M184 248h227l-113 367zM434 176h-273l-55 -176h-86l225 689h110l224 -689h-90zM403 767q-23 0 -38.5 15t-15.5 38q0 24 15.5 39.5t38.5 15.5t39 -15.5t16 -39.5q0 -22 -16 -37.5t-39 -15.5zM196 767q-23 0 -39 15.5t-16 37.5q0 24 16 39.5t39 15.5t38.5 -15.5t15.5 -39.5 q0 -23 -15.5 -38t-38.5 -15z" unicode="Ä"/>
<glyph glyph-name="Aring" d="M184 248h227l-113 367zM434 176h-273l-55 -176h-86l225 689h110l224 -689h-90zM300 896q-25 0 -39.5 -15t-14.5 -41q0 -27 14.5 -42t39.5 -15q26 0 40 15t14 42q0 26 -14.5 41t-39.5 15zM300 943q48 0 79.5 -30t31.5 -73t-31.5 -72.5t-79.5 -29.5t-79.5 29.5t-31.5 72.5 t31.5 73t79.5 30z" unicode="Å"/>
<glyph glyph-name="AE" d="M148 248h166l-73 372zM330 175h-204l-49 -175h-89l202 689h376l-10 -71h-236l51 -233h186v-71h-173l52 -243h171v-71h-241z" unicode="Æ"/>
<glyph glyph-name="Ccedilla" d="M370 -57q46 -4 69.5 -27.5t23.5 -55.5q0 -47 -35.5 -72.5t-86.5 -25.5q-63 0 -105 24l27 48q30 -16 67 -16q60 0 60 41q0 26 -21 35t-65 9l6 90q-111 18 -179 110t-68 242q0 167 84.5 261t210.5 94q64 0 110 -16.5t90 -50.5l-49 -57q-61 51 -145 51q-93 0 -151.5 -67.5 t-58.5 -214.5q0 -146 57 -214t152 -68q87 0 160 57l45 -56q-74 -72 -198 -75v-46z" unicode="Ç"/>
<glyph glyph-name="Egrave" d="M212 617v-232h256v-71h-256v-244h314v-70h-400v689h391l-10 -72h-295zM252 909l185 -108l-26 -46l-205 82z" unicode="È"/>
<glyph glyph-name="Eacute" d="M212 617v-232h256v-71h-256v-244h314v-70h-400v689h391l-10 -72h-295zM404 906l37 -72l-213 -79l-22 46z" unicode="É"/>
<glyph glyph-name="Ecircumflex" d="M212 617v-232h256v-71h-256v-244h314v-70h-400v689h391l-10 -72h-295zM350 910l134 -107l-37 -43l-126 81l-125 -81l-38 43l135 107h57z" unicode="Ê"/>
<glyph glyph-name="Edieresis" d="M212 617v-232h256v-71h-256v-244h314v-70h-400v689h391l-10 -72h-295zM424 767q-23 0 -38.5 15t-15.5 38q0 24 15.5 39.5t38.5 15.5t39 -15.5t16 -39.5q0 -22 -16 -37.5t-39 -15.5zM217 767q-23 0 -39 15.5t-16 37.5q0 24 16 39.5t39 15.5t38.5 -15.5t15.5 -39.5 q0 -23 -15.5 -38t-38.5 -15z" unicode="Ë"/>
<glyph glyph-name="Igrave" d="M497 689v-70h-153v-550h153v-69h-394v69h153v550h-153v70h394zM231 909l185 -108l-26 -46l-205 82z" unicode="Ì"/>
<glyph glyph-name="Iacute" d="M497 689v-70h-153v-550h153v-69h-394v69h153v550h-153v70h394zM383 906l37 -72l-213 -79l-22 46z" unicode="Í"/>
<glyph glyph-name="Icircumflex" d="M497 689v-70h-153v-550h153v-69h-394v69h153v550h-153v70h394zM329 910l134 -107l-37 -43l-126 81l-125 -81l-38 43l135 107h57z" unicode="Î"/>
<glyph glyph-name="Idieresis" d="M497 689v-70h-153v-550h153v-69h-394v69h153v550h-153v70h394zM403 767q-23 0 -38.5 15t-15.5 38q0 24 15.5 39.5t38.5 15.5t39 -15.5t16 -39.5q0 -22 -16 -37.5t-39 -15.5zM196 767q-23 0 -39 15.5t-16 37.5q0 24 16 39.5t39 15.5t38.5 -15.5t15.5 -39.5 q0 -23 -15.5 -38t-38.5 -15z" unicode="Ï"/>
<glyph glyph-name="Eth" d="M262 70q41 0 75 12t65.5 41t49.5 86t18 139q0 85 -18.5 142.5t-52 83.5t-65.5 35t-73 9h-81v-232h158v-66h-158v-250h82zM240 689q53 0 96 -7.5t86.5 -30t73 -59.5t48 -99t18.5 -145t-19 -146.5t-49 -101t-72.5 -61t-83 -31.5t-87.5 -8h-158v320h-73v66h73v303h147z" unicode="Ð"/>
<glyph glyph-name="Ntilde" d="M395 0l-243 605q12 -180 12 -260v-345h-81v689h118l247 -608q0 5 -3.5 48.5t-6 101.5t-2.5 113v345h81v-689h-122zM356 778q-28 0 -64 24t-52 24q-28 0 -53 -46l-53 26q41 85 106 85q30 0 65 -24.5t51 -24.5q27 0 53 45l54 -27q-38 -82 -107 -82z" unicode="Ñ"/>
<glyph glyph-name="Ograve" d="M463 344q0 141 -39 212t-124 71t-124 -71.5t-39 -212.5q0 -281 163 -281q85 0 124 70.5t39 211.5zM553 344q0 -161 -65.5 -258t-187.5 -97q-123 0 -188 95t-65 259q0 161 65.5 259t187.5 98t187.5 -96.5t65.5 -259.5zM231 909l185 -108l-26 -46l-205 82z" unicode="Ò"/>
<glyph glyph-name="Oacute" d="M463 344q0 141 -39 212t-124 71t-124 -71.5t-39 -212.5q0 -281 163 -281q85 0 124 70.5t39 211.5zM553 344q0 -161 -65.5 -258t-187.5 -97q-123 0 -188 95t-65 259q0 161 65.5 259t187.5 98t187.5 -96.5t65.5 -259.5zM383 906l37 -72l-213 -79l-22 46z" unicode="Ó"/>
<glyph glyph-name="Ocircumflex" d="M463 344q0 141 -39 212t-124 71t-124 -71.5t-39 -212.5q0 -281 163 -281q85 0 124 70.5t39 211.5zM553 344q0 -161 -65.5 -258t-187.5 -97q-123 0 -188 95t-65 259q0 161 65.5 259t187.5 98t187.5 -96.5t65.5 -259.5zM329 910l134 -107l-37 -43l-126 81l-125 -81l-38 43 l135 107h57z" unicode="Ô"/>
<glyph glyph-name="Otilde" d="M463 344q0 141 -39 212t-124 71t-124 -71.5t-39 -212.5q0 -281 163 -281q85 0 124 70.5t39 211.5zM553 344q0 -161 -65.5 -258t-187.5 -97q-123 0 -188 95t-65 259q0 161 65.5 259t187.5 98t187.5 -96.5t65.5 -259.5zM358 778q-28 0 -64 24t-52 24q-28 0 -53 -46l-53 26 q41 85 106 85q30 0 65 -24.5t51 -24.5q27 0 53 45l54 -27q-38 -82 -107 -82z" unicode="Õ"/>
<glyph glyph-name="Odieresis" d="M463 344q0 141 -39 212t-124 71t-124 -71.5t-39 -212.5q0 -281 163 -281q85 0 124 70.5t39 211.5zM553 344q0 -161 -65.5 -258t-187.5 -97q-123 0 -188 95t-65 259q0 161 65.5 259t187.5 98t187.5 -96.5t65.5 -259.5zM403 767q-23 0 -38.5 15t-15.5 38q0 24 15.5 39.5 t38.5 15.5t39 -15.5t16 -39.5q0 -22 -16 -37.5t-39 -15.5zM196 767q-23 0 -39 15.5t-16 37.5q0 24 16 39.5t39 15.5t38.5 -15.5t15.5 -39.5q0 -23 -15.5 -38t-38.5 -15z" unicode="Ö"/>
<glyph glyph-name="multiply" d="M423 483l52 -53l-123 -123l123 -123l-52 -52l-123 123l-123 -123l-52 52l123 123l-123 123l52 53l123 -124z" unicode="×"/>
<glyph glyph-name="Oslash" d="M300 62q85 0 123.5 70.5t38.5 211.5q0 188 -60 247l-151 -523q23 -6 49 -6zM138 343q0 -185 60 -245l151 523q-23 6 -49 6q-85 0 -123.5 -71.5t-38.5 -212.5zM434 659q119 -86 119 -315q0 -161 -65.5 -258t-187.5 -97q-36 0 -63 7l-33 -106l-75 19l38 119 q-120 86 -120 315q0 161 65.5 259t187.5 98q33 0 65 -8l32 111l75 -20z" unicode="Ø"/>
<glyph glyph-name="Ugrave" d="M528 689v-466q0 -105 -62.5 -169.5t-166.5 -64.5q-105 0 -166 64t-61 170v466h87v-469q0 -78 36 -117t104 -39q141 0 141 156v469h88zM231 909l185 -108l-26 -46l-205 82z" unicode="Ù"/>
<glyph glyph-name="Uacute" d="M528 689v-466q0 -105 -62.5 -169.5t-166.5 -64.5q-105 0 -166 64t-61 170v466h87v-469q0 -78 36 -117t104 -39q141 0 141 156v469h88zM383 906l37 -72l-213 -79l-22 46z" unicode="Ú"/>
<glyph glyph-name="Ucircumflex" d="M528 689v-466q0 -105 -62.5 -169.5t-166.5 -64.5q-105 0 -166 64t-61 170v466h87v-469q0 -78 36 -117t104 -39q141 0 141 156v469h88zM329 910l134 -107l-37 -43l-126 81l-125 -81l-38 43l135 107h57z" unicode="Û"/>
<glyph glyph-name="Udieresis" d="M528 689v-466q0 -105 -62.5 -169.5t-166.5 -64.5q-105 0 -166 64t-61 170v466h87v-469q0 -78 36 -117t104 -39q141 0 141 156v469h88zM403 767q-23 0 -38.5 15t-15.5 38q0 24 15.5 39.5t38.5 15.5t39 -15.5t16 -39.5q0 -22 -16 -37.5t-39 -15.5zM196 767q-23 0 -39 15.5 t-16 37.5q0 24 16 39.5t39 15.5t38.5 -15.5t15.5 -39.5q0 -23 -15.5 -38t-38.5 -15z" unicode="Ü"/>
<glyph glyph-name="Yacute" d="M344 266v-266h-88v265l-233 424h96l183 -346l185 346h90zM386 906l37 -72l-213 -79l-22 46z" unicode="Ý"/>
<glyph glyph-name="Thorn" d="M303 503h-109v-305h109q78 0 119.5 34.5t41.5 120.5q0 150 -161 150zM194 689v-117h98q127 0 195.5 -54t68.5 -163q0 -116 -71 -171.5t-193 -55.5h-98v-128h-87v689h87z" unicode="Þ"/>
<glyph glyph-name="germandbls" d="M297 749q77 0 125.5 -40t48.5 -104q0 -33 -18 -59.5t-39 -41.5t-39 -35t-18 -40t15 -38t37 -31.5t48.5 -31.5t48.5 -37.5t37 -52t15 -71.5q0 -84 -53.5 -131t-132.5 -47q-76 0 -130 34l35 58q38 -24 87 -24q51 0 79.5 26.5t28.5 79.5q0 35 -20.5 62.5t-49.5 46l-58 37 t-49.5 46.5t-20.5 64q0 32 18 57.5t40 39.5t40 35.5t18 45.5q0 33 -22.5 59t-71.5 26q-58 0 -87 -34t-29 -109v-539h-84v533q0 105 53 160.5t148 55.5z" unicode="ß"/>
<glyph glyph-name="agrave" d="M260 52q39 0 74.5 20t58.5 55v135h-76q-158 0 -158 -110q0 -100 101 -100zM478 115q0 -31 10 -45.5t33 -21.5l-21 -60q-77 10 -96 75q-57 -74 -165 -74q-79 0 -124.5 44t-45.5 118q0 81 63.5 125t182.5 44h78v43q0 105 -125 105q-60 0 -137 -27l-23 64q93 33 173 33 q96 0 146.5 -45t50.5 -125v-253zM379 622l-203 93l46 72l184 -119z" unicode="à"/>
<glyph glyph-name="aacute" d="M260 52q39 0 74.5 20t58.5 55v135h-76q-158 0 -158 -110q0 -100 101 -100zM478 115q0 -31 10 -45.5t33 -21.5l-21 -60q-77 10 -96 75q-57 -74 -165 -74q-79 0 -124.5 44t-45.5 118q0 81 63.5 125t182.5 44h78v43q0 105 -125 105q-60 0 -137 -27l-23 64q93 33 173 33 q96 0 146.5 -45t50.5 -125v-253zM376 797l38 -72l-209 -85l-26 45z" unicode="á"/>
<glyph glyph-name="acircumflex" d="M260 52q39 0 74.5 20t58.5 55v135h-76q-158 0 -158 -110q0 -100 101 -100zM478 115q0 -31 10 -45.5t33 -21.5l-21 -60q-77 10 -96 75q-57 -74 -165 -74q-79 0 -124.5 44t-45.5 118q0 81 63.5 125t182.5 44h78v43q0 105 -125 105q-60 0 -137 -27l-23 64q93 33 173 33 q96 0 146.5 -45t50.5 -125v-253zM169 629l-40 41l135 119h57l134 -119l-38 -41l-124 91z" unicode="â"/>
<glyph glyph-name="atilde" d="M260 52q39 0 74.5 20t58.5 55v135h-76q-158 0 -158 -110q0 -100 101 -100zM478 115q0 -31 10 -45.5t33 -21.5l-21 -60q-77 10 -96 75q-57 -74 -165 -74q-79 0 -124.5 44t-45.5 118q0 81 63.5 125t182.5 44h78v43q0 105 -125 105q-60 0 -137 -27l-23 64q93 33 173 33 q96 0 146.5 -45t50.5 -125v-253zM350 659q-28 0 -64 24t-52 24q-28 0 -53 -46l-53 26q41 85 106 85q30 0 65 -24.5t51 -24.5q27 0 53 45l54 -27q-38 -82 -107 -82z" unicode="ã"/>
<glyph glyph-name="adieresis" d="M260 52q39 0 74.5 20t58.5 55v135h-76q-158 0 -158 -110q0 -100 101 -100zM478 115q0 -31 10 -45.5t33 -21.5l-21 -60q-77 10 -96 75q-57 -74 -165 -74q-79 0 -124.5 44t-45.5 118q0 81 63.5 125t182.5 44h78v43q0 105 -125 105q-60 0 -137 -27l-23 64q93 33 173 33 q96 0 146.5 -45t50.5 -125v-253zM395 648q-23 0 -38.5 15t-15.5 38q0 24 15.5 39.5t38.5 15.5t39 -15.5t16 -39.5q0 -22 -16 -37.5t-39 -15.5zM188 648q-23 0 -39 15.5t-16 37.5q0 24 16 39.5t39 15.5t38.5 -15.5t15.5 -39.5q0 -23 -15.5 -38t-38.5 -15z" unicode="ä"/>
<glyph glyph-name="aring" d="M260 52q39 0 74.5 20t58.5 55v135h-76q-158 0 -158 -110q0 -100 101 -100zM478 115q0 -31 10 -45.5t33 -21.5l-21 -60q-77 10 -96 75q-57 -74 -165 -74q-79 0 -124.5 44t-45.5 118q0 81 63.5 125t182.5 44h78v43q0 105 -125 105q-60 0 -137 -27l-23 64q93 33 173 33 q96 0 146.5 -45t50.5 -125v-253zM292 777q-25 0 -39.5 -15t-14.5 -41q0 -27 14.5 -42t39.5 -15q26 0 40 15t14 42q0 26 -14.5 41t-39.5 15zM292 824q48 0 79.5 -30t31.5 -73t-31.5 -72.5t-79.5 -29.5t-79.5 29.5t-31.5 72.5t31.5 73t79.5 30z" unicode="å"/>
<glyph glyph-name="ae" d="M254 262h-42q-69 0 -98 -27.5t-29 -78.5q0 -50 20 -76.5t54 -26.5q31 0 55.5 23t53.5 74q-14 45 -14 112zM432 468q-46 0 -68 -38t-28 -131h189q-2 86 -23 127.5t-70 41.5zM435 538q172 0 172 -259q0 -22 -2 -46h-269q7 -91 33.5 -132.5t79.5 -41.5q47 0 99 40l39 -58 q-67 -52 -140 -52q-98 0 -148 89q-35 -48 -69.5 -68.5t-83.5 -20.5q-70 0 -111 44t-41 118q0 83 54.5 126t159.5 43h46v43q0 105 -91 105q-42 0 -105 -27l-22 63q71 34 135 34q103 0 138 -88q14 41 46.5 64.5t79.5 23.5z" unicode="æ"/>
<glyph glyph-name="ccedilla" d="M359 -57q46 -4 69.5 -27.5t23.5 -55.5q0 -47 -35.5 -72.5t-86.5 -25.5q-63 0 -105 24l27 48q30 -16 67 -16q60 0 60 41q0 26 -21 35t-65 9l6 88q-99 13 -153.5 84.5t-54.5 185.5q0 122 66.5 199.5t181.5 77.5q102 0 176 -62l-41 -55q-69 46 -136 46q-71 0 -113.5 -52.5 t-42.5 -153.5t42.5 -150.5t114.5 -49.5q69 0 137 46l40 -55q-62 -55 -157 -63v-46z" unicode="ç"/>
<glyph glyph-name="egrave" d="M309 469q-61 0 -99 -43.5t-43 -127.5h274q-1 83 -36 127t-96 44zM167 234q3 -87 45.5 -131t107.5 -44q70 0 141 47l39 -56q-79 -61 -180 -61q-114 0 -177.5 74.5t-63.5 199.5q0 121 62.5 198t166.5 77q100 0 157.5 -69.5t57.5 -189.5q0 -23 -2 -45h-354zM397 622l-203 93 l46 72l184 -119z" unicode="è"/>
<glyph glyph-name="eacute" d="M309 469q-61 0 -99 -43.5t-43 -127.5h274q-1 83 -36 127t-96 44zM167 234q3 -87 45.5 -131t107.5 -44q70 0 141 47l39 -56q-79 -61 -180 -61q-114 0 -177.5 74.5t-63.5 199.5q0 121 62.5 198t166.5 77q100 0 157.5 -69.5t57.5 -189.5q0 -23 -2 -45h-354zM394 797l38 -72 l-209 -85l-26 45z" unicode="é"/>
<glyph glyph-name="ecircumflex" d="M309 469q-61 0 -99 -43.5t-43 -127.5h274q-1 83 -36 127t-96 44zM167 234q3 -87 45.5 -131t107.5 -44q70 0 141 47l39 -56q-79 -61 -180 -61q-114 0 -177.5 74.5t-63.5 199.5q0 121 62.5 198t166.5 77q100 0 157.5 -69.5t57.5 -189.5q0 -23 -2 -45h-354zM187 629l-40 41 l135 119h57l134 -119l-38 -41l-124 91z" unicode="ê"/>
<glyph glyph-name="edieresis" d="M309 469q-61 0 -99 -43.5t-43 -127.5h274q-1 83 -36 127t-96 44zM167 234q3 -87 45.5 -131t107.5 -44q70 0 141 47l39 -56q-79 -61 -180 -61q-114 0 -177.5 74.5t-63.5 199.5q0 121 62.5 198t166.5 77q100 0 157.5 -69.5t57.5 -189.5q0 -23 -2 -45h-354zM413 648 q-23 0 -38.5 15t-15.5 38q0 24 15.5 39.5t38.5 15.5t39 -15.5t16 -39.5q0 -22 -16 -37.5t-39 -15.5zM206 648q-23 0 -39 15.5t-16 37.5q0 24 16 39.5t39 15.5t38.5 -15.5t15.5 -39.5q0 -23 -15.5 -38t-38.5 -15z" unicode="ë"/>
<glyph glyph-name="igrave" d="M367 527v-460h148v-67h-394v67h162v393h-157v67h241zM388 622l-203 93l46 72l184 -119z" unicode="ì"/>
<glyph glyph-name="iacute" d="M367 527v-460h148v-67h-394v67h162v393h-157v67h241zM385 797l38 -72l-209 -85l-26 45z" unicode="í"/>
<glyph glyph-name="icircumflex" d="M367 527v-460h148v-67h-394v67h162v393h-157v67h241zM178 629l-40 41l135 119h57l134 -119l-38 -41l-124 91z" unicode="î"/>
<glyph glyph-name="idieresis" d="M367 527v-460h148v-67h-394v67h162v393h-157v67h241zM404 648q-23 0 -38.5 15t-15.5 38q0 24 15.5 39.5t38.5 15.5t39 -15.5t16 -39.5q0 -22 -16 -37.5t-39 -15.5zM197 648q-23 0 -39 15.5t-16 37.5q0 24 16 39.5t39 15.5t38.5 -15.5t15.5 -39.5q0 -23 -15.5 -38 t-38.5 -15z" unicode="ï"/>
<glyph glyph-name="eth" d="M448 267q0 25 -4 65q-53 82 -154 82q-59 0 -98 -44.5t-39 -130.5q0 -87 38.5 -134.5t102.5 -47.5q71 0 112.5 54.5t41.5 155.5zM170 562l80 85q-49 23 -117 36l19 66q92 -19 149 -49l70 73l51 -44l-62 -64q89 -61 130.5 -159t41.5 -242q0 -126 -64.5 -200.5t-172.5 -74.5 q-98 0 -163 65.5t-65 180.5q0 108 62.5 177t150.5 69q97 0 157 -69q-27 127 -129 200l-79 -80z" unicode="ð"/>
<glyph glyph-name="ntilde" d="M100 0v527h72l7 -74q31 40 78.5 62.5t95.5 22.5q148 0 148 -156v-382h-84v320q0 86 -17 118.5t-73 32.5q-43 0 -81 -26t-62 -62v-383h-84zM358 659q-28 0 -64 24t-52 24q-28 0 -53 -46l-53 26q41 85 106 85q30 0 65 -24.5t51 -24.5q27 0 53 45l54 -27q-38 -82 -107 -82z " unicode="ñ"/>
<glyph glyph-name="ograve" d="M301 469q-137 0 -137 -206q0 -205 136 -205t136 206q0 205 -135 205zM301 538q109 0 167.5 -73.5t58.5 -200.5q0 -124 -59.5 -199.5t-167.5 -75.5q-109 0 -168 73.5t-59 200.5q0 125 59.5 200t168.5 75zM387 622l-203 93l46 72l184 -119z" unicode="ò"/>
<glyph glyph-name="oacute" d="M301 469q-137 0 -137 -206q0 -205 136 -205t136 206q0 205 -135 205zM301 538q109 0 167.5 -73.5t58.5 -200.5q0 -124 -59.5 -199.5t-167.5 -75.5q-109 0 -168 73.5t-59 200.5q0 125 59.5 200t168.5 75zM384 797l38 -72l-209 -85l-26 45z" unicode="ó"/>
<glyph glyph-name="ocircumflex" d="M301 469q-137 0 -137 -206q0 -205 136 -205t136 206q0 205 -135 205zM301 538q109 0 167.5 -73.5t58.5 -200.5q0 -124 -59.5 -199.5t-167.5 -75.5q-109 0 -168 73.5t-59 200.5q0 125 59.5 200t168.5 75zM177 629l-40 41l135 119h57l134 -119l-38 -41l-124 91z" unicode="ô"/>
<glyph glyph-name="otilde" d="M301 469q-137 0 -137 -206q0 -205 136 -205t136 206q0 205 -135 205zM301 538q109 0 167.5 -73.5t58.5 -200.5q0 -124 -59.5 -199.5t-167.5 -75.5q-109 0 -168 73.5t-59 200.5q0 125 59.5 200t168.5 75zM358 659q-28 0 -64 24t-52 24q-28 0 -53 -46l-53 26q41 85 106 85 q30 0 65 -24.5t51 -24.5q27 0 53 45l54 -27q-38 -82 -107 -82z" unicode="õ"/>
<glyph glyph-name="odieresis" d="M301 469q-137 0 -137 -206q0 -205 136 -205t136 206q0 205 -135 205zM301 538q109 0 167.5 -73.5t58.5 -200.5q0 -124 -59.5 -199.5t-167.5 -75.5q-109 0 -168 73.5t-59 200.5q0 125 59.5 200t168.5 75zM403 648q-23 0 -38.5 15t-15.5 38q0 24 15.5 39.5t38.5 15.5 t39 -15.5t16 -39.5q0 -22 -16 -37.5t-39 -15.5zM196 648q-23 0 -39 15.5t-16 37.5q0 24 16 39.5t39 15.5t38.5 -15.5t15.5 -39.5q0 -23 -15.5 -38t-38.5 -15z" unicode="ö"/>
<glyph glyph-name="divide" d="M300 183q28 0 48 -19.5t20 -47.5t-20 -47.5t-48 -19.5t-48 19.5t-20 47.5t20 47.5t48 19.5zM484 348v-72h-368v72h368zM300 575q28 0 48 -19.5t20 -47.5t-19.5 -47t-48.5 -19t-48.5 19t-19.5 47t20 47.5t48 19.5z" unicode="÷"/>
<glyph glyph-name="oslash" d="M300 58q136 0 136 206q0 132 -51 177l-118 -380q15 -3 33 -3zM301 469q-137 0 -137 -206q0 -132 52 -178l118 381q-15 3 -33 3zM417 508q110 -68 110 -244q0 -124 -59.5 -199.5t-167.5 -75.5q-29 0 -50 4l-37 -123l-70 20l42 128q-112 67 -112 245q0 125 59.5 200 t168.5 75q22 0 49 -5l38 121l70 -21z" unicode="ø"/>
<glyph glyph-name="ugrave" d="M184 527v-374q0 -51 21.5 -74.5t67.5 -23.5q42 0 81 24t62 60v388h84v-527h-72l-7 71q-31 -39 -76.5 -60.5t-92.5 -21.5q-75 0 -113.5 40t-38.5 115v383h84zM387 622l-203 93l46 72l184 -119z" unicode="ù"/>
<glyph glyph-name="uacute" d="M184 527v-374q0 -51 21.5 -74.5t67.5 -23.5q42 0 81 24t62 60v388h84v-527h-72l-7 71q-31 -39 -76.5 -60.5t-92.5 -21.5q-75 0 -113.5 40t-38.5 115v383h84zM384 797l38 -72l-209 -85l-26 45z" unicode="ú"/>
<glyph glyph-name="ucircumflex" d="M184 527v-374q0 -51 21.5 -74.5t67.5 -23.5q42 0 81 24t62 60v388h84v-527h-72l-7 71q-31 -39 -76.5 -60.5t-92.5 -21.5q-75 0 -113.5 40t-38.5 115v383h84zM177 629l-40 41l135 119h57l134 -119l-38 -41l-124 91z" unicode="û"/>
<glyph glyph-name="udieresis" d="M184 527v-374q0 -51 21.5 -74.5t67.5 -23.5q42 0 81 24t62 60v388h84v-527h-72l-7 71q-31 -39 -76.5 -60.5t-92.5 -21.5q-75 0 -113.5 40t-38.5 115v383h84zM403 648q-23 0 -38.5 15t-15.5 38q0 24 15.5 39.5t38.5 15.5t39 -15.5t16 -39.5q0 -22 -16 -37.5t-39 -15.5z M196 648q-23 0 -39 15.5t-16 37.5q0 24 16 39.5t39 15.5t38.5 -15.5t15.5 -39.5q0 -23 -15.5 -38t-38.5 -15z" unicode="ü"/>
<glyph glyph-name="yacute" d="M538 527l-184 -530q-31 -91 -85 -145t-151 -64l-12 67q76 13 110.5 46t56.5 99h-28l-183 527h89l151 -463l149 463h87zM384 797l38 -72l-209 -85l-26 45z" unicode="ý"/>
<glyph glyph-name="thorn" d="M316 470q-74 0 -132 -84v-261q45 -66 121 -66q131 0 131 205q0 206 -120 206zM184 749v-288q60 77 152 77q191 0 191 -274q0 -125 -52 -200t-151 -75q-86 0 -140 60v-251l-84 -10v951z" unicode="þ"/>
<glyph glyph-name="ydieresis" d="M538 527l-184 -530q-31 -91 -85 -145t-151 -64l-12 67q76 13 110.5 46t56.5 99h-28l-183 527h89l151 -463l149 463h87zM403 648q-23 0 -38.5 15t-15.5 38q0 24 15.5 39.5t38.5 15.5t39 -15.5t16 -39.5q0 -22 -16 -37.5t-39 -15.5zM196 648q-23 0 -39 15.5t-16 37.5 q0 24 16 39.5t39 15.5t38.5 -15.5t15.5 -39.5q0 -23 -15.5 -38t-38.5 -15z" unicode="ÿ"/>
<glyph glyph-name="Amacron" d="M184 248h227l-113 367zM434 176h-273l-55 -176h-86l225 689h110l224 -689h-90zM434 795h-269v64h269v-64z" unicode="Ā"/>
<glyph glyph-name="amacron" d="M260 52q39 0 74.5 20t58.5 55v135h-76q-158 0 -158 -110q0 -100 101 -100zM478 115q0 -31 10 -45.5t33 -21.5l-21 -60q-77 10 -96 75q-57 -74 -165 -74q-79 0 -124.5 44t-45.5 118q0 81 63.5 125t182.5 44h78v43q0 105 -125 105q-60 0 -137 -27l-23 64q93 33 173 33 q96 0 146.5 -45t50.5 -125v-253zM426 676h-269v64h269v-64z" unicode="ā"/>
<glyph glyph-name="Abreve" d="M184 248h227l-113 367zM434 176h-273l-55 -176h-86l225 689h110l224 -689h-90zM298 759q-58 0 -100 32.5t-47 86.5l57 13q25 -67 90 -67q70 0 93 67l58 -13q-6 -54 -49 -86.5t-102 -32.5z" unicode="Ă"/>
<glyph glyph-name="abreve" d="M260 52q39 0 74.5 20t58.5 55v135h-76q-158 0 -158 -110q0 -100 101 -100zM478 115q0 -31 10 -45.5t33 -21.5l-21 -60q-77 10 -96 75q-57 -74 -165 -74q-79 0 -124.5 44t-45.5 118q0 81 63.5 125t182.5 44h78v43q0 105 -125 105q-60 0 -137 -27l-23 64q93 33 173 33 q96 0 146.5 -45t50.5 -125v-253zM290 630q-63 0 -102 42t-46 94l58 13q25 -85 90 -85q68 0 93 85l57 -13q-7 -52 -46.5 -94t-103.5 -42z" unicode="ă"/>
<glyph glyph-name="Aogonek" d="M184 248h227l-113 367zM539 0q-72 -31 -98 -58t-26 -56q0 -48 56 -48q27 0 61 7l-8 -68q-42 -6 -64 -6q-56 0 -89 27.5t-33 70.5q0 94 145 148l-49 159h-273l-55 -176h-86l225 689h110l224 -689h-40z" unicode="Ą"/>
<glyph glyph-name="aogonek" d="M393 127v135h-76q-158 0 -158 -110q0 -100 101 -100q39 0 74.5 20t58.5 55zM500 -12q-72 -31 -98 -58t-26 -56q0 -48 56 -48q27 0 61 7l-8 -68q-42 -6 -64 -6q-56 0 -89 27.5t-33 70.5q0 94 148 149q-32 19 -43 57q-57 -74 -165 -74q-79 0 -124.5 44t-45.5 118 q0 81 63.5 125t182.5 44h78v43q0 105 -125 105q-60 0 -137 -27l-23 64q93 33 173 33q96 0 146.5 -45t50.5 -125v-253q0 -31 10 -45.5t33 -21.5z" unicode="ą"/>
<glyph glyph-name="Cacute" d="M358 700q64 0 110 -16.5t90 -50.5l-49 -57q-61 51 -145 51q-93 0 -151.5 -67.5t-58.5 -214.5q0 -146 57 -214t152 -68q87 0 160 57l45 -56q-77 -75 -206 -75q-131 0 -215 94t-84 262q0 167 84.5 261t210.5 94zM448 906l37 -72l-213 -79l-22 46z" unicode="Ć"/>
<glyph glyph-name="cacute" d="M339 61q69 0 137 46l40 -55q-33 -29 -82 -46t-95 -17q-117 0 -182.5 73.5t-65.5 198.5q0 122 66.5 199.5t181.5 77.5q102 0 176 -62l-41 -55q-69 46 -136 46q-71 0 -113.5 -52.5t-42.5 -153.5t42.5 -150.5t114.5 -49.5zM428 788l38 -72l-209 -85l-26 45z" unicode="ć"/>
<glyph glyph-name="Ccircumflex" d="M358 700q64 0 110 -16.5t90 -50.5l-49 -57q-61 51 -145 51q-93 0 -151.5 -67.5t-58.5 -214.5q0 -146 57 -214t152 -68q87 0 160 57l45 -56q-77 -75 -206 -75q-131 0 -215 94t-84 262q0 167 84.5 261t210.5 94zM394 910l134 -107l-37 -43l-126 81l-125 -81l-38 43l135 107 h57z" unicode="Ĉ"/>
<glyph glyph-name="ccircumflex" d="M339 61q69 0 137 46l40 -55q-33 -29 -82 -46t-95 -17q-117 0 -182.5 73.5t-65.5 198.5q0 122 66.5 199.5t181.5 77.5q102 0 176 -62l-41 -55q-69 46 -136 46q-71 0 -113.5 -52.5t-42.5 -153.5t42.5 -150.5t114.5 -49.5zM221 620l-40 41l135 119h57l134 -119l-38 -41 l-124 91z" unicode="ĉ"/>
<glyph glyph-name="Cdotaccent" d="M358 700q64 0 110 -16.5t90 -50.5l-49 -57q-61 51 -145 51q-93 0 -151.5 -67.5t-58.5 -214.5q0 -146 57 -214t152 -68q87 0 160 57l45 -56q-77 -75 -206 -75q-131 0 -215 94t-84 262q0 167 84.5 261t210.5 94zM364 892q27 0 44 -16.5t17 -42.5t-17 -42.5t-44 -16.5 t-43.5 16.5t-16.5 42.5t16.5 42.5t43.5 16.5z" unicode="Ċ"/>
<glyph glyph-name="cdotaccent" d="M339 61q69 0 137 46l40 -55q-33 -29 -82 -46t-95 -17q-117 0 -182.5 73.5t-65.5 198.5q0 122 66.5 199.5t181.5 77.5q102 0 176 -62l-41 -55q-69 46 -136 46q-71 0 -113.5 -52.5t-42.5 -153.5t42.5 -150.5t114.5 -49.5zM343 764q27 0 44 -16.5t17 -42.5t-17 -42.5 t-44 -16.5t-43.5 16.5t-16.5 42.5t16.5 42.5t43.5 16.5z" unicode="ċ"/>
<glyph glyph-name="Ccaron" d="M358 700q64 0 110 -16.5t90 -50.5l-49 -57q-61 51 -145 51q-93 0 -151.5 -67.5t-58.5 -214.5q0 -146 57 -214t152 -68q87 0 160 57l45 -56q-77 -75 -206 -75q-131 0 -215 94t-84 262q0 167 84.5 261t210.5 94zM491 905l37 -43l-134 -108h-57l-135 108l38 43l125 -81z" unicode="Č"/>
<glyph glyph-name="ccaron" d="M339 61q69 0 137 46l40 -55q-33 -29 -82 -46t-95 -17q-117 0 -182.5 73.5t-65.5 198.5q0 122 66.5 199.5t181.5 77.5q102 0 176 -62l-41 -55q-69 46 -136 46q-71 0 -113.5 -52.5t-42.5 -153.5t42.5 -150.5t114.5 -49.5zM469 780l38 -41l-134 -119h-57l-135 119l40 41 l124 -90z" unicode="č"/>
<glyph glyph-name="Dcaron" d="M460 348q0 85 -18.5 142.5t-51.5 83.5t-65 35t-74 9h-81v-548h82q41 0 75 12t65.5 41t49.5 86t18 139zM553 348q0 -83 -19 -146.5t-49 -101t-72.5 -61t-83.5 -31.5t-88 -8h-158v689h147q53 0 96.5 -7.5t87 -30t73 -59.5t48 -99t18.5 -145zM410 905l37 -43l-134 -108h-57 l-135 108l38 43l125 -81z" unicode="Ď"/>
<glyph glyph-name="dcaron" d="M267 470q-66 0 -101.5 -52t-35.5 -155q0 -207 127 -207q75 0 130 84v262q-46 68 -120 68zM537 747l76 -9l-53 -178l-47 7zM387 749l84 -10v-739h-74l-8 69q-57 -80 -149 -80q-100 0 -150.5 73t-50.5 201q0 121 55.5 198t151.5 77q86 0 141 -63v274z" unicode="ď"/>
<glyph glyph-name="Dcroat" d="M262 70q41 0 75 12t65.5 41t49.5 86t18 139q0 85 -18.5 142.5t-52 83.5t-65.5 35t-73 9h-81v-232h158v-66h-158v-250h82zM240 689q53 0 96 -7.5t86.5 -30t73 -59.5t48 -99t18.5 -145t-19 -146.5t-49 -101t-72.5 -61t-83 -31.5t-87.5 -8h-158v320h-73v66h73v303h147z" unicode="Đ"/>
<glyph glyph-name="dcroat" d="M418 140v262q-46 68 -120 68q-136 0 -136 -207t126 -207q75 0 130 84zM581 665v-68h-79v-597h-74l-8 69q-57 -80 -149 -80q-100 0 -150.5 73t-50.5 201q0 121 55.5 198t151.5 77q87 0 141 -63v122h-171v68h171v84l84 -10v-74h79z" unicode="đ"/>
<glyph glyph-name="Emacron" d="M212 617v-232h256v-71h-256v-244h314v-70h-400v689h391l-10 -72h-295zM455 795h-269v64h269v-64z" unicode="Ē"/>
<glyph glyph-name="emacron" d="M309 469q-61 0 -99 -43.5t-43 -127.5h274q-1 83 -36 127t-96 44zM167 234q3 -87 45.5 -131t107.5 -44q70 0 141 47l39 -56q-79 -61 -180 -61q-114 0 -177.5 74.5t-63.5 199.5q0 121 62.5 198t166.5 77q100 0 157.5 -69.5t57.5 -189.5q0 -23 -2 -45h-354zM444 676h-269v64 h269v-64z" unicode="ē"/>
<glyph glyph-name="Ebreve" d="M212 617v-232h256v-71h-256v-244h314v-70h-400v689h391l-10 -72h-295zM319 759q-58 0 -100 32.5t-47 86.5l57 13q25 -67 90 -67q70 0 93 67l58 -13q-6 -54 -49 -86.5t-102 -32.5z" unicode="Ĕ"/>
<glyph glyph-name="ebreve" d="M309 469q-61 0 -99 -43.5t-43 -127.5h274q-1 83 -36 127t-96 44zM167 234q3 -87 45.5 -131t107.5 -44q70 0 141 47l39 -56q-79 -61 -180 -61q-114 0 -177.5 74.5t-63.5 199.5q0 121 62.5 198t166.5 77q100 0 157.5 -69.5t57.5 -189.5q0 -23 -2 -45h-354zM308 630 q-63 0 -102 42t-46 94l58 13q25 -85 90 -85q68 0 93 85l57 -13q-7 -52 -46.5 -94t-103.5 -42z" unicode="ĕ"/>
<glyph glyph-name="Edotaccent" d="M212 617v-232h256v-71h-256v-244h314v-70h-400v689h391l-10 -72h-295zM320 892q27 0 44 -16.5t17 -42.5t-17 -42.5t-44 -16.5t-43.5 16.5t-16.5 42.5t16.5 42.5t43.5 16.5z" unicode="Ė"/>
<glyph glyph-name="edotaccent" d="M309 469q-61 0 -99 -43.5t-43 -127.5h274q-1 83 -36 127t-96 44zM167 234q3 -87 45.5 -131t107.5 -44q70 0 141 47l39 -56q-79 -61 -180 -61q-114 0 -177.5 74.5t-63.5 199.5q0 121 62.5 198t166.5 77q100 0 157.5 -69.5t57.5 -189.5q0 -23 -2 -45h-354zM309 773 q27 0 44 -16.5t17 -42.5t-17 -42.5t-44 -16.5t-43.5 16.5t-16.5 42.5t16.5 42.5t43.5 16.5z" unicode="ė"/>
<glyph glyph-name="Eogonek" d="M212 70h314v-70h-58q-72 -31 -98 -58t-26 -56q0 -48 56 -48q27 0 61 7l-8 -68q-42 -6 -64 -6q-56 0 -89 27.5t-33 70.5q0 80 105 131h-246v689h391l-10 -72h-295v-232h256v-71h-256v-244z" unicode="Ę"/>
<glyph glyph-name="eogonek" d="M167 298h274q-1 83 -36 127t-96 44t-99 -43.5t-43 -127.5zM523 279q0 -23 -2 -45h-354q3 -87 45.5 -131t107.5 -44q70 0 141 47l39 -56q-42 -33 -103 -51q-71 -31 -96.5 -57.5t-25.5 -55.5q0 -48 56 -48q27 0 61 7l-8 -68q-42 -6 -64 -6q-56 0 -89 27.5t-33 70.5 q0 79 102 120q-105 7 -163 80.5t-58 193.5q0 121 62.5 198t166.5 77q100 0 157.5 -69.5t57.5 -189.5z" unicode="ę"/>
<glyph glyph-name="Ecaron" d="M212 617v-232h256v-71h-256v-244h314v-70h-400v689h391l-10 -72h-295zM447 905l37 -43l-134 -108h-57l-135 108l38 43l125 -81z" unicode="Ě"/>
<glyph glyph-name="ecaron" d="M309 469q-61 0 -99 -43.5t-43 -127.5h274q-1 83 -36 127t-96 44zM167 234q3 -87 45.5 -131t107.5 -44q70 0 141 47l39 -56q-79 -61 -180 -61q-114 0 -177.5 74.5t-63.5 199.5q0 121 62.5 198t166.5 77q100 0 157.5 -69.5t57.5 -189.5q0 -23 -2 -45h-354zM435 789l38 -41 l-134 -119h-57l-135 119l40 41l124 -90z" unicode="ě"/>
<glyph glyph-name="Gcircumflex" d="M314 -11q-126 0 -197.5 90.5t-71.5 265.5q0 169 84.5 262t204.5 93q65 0 109 -18t87 -58l-52 -54q-61 57 -144 57q-84 0 -140 -67t-56 -215q0 -147 45.5 -215t137.5 -68q73 0 131 33v209h-135l-10 73h232v-328q-106 -60 -225 -60zM359 910l134 -107l-37 -43l-126 81 l-125 -81l-38 43l135 107h57z" unicode="Ĝ"/>
<glyph glyph-name="gcircumflex" d="M288 476q-61 0 -92 -32.5t-31 -88.5t31.5 -89.5t93.5 -33.5q56 0 85.5 32.5t29.5 91.5q0 120 -117 120zM529 582l25 -79q-47 -15 -154 -15q92 -42 92 -133q0 -80 -53 -129.5t-145 -49.5q-47 0 -79 11q-27 -22 -27 -51q0 -45 70 -45h95q80 0 133 -41t53 -102 q0 -77 -65.5 -118.5t-185.5 -41.5q-122 0 -172 38t-50 121h76q0 -49 30.5 -70t115.5 -21q166 0 166 87q0 36 -33 55.5t-85 19.5h-94q-65 0 -99 28.5t-34 71.5q0 54 58 92q-88 45 -88 145q0 81 58.5 132t151.5 51q63 0 108.5 6.5t69.5 14t62 23.5zM170 629l-40 41l135 119h57 l134 -119l-38 -41l-124 91z" unicode="ĝ"/>
<glyph glyph-name="Gbreve" d="M314 -11q-126 0 -197.5 90.5t-71.5 265.5q0 169 84.5 262t204.5 93q65 0 109 -18t87 -58l-52 -54q-61 57 -144 57q-84 0 -140 -67t-56 -215q0 -147 45.5 -215t137.5 -68q73 0 131 33v209h-135l-10 73h232v-328q-106 -60 -225 -60zM328 759q-58 0 -100 32.5t-47 86.5 l57 13q25 -67 90 -67q70 0 93 67l58 -13q-6 -54 -49 -86.5t-102 -32.5z" unicode="Ğ"/>
<glyph glyph-name="gbreve" d="M288 476q-61 0 -92 -32.5t-31 -88.5t31.5 -89.5t93.5 -33.5q56 0 85.5 32.5t29.5 91.5q0 120 -117 120zM529 582l25 -79q-47 -15 -154 -15q92 -42 92 -133q0 -80 -53 -129.5t-145 -49.5q-47 0 -79 11q-27 -22 -27 -51q0 -45 70 -45h95q80 0 133 -41t53 -102 q0 -77 -65.5 -118.5t-185.5 -41.5q-122 0 -172 38t-50 121h76q0 -49 30.5 -70t115.5 -21q166 0 166 87q0 36 -33 55.5t-85 19.5h-94q-65 0 -99 28.5t-34 71.5q0 54 58 92q-88 45 -88 145q0 81 58.5 132t151.5 51q63 0 108.5 6.5t69.5 14t62 23.5zM291 630q-63 0 -102 42 t-46 94l58 13q25 -85 90 -85q68 0 93 85l57 -13q-7 -52 -46.5 -94t-103.5 -42z" unicode="ğ"/>
<glyph glyph-name="Gdotaccent" d="M314 -11q-126 0 -197.5 90.5t-71.5 265.5q0 169 84.5 262t204.5 93q65 0 109 -18t87 -58l-52 -54q-61 57 -144 57q-84 0 -140 -67t-56 -215q0 -147 45.5 -215t137.5 -68q73 0 131 33v209h-135l-10 73h232v-328q-106 -60 -225 -60zM329 892q27 0 44 -16.5t17 -42.5 t-17 -42.5t-44 -16.5t-43.5 16.5t-16.5 42.5t16.5 42.5t43.5 16.5z" unicode="Ġ"/>
<glyph glyph-name="gdotaccent" d="M288 476q-61 0 -92 -32.5t-31 -88.5t31.5 -89.5t93.5 -33.5q56 0 85.5 32.5t29.5 91.5q0 120 -117 120zM529 582l25 -79q-47 -15 -154 -15q92 -42 92 -133q0 -80 -53 -129.5t-145 -49.5q-47 0 -79 11q-27 -22 -27 -51q0 -45 70 -45h95q80 0 133 -41t53 -102 q0 -77 -65.5 -118.5t-185.5 -41.5q-122 0 -172 38t-50 121h76q0 -49 30.5 -70t115.5 -21q166 0 166 87q0 36 -33 55.5t-85 19.5h-94q-65 0 -99 28.5t-34 71.5q0 54 58 92q-88 45 -88 145q0 81 58.5 132t151.5 51q63 0 108.5 6.5t69.5 14t62 23.5zM292 773q27 0 44 -16.5 t17 -42.5t-17 -42.5t-44 -16.5t-43.5 16.5t-16.5 42.5t16.5 42.5t43.5 16.5z" unicode="ġ"/>
<glyph glyph-name="Gcommaaccent" d="M333 -71q23 0 39 -15.5t16 -37.5q0 -20 -15 -55l-51 -107h-50l29 117q-22 17 -22 45q0 23 15.5 38t38.5 15zM314 -11q-126 0 -197.5 90.5t-71.5 265.5q0 169 84.5 262t204.5 93q65 0 109 -18t87 -58l-52 -54q-61 57 -144 57q-84 0 -140 -67t-56 -215q0 -147 45.5 -215 t137.5 -68q73 0 131 33v209h-135l-10 73h232v-328q-106 -60 -225 -60z" unicode="Ģ"/>
<glyph glyph-name="gcommaaccent" d="M288 476q-61 0 -92 -32.5t-31 -88.5t31.5 -89.5t93.5 -33.5q56 0 85.5 32.5t29.5 91.5q0 120 -117 120zM529 582l25 -79q-47 -15 -154 -15q92 -42 92 -133q0 -80 -53 -129.5t-145 -49.5q-47 0 -79 11q-27 -22 -27 -51q0 -45 70 -45h95q80 0 133 -41t53 -102 q0 -77 -65.5 -118.5t-185.5 -41.5q-122 0 -172 38t-50 121h76q0 -49 30.5 -70t115.5 -21q166 0 166 87q0 36 -33 55.5t-85 19.5h-94q-65 0 -99 28.5t-34 71.5q0 54 58 92q-88 45 -88 145q0 81 58.5 132t151.5 51q63 0 108.5 6.5t69.5 14t62 23.5zM290 598q-23 0 -39 15.5 t-16 37.5q0 21 15 55l51 107h50l-29 -117q22 -17 22 -45q0 -23 -15.5 -38t-38.5 -15z" unicode="ģ"/>
<glyph glyph-name="Hcircumflex" d="M430 0v327h-260v-327h-87v689h87v-291h260v291h87v-689h-87zM329 910l134 -107l-37 -43l-126 81l-125 -81l-38 43l135 107h57z" unicode="Ĥ"/>
<glyph glyph-name="hcircumflex" d="M184 747v-293q31 40 76 62t93 22q148 0 148 -156v-382h-84v381q0 47 -22 68.5t-70 21.5q-41 0 -79 -26t-62 -61v-384h-84v738zM329 960l134 -107l-37 -43l-126 81l-125 -81l-38 43l135 107h57z" unicode="ĥ"/>
<glyph glyph-name="Hbar" d="M431 398v111h-262v-111h262zM598 575v-66h-81v-509h-86v326h-262v-326h-86v509h-81v66h81v114h86v-114h262v114h86v-114h81z" unicode="Ħ"/>
<glyph glyph-name="hbar" d="M353 538q148 0 148 -156v-382h-84v381q0 47 -22 68.5t-70 21.5q-41 0 -79 -26t-62 -61v-384h-84v597h-81v68h81v73l84 9v-82h169v-68h-169v-143q31 40 76 62t93 22z" unicode="ħ"/>
<glyph glyph-name="Itilde" d="M497 689v-70h-153v-550h153v-69h-394v69h153v550h-153v70h394zM358 778q-28 0 -64 24t-52 24q-28 0 -53 -46l-53 26q41 85 106 85q30 0 65 -24.5t51 -24.5q27 0 53 45l54 -27q-38 -82 -107 -82z" unicode="Ĩ"/>
<glyph glyph-name="itilde" d="M367 527v-460h148v-67h-394v67h162v393h-157v67h241zM359 659q-28 0 -64 24t-52 24q-28 0 -53 -46l-53 26q41 85 106 85q30 0 65 -24.5t51 -24.5q27 0 53 45l54 -27q-38 -82 -107 -82z" unicode="ĩ"/>
<glyph glyph-name="Imacron" d="M497 689v-70h-153v-550h153v-69h-394v69h153v550h-153v70h394zM434 795h-269v64h269v-64z" unicode="Ī"/>
<glyph glyph-name="imacron" d="M367 527v-460h148v-67h-394v67h162v393h-157v67h241zM435 676h-269v64h269v-64z" unicode="ī"/>
<glyph glyph-name="Ibreve" d="M497 689v-70h-153v-550h153v-69h-394v69h153v550h-153v70h394zM298 759q-58 0 -100 32.5t-47 86.5l57 13q25 -67 90 -67q70 0 93 67l58 -13q-6 -54 -49 -86.5t-102 -32.5z" unicode="Ĭ"/>
<glyph glyph-name="ibreve" d="M367 527v-460h148v-67h-394v67h162v393h-157v67h241zM299 630q-63 0 -102 42t-46 94l58 13q25 -85 90 -85q68 0 93 85l57 -13q-7 -52 -46.5 -94t-103.5 -42z" unicode="ĭ"/>
<glyph glyph-name="Iogonek" d="M497 619h-153v-550h153v-69h-153q-72 -31 -98 -58t-26 -56q0 -48 56 -48q27 0 61 7l-8 -68q-42 -6 -64 -6q-56 0 -89 27.5t-33 70.5q0 80 105 131h-145v69h153v550h-153v70h394v-70z" unicode="Į"/>
<glyph glyph-name="iogonek" d="M367 67h148v-67h-148q-72 -31 -98 -58t-26 -56q0 -48 56 -48q27 0 61 7l-8 -68q-42 -6 -64 -6q-56 0 -89 27.5t-33 70.5q0 80 105 131h-150v67h162v393h-157v67h241v-460zM300 655q-27 0 -43.5 16.5t-16.5 42.5t16.5 42.5t43.5 16.5t44 -16.5t17 -42.5t-17 -42.5 t-44 -16.5z" unicode="į"/>
<glyph glyph-name="Idotaccent" d="M497 689v-70h-153v-550h153v-69h-394v69h153v550h-153v70h394zM299 892q27 0 44 -16.5t17 -42.5t-17 -42.5t-44 -16.5t-43.5 16.5t-16.5 42.5t16.5 42.5t43.5 16.5z" unicode="İ"/>
<glyph glyph-name="dotlessi" d="M367 527v-460h148v-67h-394v67h162v393h-157v67h241z" unicode="ı"/>
<glyph glyph-name="IJ" d="M194 -71q144 14 197.5 78.5t53.5 185.5v424h-244v-545h80v-72h-270v72h100v545h-100v72h521v-501q0 -50 -8.5 -91.5t-30.5 -82.5t-58 -70.5t-94.5 -51t-136.5 -28.5z" unicode="Ĳ"/>
<glyph glyph-name="ij" d="M500 527v-472q0 -184 -255 -267l-25 66q43 16 72.5 31t61 38t48 55t16.5 72v412h-195v-395h96v-67h-271v67h94v395h-89v65h447zM448 773q27 0 44.5 -16.5t17.5 -42.5t-17.5 -42.5t-44.5 -16.5t-43.5 16.5t-16.5 42.5t16.5 42.5t43.5 16.5zM184 773q27 0 44.5 -16.5 t17.5 -42.5t-17.5 -42.5t-44.5 -16.5t-43.5 16.5t-16.5 42.5t16.5 42.5t43.5 16.5z" unicode="ĳ"/>
<glyph glyph-name="Jcircumflex" d="M497 689v-460q0 -46 -12 -86.5t-37.5 -76.5t-73.5 -57t-113 -21q-105 0 -188 63l38 57q75 -47 149 -47q72 0 111 45.5t39 126.5v385h-204v71h291zM379 910l134 -107l-37 -43l-126 81l-125 -81l-38 43l135 107h57z" unicode="Ĵ"/>
<glyph glyph-name="jcircumflex" d="M445 527v-443q0 -127 -84.5 -197.5t-250.5 -98.5l-14 65q127 21 196 73.5t69 152.5v381h-219v67h303zM245 629l-40 41l135 119h57l134 -119l-38 -41l-124 91z" unicode="ĵ"/>
<glyph glyph-name="Kcommaaccent" d="M325 -71q23 0 39 -15.5t16 -37.5q0 -20 -15 -55l-51 -107h-50l29 117q-22 17 -22 45q0 23 15.5 38t38.5 15zM197 368l270 321h101l-269 -316l288 -373h-109zM192 0h-87v689h87v-689z" unicode="Ķ"/>
<glyph glyph-name="kcommaaccent" d="M309 -71q23 0 39 -15.5t16 -37.5q0 -20 -15 -55l-51 -107h-50l29 117q-22 17 -22 45q0 23 15.5 38t38.5 15zM541 527l-236 -238l264 -289h-111l-259 288l234 239h108zM190 749v-749h-84v739z" unicode="ķ"/>
<glyph glyph-name="kgreenlandic" d="M536 527l-239 -239l266 -288h-110l-259 283l233 244h109zM184 527v-527h-84v527h84z" unicode="ĸ"/>
<glyph glyph-name="Lacute" d="M136 0v689h86v-612h315l-11 -77h-390zM262 906l37 -72l-213 -79l-22 46z" unicode="Ĺ"/>
<glyph glyph-name="lacute" d="M306 739v-609q0 -71 87 -71q41 0 88 18l22 -61q-50 -27 -125 -27q-71 0 -113.5 39t-42.5 106v538h-162v67h246zM349 1009l38 -72l-209 -85l-26 45z" unicode="ĺ"/>
<glyph glyph-name="Lcommaaccent" d="M335 -71q23 0 39 -15.5t16 -37.5q0 -20 -15 -55l-51 -107h-50l29 117q-22 17 -22 45q0 23 15.5 38t38.5 15zM136 0v689h86v-612h315l-11 -77h-390z" unicode="Ļ"/>
<glyph glyph-name="lcommaaccent" d="M364 -71q23 0 39 -15.5t16 -37.5q0 -20 -15 -55l-51 -107h-50l29 117q-22 17 -22 45q0 23 15.5 38t38.5 15zM306 739v-609q0 -71 87 -71q41 0 88 18l22 -61q-50 -27 -125 -27q-71 0 -113.5 39t-42.5 106v538h-162v67h246z" unicode="ļ"/>
<glyph glyph-name="Lcaron" d="M136 0v689h86v-612h315l-11 -77h-390zM308 698l76 -10l-53 -178l-48 7z" unicode="Ľ"/>
<glyph glyph-name="lcaron" d="M306 739v-609q0 -71 87 -71q41 0 88 18l22 -61q-50 -27 -125 -27q-71 0 -113.5 39t-42.5 106v538h-162v67h246zM382 748l76 -10l-53 -178l-48 7z" unicode="ľ"/>
<glyph glyph-name="Ldot" d="M472 437q27 0 44 -16.5t17 -42.5t-17 -42.5t-44 -16.5t-43.5 16.5t-16.5 42.5t16.5 42.5t43.5 16.5zM136 0v689h86v-612h315l-11 -77h-390z" unicode="Ŀ"/>
<glyph glyph-name="ldot" d="M560 440q27 0 44 -16.5t17 -42.5t-17 -42.5t-44 -16.5t-43.5 16.5t-16.5 42.5t16.5 42.5t43.5 16.5zM306 739v-609q0 -71 87 -71q41 0 88 18l22 -61q-50 -27 -125 -27q-71 0 -113.5 39t-42.5 106v538h-162v67h246z" unicode="ŀ"/>
<glyph glyph-name="Lslash" d="M220 77h315l-10 -77h-391v268l-57 -36l-37 57l94 57v343h86v-290l165 103l37 -56l-202 -125v-244z" unicode="Ł"/>
<glyph glyph-name="lslash" d="M481 77l22 -61q-50 -27 -125 -27q-71 0 -113.5 39t-42.5 106v172l-68 -41l-36 54l104 62v291h-162v67h246v-306l89 56l36 -54l-125 -78v-227q0 -71 87 -71q41 0 88 18z" unicode="ł"/>
<glyph glyph-name="Nacute" d="M395 0l-243 605q12 -180 12 -260v-345h-81v689h118l247 -608q0 5 -3.5 48.5t-6 101.5t-2.5 113v345h81v-689h-122zM382 906l37 -72l-213 -79l-22 46z" unicode="Ń"/>
<glyph glyph-name="nacute" d="M100 0v527h72l7 -74q31 40 78.5 62.5t95.5 22.5q148 0 148 -156v-382h-84v320q0 86 -17 118.5t-73 32.5q-43 0 -81 -26t-62 -62v-383h-84zM384 797l38 -72l-209 -85l-26 45z" unicode="ń"/>
<glyph glyph-name="Ncommaaccent" d="M303 -71q23 0 39 -15.5t16 -37.5q0 -20 -15 -55l-51 -107h-50l29 117q-22 17 -22 45q0 23 15.5 38t38.5 15zM395 0l-243 605q12 -180 12 -260v-345h-81v689h118l247 -608q0 5 -3.5 48.5t-6 101.5t-2.5 113v345h81v-689h-122z" unicode="Ņ"/>
<glyph glyph-name="ncommaaccent" d="M304 -71q23 0 39 -15.5t16 -37.5q0 -20 -15 -55l-51 -107h-50l29 117q-22 17 -22 45q0 23 15.5 38t38.5 15zM100 0v527h72l7 -74q31 40 78.5 62.5t95.5 22.5q148 0 148 -156v-382h-84v320q0 86 -17 118.5t-73 32.5q-43 0 -81 -26t-62 -62v-383h-84z" unicode="ņ"/>
<glyph glyph-name="Ncaron" d="M395 0l-243 605q12 -180 12 -260v-345h-81v689h118l247 -608q0 5 -3.5 48.5t-6 101.5t-2.5 113v345h81v-689h-122zM425 905l37 -43l-134 -108h-57l-135 108l38 43l125 -81z" unicode="Ň"/>
<glyph glyph-name="ncaron" d="M100 0v527h72l7 -74q31 40 78.5 62.5t95.5 22.5q148 0 148 -156v-382h-84v320q0 86 -17 118.5t-73 32.5q-43 0 -81 -26t-62 -62v-383h-84zM425 789l38 -41l-134 -119h-57l-135 119l40 41l124 -90z" unicode="ň"/>
<glyph glyph-name="napostrophe" d="M109 0v527h72l6 -74q32 40 79.5 62.5t94.5 22.5q149 0 149 -156v-382h-84v320q0 87 -17 119t-74 32q-43 0 -80.5 -26t-61.5 -62v-383h-84zM63 752q23 0 39 -15.5t16 -38.5q0 -21 -26 -77l-41 -87h-50l30 119q-23 20 -23 45q0 23 16 38.5t39 15.5z" unicode="ŉ"/>
<glyph glyph-name="Eng" d="M517 -62q0 -73 -38.5 -111.5t-106.5 -38.5q-64 0 -113 37l34 57q37 -24 75 -24q62 0 62 75v67h-35l-243 605q12 -180 12 -260v-345h-81v689h118l247 -608q0 5 -3.5 48.5t-6 101.5t-2.5 113v345h81v-751z" unicode="Ŋ"/>
<glyph glyph-name="eng" d="M501 29q0 -73 -18.5 -119t-49 -70.5t-87.5 -50.5l-31 61q39 19 58 34.5t31.5 49t12.5 89.5v297q0 87 -17 119t-75 32q-41 0 -79 -26t-62 -61v-384h-84v527h72l7 -74q31 40 78.5 62.5t95.5 22.5q148 0 148 -156v-353z" unicode="ŋ"/>
<glyph glyph-name="Omacron" d="M463 344q0 141 -39 212t-124 71t-124 -71.5t-39 -212.5q0 -281 163 -281q85 0 124 70.5t39 211.5zM553 344q0 -161 -65.5 -258t-187.5 -97q-123 0 -188 95t-65 259q0 161 65.5 259t187.5 98t187.5 -96.5t65.5 -259.5zM434 795h-269v64h269v-64z" unicode="Ō"/>
<glyph glyph-name="omacron" d="M301 469q-137 0 -137 -206q0 -205 136 -205t136 206q0 205 -135 205zM301 538q109 0 167.5 -73.5t58.5 -200.5q0 -124 -59.5 -199.5t-167.5 -75.5q-109 0 -168 73.5t-59 200.5q0 125 59.5 200t168.5 75zM434 676h-269v64h269v-64z" unicode="ō"/>
<glyph glyph-name="Obreve" d="M463 344q0 141 -39 212t-124 71t-124 -71.5t-39 -212.5q0 -281 163 -281q85 0 124 70.5t39 211.5zM553 344q0 -161 -65.5 -258t-187.5 -97q-123 0 -188 95t-65 259q0 161 65.5 259t187.5 98t187.5 -96.5t65.5 -259.5zM298 759q-58 0 -100 32.5t-47 86.5l57 13 q25 -67 90 -67q70 0 93 67l58 -13q-6 -54 -49 -86.5t-102 -32.5z" unicode="Ŏ"/>
<glyph glyph-name="obreve" d="M301 469q-137 0 -137 -206q0 -205 136 -205t136 206q0 205 -135 205zM301 538q109 0 167.5 -73.5t58.5 -200.5q0 -124 -59.5 -199.5t-167.5 -75.5q-109 0 -168 73.5t-59 200.5q0 125 59.5 200t168.5 75zM298 630q-63 0 -102 42t-46 94l58 13q25 -85 90 -85q68 0 93 85 l57 -13q-7 -52 -46.5 -94t-103.5 -42z" unicode="ŏ"/>
<glyph glyph-name="Ohungarumlaut" d="M463 344q0 141 -39 212t-124 71t-124 -71.5t-39 -212.5q0 -281 163 -281q85 0 124 70.5t39 211.5zM553 344q0 -161 -65.5 -258t-187.5 -97q-123 0 -188 95t-65 259q0 161 65.5 259t187.5 98t187.5 -96.5t65.5 -259.5zM347 781l87 174l74 -39l-108 -163zM182 781l78 174 l75 -36l-97 -164z" unicode="Ő"/>
<glyph glyph-name="ohungarumlaut" d="M301 469q-137 0 -137 -206q0 -205 136 -205t136 206q0 205 -135 205zM301 538q109 0 167.5 -73.5t58.5 -200.5q0 -124 -59.5 -199.5t-167.5 -75.5q-109 0 -168 73.5t-59 200.5q0 125 59.5 200t168.5 75zM341 662l87 174l74 -39l-108 -163zM176 662l78 174l75 -36 l-97 -164z" unicode="ő"/>
<glyph glyph-name="OE" d="M211 628q-62 0 -90.5 -67t-28.5 -218q0 -150 29.5 -217t89.5 -67q64 0 93 66.5t29 218.5t-28.5 218t-93.5 66zM212 700q33 0 71 -11h325l-10 -71h-244q58 -69 65 -233h154v-71h-154q-4 -169 -69 -243h267v-71h-337q-35 -11 -68 -11q-213 0 -213 354q0 174 53.5 265.5 t159.5 91.5z" unicode="Œ"/>
<glyph glyph-name="oe" d="M447 468q-46 0 -68.5 -38t-28.5 -131h183q-2 87 -20.5 128t-65.5 41zM178 470q-49 0 -70 -50t-21 -157q0 -109 21 -157t70 -48t68.5 46.5t19.5 159.5q0 107 -20.5 156.5t-67.5 49.5zM449 538q166 0 166 -259q0 -22 -2 -46h-263q7 -91 32.5 -132.5t77.5 -41.5q45 0 96 40 l39 -58q-65 -52 -137 -52q-109 0 -149 101q-42 -101 -142 -101q-85 0 -127 72.5t-42 201.5q0 128 41.5 201.5t127.5 73.5q59 0 91.5 -26.5t50.5 -76.5q42 103 140 103z" unicode="œ"/>
<glyph glyph-name="Racute" d="M445 495q0 66 -38 95t-119 29h-100v-256h101q156 0 156 132zM537 495q0 -74 -46 -122.5t-122 -67.5l205 -305h-104l-189 295h-93v-295h-86v689h176q259 0 259 -194zM383 906l37 -72l-213 -79l-22 46z" unicode="Ŕ"/>
<glyph glyph-name="racute" d="M456 538q32 0 74 -11l-12 -179h-68v113h-5q-122 0 -173 -174v-222h107v-65h-274v65h83v397h-83v65h146l16 -125q32 68 76.5 102t112.5 34zM453 725l-209 -85l-26 45l197 112z" unicode="ŕ"/>
<glyph glyph-name="Rcommaaccent" d="M302 -71q23 0 39 -15.5t16 -37.5q0 -20 -15 -55l-51 -107h-50l29 117q-22 17 -22 45q0 23 15.5 38t38.5 15zM445 495q0 66 -38 95t-119 29h-100v-256h101q156 0 156 132zM537 495q0 -74 -46 -122.5t-122 -67.5l205 -305h-104l-189 295h-93v-295h-86v689h176 q259 0 259 -194z" unicode="Ŗ"/>
<glyph glyph-name="rcommaaccent" d="M233 -71q23 0 39 -15.5t16 -37.5q0 -20 -15 -55l-51 -107h-50l29 117q-22 17 -22 45q0 23 15.5 38t38.5 15zM456 538q32 0 74 -11l-12 -179h-68v113h-5q-122 0 -173 -174v-222h107v-65h-274v65h83v397h-83v65h146l16 -125q32 68 76.5 102t112.5 34z" unicode="ŗ"/>
<glyph glyph-name="Rcaron" d="M445 495q0 66 -38 95t-119 29h-100v-256h101q156 0 156 132zM537 495q0 -74 -46 -122.5t-122 -67.5l205 -305h-104l-189 295h-93v-295h-86v689h176q259 0 259 -194zM426 905l37 -43l-134 -108h-57l-135 108l38 43l125 -81z" unicode="Ř"/>
<glyph glyph-name="rcaron" d="M456 538q32 0 74 -11l-12 -179h-68v113h-5q-122 0 -173 -174v-222h107v-65h-274v65h83v397h-83v65h146l16 -125q32 68 76.5 102t112.5 34zM360 629h-57l-135 119l40 41l124 -90l124 90l38 -41z" unicode="ř"/>
<glyph glyph-name="Sacute" d="M537 191q0 -91 -67 -146.5t-185 -55.5q-152 0 -242 87l52 59q79 -74 191 -74q68 0 114 33t46 95q0 51 -31.5 80t-118.5 54q-112 33 -167 77.5t-55 121.5q0 78 62 128t161 50q128 0 220 -79l-52 -56q-71 62 -165 62q-60 0 -99 -26t-39 -76q0 -44 37 -71t136 -56 q97 -28 149.5 -73t52.5 -134zM388 906l37 -72l-213 -79l-22 46z" unicode="Ś"/>
<glyph glyph-name="sacute" d="M280 58q60 0 95 23t35 61t-24 59t-103 41q-92 23 -136 55.5t-44 96.5q0 66 55 105t145 39q110 0 192 -58l-38 -58q-69 48 -152 48q-114 0 -114 -69q0 -35 28 -52.5t111 -40.5q86 -23 128.5 -58.5t42.5 -103.5q0 -79 -64 -118t-157 -39q-124 0 -206 71l47 55 q69 -57 159 -57zM391 797l38 -72l-209 -85l-26 45z" unicode="ś"/>
<glyph glyph-name="Scircumflex" d="M537 191q0 -91 -67 -146.5t-185 -55.5q-152 0 -242 87l52 59q79 -74 191 -74q68 0 114 33t46 95q0 51 -31.5 80t-118.5 54q-112 33 -167 77.5t-55 121.5q0 78 62 128t161 50q128 0 220 -79l-52 -56q-71 62 -165 62q-60 0 -99 -26t-39 -76q0 -44 37 -71t136 -56 q97 -28 149.5 -73t52.5 -134zM335 910l134 -107l-37 -43l-126 81l-125 -81l-38 43l135 107h57z" unicode="Ŝ"/>
<glyph glyph-name="scircumflex" d="M280 58q60 0 95 23t35 61t-24 59t-103 41q-92 23 -136 55.5t-44 96.5q0 66 55 105t145 39q110 0 192 -58l-38 -58q-69 48 -152 48q-114 0 -114 -69q0 -35 28 -52.5t111 -40.5q86 -23 128.5 -58.5t42.5 -103.5q0 -79 -64 -118t-157 -39q-124 0 -206 71l47 55 q69 -57 159 -57zM184 629l-40 41l135 119h57l134 -119l-38 -41l-124 91z" unicode="ŝ"/>
<glyph glyph-name="Scedilla" d="M537 191q0 -85 -58 -139.5t-162 -61.5v-47q46 -4 69.5 -27.5t23.5 -55.5q0 -47 -35.5 -72.5t-86.5 -25.5q-63 0 -105 24l27 48q30 -16 67 -16q60 0 60 41q0 26 -21 35t-65 9l6 86q-131 9 -214 87l52 59q79 -74 191 -74q68 0 114 33t46 95q0 51 -31.5 80t-118.5 54 q-112 33 -167 77.5t-55 121.5q0 78 62 128t161 50q128 0 220 -79l-52 -56q-71 62 -165 62q-60 0 -99 -26t-39 -76q0 -44 37 -71t136 -56q97 -28 149.5 -73t52.5 -134z" unicode="Ş"/>
<glyph glyph-name="scedilla" d="M501 146q0 -71 -52 -110t-132 -46v-47q46 -4 69.5 -27.5t23.5 -55.5q0 -47 -35.5 -72.5t-86.5 -25.5q-63 0 -105 24l27 48q30 -16 67 -16q60 0 60 41q0 26 -21 35t-65 9l6 86q-110 7 -183 71l47 55q69 -57 159 -57q60 0 95 23t35 61t-24 59t-103 41q-92 23 -136 55.5 t-44 96.5q0 66 55 105t145 39q110 0 192 -58l-38 -58q-69 48 -152 48q-114 0 -114 -69q0 -35 28 -52.5t111 -40.5q86 -23 128.5 -58.5t42.5 -103.5z" unicode="ş"/>
<glyph glyph-name="Scaron" d="M537 191q0 -91 -67 -146.5t-185 -55.5q-152 0 -242 87l52 59q79 -74 191 -74q68 0 114 33t46 95q0 51 -31.5 80t-118.5 54q-112 33 -167 77.5t-55 121.5q0 78 62 128t161 50q128 0 220 -79l-52 -56q-71 62 -165 62q-60 0 -99 -26t-39 -76q0 -44 37 -71t136 -56 q97 -28 149.5 -73t52.5 -134zM432 905l37 -43l-134 -108h-57l-135 108l38 43l125 -81z" unicode="Š"/>
<glyph glyph-name="scaron" d="M280 58q60 0 95 23t35 61t-24 59t-103 41q-92 23 -136 55.5t-44 96.5q0 66 55 105t145 39q110 0 192 -58l-38 -58q-69 48 -152 48q-114 0 -114 -69q0 -35 28 -52.5t111 -40.5q86 -23 128.5 -58.5t42.5 -103.5q0 -79 -64 -118t-157 -39q-124 0 -206 71l47 55 q69 -57 159 -57zM432 789l38 -41l-134 -119h-57l-135 119l40 41l124 -90z" unicode="š"/>
<glyph glyph-name="uni0162" d="M342 0h-14v-57q46 -4 69.5 -27.5t23.5 -55.5q0 -47 -35.5 -72.5t-86.5 -25.5q-63 0 -105 24l27 48q30 -16 67 -16q60 0 60 41q0 26 -21 35t-65 9l7 97h-14v614h-215v75h519l-9 -75h-208v-614z" unicode="Ţ"/>
<glyph glyph-name="uni0163" d="M391 -57q46 -4 69.5 -27.5t23.5 -55.5q0 -47 -35.5 -72.5t-86.5 -25.5q-63 0 -105 24l27 48q30 -16 67 -16q60 0 60 41q0 26 -21 35t-65 9l6 90q-62 11 -96.5 52.5t-34.5 101.5v314h-121v66h121v119l84 10v-129h183l-11 -66h-172v-313q0 -89 101 -89q54 0 101 25l33 -57 q-52 -35 -128 -38v-46z" unicode="ţ"/>
<glyph glyph-name="Tcaron" d="M342 614v-614h-87v614h-215v75h519l-9 -75h-208zM425 905l37 -43l-134 -108h-57l-135 108l38 43l125 -81z" unicode="Ť"/>
<glyph glyph-name="tcaron" d="M519 27q-59 -38 -142 -38t-130 43.5t-47 114.5v314h-121v66h121v119l84 10v-129h183l-11 -66h-172v-313q0 -89 101 -89q54 0 101 25zM364 762l76 -10l-53 -178l-48 7z" unicode="ť"/>
<glyph glyph-name="Tbar" d="M550 614h-208v-197h131v-67h-131v-350h-87v350h-130v67h130v197h-215v75h519z" unicode="Ŧ"/>
<glyph glyph-name="tbar" d="M486 84l33 -57q-59 -38 -142 -38t-130 43.5t-47 114.5v141h-110v64h110v109h-121v66h121v119l84 10v-129h183l-11 -66h-172v-109h173v-64h-173v-140q0 -89 101 -89q54 0 101 25z" unicode="ŧ"/>
<glyph glyph-name="Utilde" d="M528 689v-466q0 -105 -62.5 -169.5t-166.5 -64.5q-105 0 -166 64t-61 170v466h87v-469q0 -78 36 -117t104 -39q141 0 141 156v469h88zM358 778q-28 0 -64 24t-52 24q-28 0 -53 -46l-53 26q41 85 106 85q30 0 65 -24.5t51 -24.5q27 0 53 45l54 -27q-38 -82 -107 -82z" unicode="Ũ"/>
<glyph glyph-name="utilde" d="M184 527v-374q0 -51 21.5 -74.5t67.5 -23.5q42 0 81 24t62 60v388h84v-527h-72l-7 71q-31 -39 -76.5 -60.5t-92.5 -21.5q-75 0 -113.5 40t-38.5 115v383h84zM358 659q-28 0 -64 24t-52 24q-28 0 -53 -46l-53 26q41 85 106 85q30 0 65 -24.5t51 -24.5q27 0 53 45l54 -27 q-38 -82 -107 -82z" unicode="ũ"/>
<glyph glyph-name="Umacron" d="M528 689v-466q0 -105 -62.5 -169.5t-166.5 -64.5q-105 0 -166 64t-61 170v466h87v-469q0 -78 36 -117t104 -39q141 0 141 156v469h88zM434 795h-269v64h269v-64z" unicode="Ū"/>
<glyph glyph-name="umacron" d="M184 527v-374q0 -51 21.5 -74.5t67.5 -23.5q42 0 81 24t62 60v388h84v-527h-72l-7 71q-31 -39 -76.5 -60.5t-92.5 -21.5q-75 0 -113.5 40t-38.5 115v383h84zM434 676h-269v64h269v-64z" unicode="ū"/>
<glyph glyph-name="Ubreve" d="M528 689v-466q0 -105 -62.5 -169.5t-166.5 -64.5q-105 0 -166 64t-61 170v466h87v-469q0 -78 36 -117t104 -39q141 0 141 156v469h88zM298 759q-58 0 -100 32.5t-47 86.5l57 13q25 -67 90 -67q70 0 93 67l58 -13q-6 -54 -49 -86.5t-102 -32.5z" unicode="Ŭ"/>
<glyph glyph-name="ubreve" d="M184 527v-374q0 -51 21.5 -74.5t67.5 -23.5q42 0 81 24t62 60v388h84v-527h-72l-7 71q-31 -39 -76.5 -60.5t-92.5 -21.5q-75 0 -113.5 40t-38.5 115v383h84zM298 630q-63 0 -102 42t-46 94l58 13q25 -85 90 -85q68 0 93 85l57 -13q-7 -52 -46.5 -94t-103.5 -42z" unicode="ŭ"/>
<glyph glyph-name="Uring" d="M528 689v-466q0 -105 -62.5 -169.5t-166.5 -64.5q-105 0 -166 64t-61 170v466h87v-469q0 -78 36 -117t104 -39q141 0 141 156v469h88zM300 896q-25 0 -39.5 -15t-14.5 -41q0 -27 14.5 -42t39.5 -15q26 0 40 15t14 42q0 26 -14.5 41t-39.5 15zM300 943q48 0 79.5 -30 t31.5 -73t-31.5 -72.5t-79.5 -29.5t-79.5 29.5t-31.5 72.5t31.5 73t79.5 30z" unicode="Ů"/>
<glyph glyph-name="uring" d="M184 527v-374q0 -51 21.5 -74.5t67.5 -23.5q42 0 81 24t62 60v388h84v-527h-72l-7 71q-31 -39 -76.5 -60.5t-92.5 -21.5q-75 0 -113.5 40t-38.5 115v383h84zM300 777q-25 0 -39.5 -15t-14.5 -41q0 -27 14.5 -42t39.5 -15q26 0 40 15t14 42q0 26 -14.5 41t-39.5 15z M300 824q48 0 79.5 -30t31.5 -73t-31.5 -72.5t-79.5 -29.5t-79.5 29.5t-31.5 72.5t31.5 73t79.5 30z" unicode="ů"/>
<glyph glyph-name="Uhungarumlaut" d="M528 689v-466q0 -105 -62.5 -169.5t-166.5 -64.5q-105 0 -166 64t-61 170v466h87v-469q0 -78 36 -117t104 -39q141 0 141 156v469h88zM347 781l87 174l74 -39l-108 -163zM182 781l78 174l75 -36l-97 -164z" unicode="Ű"/>
<glyph glyph-name="uhungarumlaut" d="M184 527v-374q0 -51 21.5 -74.5t67.5 -23.5q42 0 81 24t62 60v388h84v-527h-72l-7 71q-31 -39 -76.5 -60.5t-92.5 -21.5q-75 0 -113.5 40t-38.5 115v383h84zM341 662l87 174l74 -39l-108 -163zM176 662l78 174l75 -36l-97 -164z" unicode="ű"/>
<glyph glyph-name="Uogonek" d="M440 689h88v-466q0 -85 -41.5 -144.5t-114.5 -80.5q-69 -31 -94.5 -57t-25.5 -55q0 -48 56 -48q27 0 61 7l-8 -68q-42 -6 -64 -6q-56 0 -89 27.5t-33 70.5q0 74 87 122q-89 11 -139.5 73.5t-50.5 158.5v466h87v-469q0 -78 36 -117t104 -39q141 0 141 156v469z" unicode="Ų"/>
<glyph glyph-name="uogonek" d="M376 -114q0 -48 56 -48q27 0 61 7l-8 -68q-42 -6 -64 -6q-56 0 -89 27.5t-33 70.5q0 89 128 141l-6 61q-31 -39 -76.5 -60.5t-92.5 -21.5q-75 0 -113.5 40t-38.5 115v383h84v-374q0 -51 21.5 -74.5t67.5 -23.5q42 0 81 24t62 60v388h84v-527q-72 -31 -98 -58t-26 -56z " unicode="ų"/>
<glyph glyph-name="Wcircumflex" d="M595 689l-104 -689h-114l-79 520l-80 -520h-117l-96 689h87l73 -594l83 514h106l79 -514l82 594h80zM329 910l134 -107l-37 -43l-126 81l-125 -81l-38 43l135 107h57z" unicode="Ŵ"/>
<glyph glyph-name="wcircumflex" d="M491 0h-119l-69 386l-74 -386h-116l-95 527h85l68 -475l84 408h99l79 -408l68 475h81zM177 629l-40 41l135 119h57l134 -119l-38 -41l-124 91z" unicode="ŵ"/>
<glyph glyph-name="Ycircumflex" d="M344 266v-266h-88v265l-233 424h96l183 -346l185 346h90zM332 910l134 -107l-37 -43l-126 81l-125 -81l-38 43l135 107h57z" unicode="Ŷ"/>
<glyph glyph-name="ycircumflex" d="M538 527l-184 -530q-31 -91 -85 -145t-151 -64l-12 67q76 13 110.5 46t56.5 99h-28l-183 527h89l151 -463l149 463h87zM177 629l-40 41l135 119h57l134 -119l-38 -41l-124 91z" unicode="ŷ"/>
<glyph glyph-name="Ydieresis" d="M344 266v-266h-88v265l-233 424h96l183 -346l185 346h90zM406 767q-23 0 -38.5 15t-15.5 38q0 24 15.5 39.5t38.5 15.5t39 -15.5t16 -39.5q0 -22 -16 -37.5t-39 -15.5zM199 767q-23 0 -39 15.5t-16 37.5q0 24 16 39.5t39 15.5t38.5 -15.5t15.5 -39.5q0 -23 -15.5 -38 t-38.5 -15z" unicode="Ÿ"/>
<glyph glyph-name="Zacute" d="M167 75h360l-10 -75h-445v70l363 544h-327v75h420v-72zM401 906l37 -72l-213 -79l-22 46z" unicode="Ź"/>
<glyph glyph-name="zacute" d="M205 72h293l-10 -72h-386v64l292 389h-269v74h370v-66zM394 797l38 -72l-209 -85l-26 45z" unicode="ź"/>
<glyph glyph-name="Zdotaccent" d="M167 75h360l-10 -75h-445v70l363 544h-327v75h420v-72zM317 892q27 0 44 -16.5t17 -42.5t-17 -42.5t-44 -16.5t-43.5 16.5t-16.5 42.5t16.5 42.5t43.5 16.5z" unicode="Ż"/>
<glyph glyph-name="zdotaccent" d="M205 72h293l-10 -72h-386v64l292 389h-269v74h370v-66zM309 773q27 0 44 -16.5t17 -42.5t-17 -42.5t-44 -16.5t-43.5 16.5t-16.5 42.5t16.5 42.5t43.5 16.5z" unicode="ż"/>
<glyph glyph-name="Zcaron" d="M167 75h360l-10 -75h-445v70l363 544h-327v75h420v-72zM445 905l37 -43l-134 -108h-57l-135 108l38 43l125 -81z" unicode="Ž"/>
<glyph glyph-name="zcaron" d="M205 72h293l-10 -72h-386v64l292 389h-269v74h370v-66zM435 789l38 -41l-134 -119h-57l-135 119l40 41l124 -90z" unicode="ž"/>
<glyph glyph-name="florin" d="M369 749q63 0 123 -27l-29 -62q-44 20 -91 20q-43 0 -61.5 -19t-18.5 -59v-75h129l-10 -67h-119v-421q0 -111 -33.5 -161t-120.5 -89l-31 60q58 27 80 60t22 114v437h-85v67h85v73q0 67 42 108t118 41z" unicode="ƒ"/>
<glyph glyph-name="AEacute" d="M148 248h166l-73 372zM330 175h-204l-49 -175h-89l202 689h376l-10 -71h-236l51 -233h186v-71h-173l52 -243h171v-71h-241zM444 906l37 -72l-213 -79l-22 46z" unicode="Ǽ"/>
<glyph glyph-name="aeacute" d="M254 262h-42q-69 0 -98 -27.5t-29 -78.5q0 -50 20 -76.5t54 -26.5q31 0 55.5 23t53.5 74q-14 45 -14 112zM432 468q-46 0 -68 -38t-28 -131h189q-2 86 -23 127.5t-70 41.5zM435 538q172 0 172 -259q0 -22 -2 -46h-269q7 -91 33.5 -132.5t79.5 -41.5q47 0 99 40l39 -58 q-67 -52 -140 -52q-98 0 -148 89q-35 -48 -69.5 -68.5t-83.5 -20.5q-70 0 -111 44t-41 118q0 83 54.5 126t159.5 43h46v43q0 105 -91 105q-42 0 -105 -27l-22 63q71 34 135 34q103 0 138 -88q14 41 46.5 64.5t79.5 23.5zM393 797l38 -72l-209 -85l-26 45z" unicode="ǽ"/>
<glyph glyph-name="Oslashacute" d="M300 62q85 0 123.5 70.5t38.5 211.5q0 188 -60 247l-151 -523q23 -6 49 -6zM138 343q0 -185 60 -245l151 523q-23 6 -49 6q-85 0 -123.5 -71.5t-38.5 -212.5zM434 659q119 -86 119 -315q0 -161 -65.5 -258t-187.5 -97q-36 0 -63 7l-33 -106l-75 19l38 119 q-120 86 -120 315q0 161 65.5 259t187.5 98q33 0 65 -8l32 111l75 -20zM420 834l-213 -79l-22 46l198 105z" unicode="Ǿ"/>
<glyph glyph-name="oslashacute" d="M300 58q136 0 136 206q0 132 -51 177l-118 -380q15 -3 33 -3zM301 469q-137 0 -137 -206q0 -132 52 -178l118 381q-15 3 -33 3zM417 508q110 -68 110 -244q0 -124 -59.5 -199.5t-167.5 -75.5q-29 0 -50 4l-37 -123l-70 20l42 128q-112 67 -112 245q0 125 59.5 200 t168.5 75q22 0 49 -5l38 121l70 -21zM422 725l-209 -85l-26 45l197 112z" unicode="ǿ"/>
<glyph glyph-name="Scommaaccent" d="M300 -71q23 0 39 -15.5t16 -37.5q0 -20 -15 -55l-51 -107h-50l29 117q-22 17 -22 45q0 23 15.5 38t38.5 15zM537 191q0 -91 -67 -146.5t-185 -55.5q-152 0 -242 87l52 59q79 -74 191 -74q68 0 114 33t46 95q0 51 -31.5 80t-118.5 54q-112 33 -167 77.5t-55 121.5 q0 78 62 128t161 50q128 0 220 -79l-52 -56q-71 62 -165 62q-60 0 -99 -26t-39 -76q0 -44 37 -71t136 -56q97 -28 149.5 -73t52.5 -134z" unicode="Ș"/>
<glyph glyph-name="scommaaccent" d="M300 -71q23 0 39 -15.5t16 -37.5q0 -20 -15 -55l-51 -107h-50l29 117q-22 17 -22 45q0 23 15.5 38t38.5 15zM280 58q60 0 95 23t35 61t-24 59t-103 41q-92 23 -136 55.5t-44 96.5q0 66 55 105t145 39q110 0 192 -58l-38 -58q-69 48 -152 48q-114 0 -114 -69 q0 -35 28 -52.5t111 -40.5q86 -23 128.5 -58.5t42.5 -103.5q0 -79 -64 -118t-157 -39q-124 0 -206 71l47 55q69 -57 159 -57z" unicode="ș"/>
<glyph glyph-name="uni021A" d="M302 -71q23 0 39 -15.5t16 -37.5q0 -20 -15 -55l-51 -107h-50l29 117q-22 17 -22 45q0 23 15.5 38t38.5 15zM342 614v-614h-87v614h-215v75h519l-9 -75h-208z" unicode="Ț"/>
<glyph glyph-name="uni021B" d="M374 -71q23 0 39 -15.5t16 -37.5q0 -20 -15 -55l-51 -107h-50l29 117q-22 17 -22 45q0 23 15.5 38t38.5 15zM519 27q-59 -38 -142 -38t-130 43.5t-47 114.5v314h-121v66h121v119l84 10v-129h183l-11 -66h-172v-313q0 -89 101 -89q54 0 101 25z" unicode="ț"/>
<glyph glyph-name="uni0237" d="M445 527v-443q0 -127 -84.5 -197.5t-250.5 -98.5l-14 65q127 21 196 73.5t69 152.5v381h-219v67h303z" unicode="ȷ"/>
<glyph glyph-name="uni02B9" d="M210 429l86 260h94l-115 -260h-65z" unicode="ʹ"/>
<glyph glyph-name="uni02BA" d="M283 429l85 260h94l-115 -260h-64zM138 429l86 260h93l-114 -260h-65z" unicode="ʺ"/>
<glyph glyph-name="uni02BC" d="M293 749q23 0 39 -15.5t16 -38.5q0 -20 -26 -76l-42 -89h-50l31 121q-23 18 -23 45q0 22 16 37.5t39 15.5z" unicode="ʼ"/>
<glyph glyph-name="circumflex" d="M177 629l-40 41l135 119h57l134 -119l-38 -41l-124 91z" unicode="ˆ"/>
<glyph glyph-name="caron" d="M425 789l38 -41l-134 -119h-57l-135 119l40 41l124 -90z" unicode="ˇ"/>
<glyph glyph-name="uni02C9" d="M434 683h-269v64h269v-64z" unicode="ˉ"/>
<glyph glyph-name="breve" d="M298 630q-63 0 -102 42t-46 94l58 13q25 -85 90 -85q68 0 93 85l57 -13q-7 -52 -46.5 -94t-103.5 -42z" unicode="˘"/>
<glyph glyph-name="dotaccent" d="M299 773q27 0 44 -16.5t17 -42.5t-17 -42.5t-44 -16.5t-43.5 16.5t-16.5 42.5t16.5 42.5t43.5 16.5z" unicode="˙"/>
<glyph glyph-name="ring" d="M300 777q-25 0 -39.5 -15t-14.5 -41q0 -27 14.5 -42t39.5 -15q26 0 40 15t14 42q0 26 -14.5 41t-39.5 15zM300 824q48 0 79.5 -30t31.5 -73t-31.5 -72.5t-79.5 -29.5t-79.5 29.5t-31.5 72.5t31.5 73t79.5 30z" unicode="˚"/>
<glyph glyph-name="ogonek" d="M388 31l14 -31q-72 -31 -98 -58t-26 -56q0 -48 56 -48q27 0 61 7l-8 -68q-42 -6 -64 -6q-56 0 -89 27.5t-33 70.5q0 106 187 162z" unicode="˛"/>
<glyph glyph-name="tilde" d="M358 659q-28 0 -64 24t-52 24q-28 0 -53 -46l-53 26q41 85 106 85q30 0 65 -24.5t51 -24.5q27 0 53 45l54 -27q-38 -82 -107 -82z" unicode="˜"/>
<glyph glyph-name="hungarumlaut" d="M302 662l87 174l74 -39l-108 -163zM137 662l78 174l75 -36l-97 -164z" unicode="˝"/>
<glyph glyph-name="gravecomb" horiz-adv-x="0" unicode="̀" d="M-380 797l196 -112l-26 -45l-209 85z"/>
<glyph glyph-name="acutecomb" horiz-adv-x="0" unicode="́" d="M-216 797l38 -72l-209 -85l-26 45z"/>
<glyph glyph-name="uni0302" horiz-adv-x="0" unicode="̂" d="M-271 748l134 -107l-37 -43l-126 81l-125 -81l-38 43l135 107h57z"/>
<glyph glyph-name="tildecomb" horiz-adv-x="0" unicode="̃" d="M-241 659q-28 0 -64 24t-52 24q-28 0 -53 -46l-53 26q41 85 106 85q30 0 65 -24.5t51 -24.5q26 0 54 45l53 -27q-38 -82 -107 -82z"/>
<glyph glyph-name="uni0304" horiz-adv-x="0" unicode="̄" d="M-165 622h-269v64h269v-64z"/>
<glyph glyph-name="uni0306" horiz-adv-x="0" unicode="̆" d="M-302 586q-59 0 -100.5 32.5t-47.5 86.5l58 13q23 -67 90 -67q71 0 94 67l58 -13q-6 -54 -49 -86.5t-103 -32.5z"/>
<glyph glyph-name="uni0307" horiz-adv-x="0" unicode="̇" d="M-300 719q27 0 44 -16.5t17 -41.5q0 -27 -16.5 -43.5t-44.5 -16.5q-27 0 -43.5 17t-16.5 43q0 25 16.5 41.5t43.5 16.5z"/>
<glyph glyph-name="uni0308" horiz-adv-x="0" unicode="̈" d="M-197 648q-23 0 -38.5 15t-15.5 38q0 24 15.5 39.5t38.5 15.5t39 -15.5t16 -39.5q0 -22 -16 -37.5t-39 -15.5zM-404 648q-23 0 -39 15.5t-16 37.5q0 24 16 39.5t39 15.5t38.5 -15.5t15.5 -39.5q0 -23 -15.5 -38t-38.5 -15z"/>
<glyph glyph-name="uni030A" horiz-adv-x="0" unicode="̊" d="M-300 724q-25 0 -39.5 -15.5t-14.5 -41.5t14.5 -41.5t39.5 -15.5t39.5 15.5t14.5 41.5t-14.5 41.5t-39.5 15.5zM-300 770q48 0 79.5 -30t31.5 -73t-31.5 -72.5t-79.5 -29.5t-79.5 29.5t-31.5 72.5t31.5 73t79.5 30z"/>
<glyph glyph-name="uni030B" horiz-adv-x="0" unicode="̋" d="M-299 608l88 174l74 -39l-109 -163zM-463 608l78 174l74 -36l-97 -164z"/>
<glyph glyph-name="uni030C" horiz-adv-x="0" unicode="̌" d="M-174 731l37 -42l-134 -108h-57l-135 108l38 42l125 -80z"/>
<glyph glyph-name="uni030F" horiz-adv-x="0" unicode="̏" d="M-137 662l-56 -26l-97 164l75 36zM-302 662l-53 -28l-108 163l74 39z"/>
<glyph glyph-name="uni0313" horiz-adv-x="0" unicode="̓" d="M-282 763q23 0 38.5 -15.5t15.5 -38.5q0 -22 -15 -55l-50 -107h-51l29 118q-21 16 -21 44q0 23 15.5 38.5t38.5 15.5z"/>
<glyph glyph-name="uni0314" horiz-adv-x="0" unicode="̔" d="M-303 559q-23 0 -38.5 15.5t-15.5 38.5q0 22 15 55l50 107h51l-29 -118q21 -16 21 -44q0 -23 -15.5 -38.5t-38.5 -15.5z"/>
<glyph glyph-name="uni0326" horiz-adv-x="0" unicode="̦" d="M-297 -71q23 0 39 -15.5t16 -37.5q0 -20 -15 -55l-51 -107h-50l29 117q-22 17 -22 45q0 23 15.5 38t38.5 15z"/>
<glyph glyph-name="uni0327" horiz-adv-x="0" unicode="̧" d="M-259 -152q0 25 -21 34t-65 9l8 114h58v-73q47 -4 70 -27.5t23 -55.5q0 -47 -35.5 -73t-86.5 -26q-62 0 -105 25l27 48q30 -16 68 -16q59 0 59 41z"/>
<glyph glyph-name="uni0335" horiz-adv-x="0" unicode="̵" d="M-129 278h-343v67h343v-67z"/>
<glyph glyph-name="uni0336" horiz-adv-x="0" unicode="̶" d="M26 278h-651v67h651v-67z"/>
<glyph glyph-name="uni0342" horiz-adv-x="0" unicode="͂" d="M-242 659q-28 0 -64 24t-52 24q-28 0 -53 -46l-53 26q41 85 106 85q30 0 65 -24.5t51 -24.5q26 0 54 45l53 -27q-38 -82 -107 -82z"/>
<glyph glyph-name="uni0345" horiz-adv-x="0" unicode="ͅ" d="M-293 -188q-52 0 -81 27.5t-29 74.5v47h75v-45q0 -42 42 -42q29 0 57 17l33 -45q-45 -34 -97 -34z"/>
<glyph glyph-name="uni0370" d="M486 327h-285v-327h-87v689h87v-291h285v-71z" unicode="Ͱ"/>
<glyph glyph-name="uni0371" d="M523 307v-72h-303v-235h-84v354q0 92 -27 173l77 11q34 -74 34 -200v-31h303z" unicode="ͱ"/>
<glyph glyph-name="uni0372" d="M36 689h529v-76v-189h-76v189h-145v-613h-87v613h-145v-191h-76v216v51z" unicode="Ͳ"/>
<glyph glyph-name="uni0373" d="M568 526v-69l-226 -1v-658l-84 -10v668h-137q-47 0 -87 -11l-15 67q39 14 105 14h444z" unicode="ͳ"/>
<glyph glyph-name="uni0374" d="M210 429l86 260h94l-115 -260h-65z" unicode="ʹ"/>
<glyph glyph-name="uni0375" d="M390 127l-86 -260h-94l115 260h65z" unicode="͵"/>
<glyph glyph-name="uni0376" d="M83 0v689h86v-349q0 -145 -14 -263l250 612h112v-689h-86v349q0 133 14 257l-248 -606h-114z" unicode="Ͷ"/>
<glyph glyph-name="uni0377" d="M492 136q0 -37 10.5 -54.5t36.5 -29.5l-29 -63q-57 15 -81 51.5t-24 103.5q0 84 18 282l-225 -426h-103v527h84v-247q0 -36 -2 -78.5t-4 -70t-2 -28.5l223 424h98v-391z" unicode="ͷ"/>
<glyph glyph-name="uni037A" d="M307 -188q-52 0 -81 27.5t-29 74.5v47h75v-45q0 -42 42 -42q29 0 57 17l33 -45q-45 -34 -97 -34z" unicode="ͺ"/>
<glyph glyph-name="uni037B" d="M263 -11q-97 0 -172 56l39 54q36 -21 63 -29.5t66 -8.5q75 0 117.5 49t42.5 151q0 206 -150 206q-76 0 -137 -39l-41 54q81 56 177 56q113 0 177.5 -75.5t64.5 -203.5q0 -127 -67 -198.5t-180 -71.5z" unicode="ͻ"/>
<glyph glyph-name="uni037C" d="M348 327q28 0 45.5 -17t17.5 -43q0 -27 -17.5 -44t-45.5 -17q-27 0 -44 17.5t-17 43.5t17 43t44 17zM339 61q69 0 137 46l40 -55q-33 -29 -82 -46t-95 -17q-117 0 -182.5 73.5t-65.5 198.5q0 122 66.5 199.5t181.5 77.5q102 0 176 -62l-41 -55q-69 46 -136 46 q-71 0 -113.5 -52.5t-42.5 -153.5t42.5 -150.5t114.5 -49.5z" unicode="ͼ"/>
<glyph glyph-name="uni037D" d="M249 327q28 0 45.5 -17t17.5 -43q0 -27 -17.5 -44t-45.5 -17q-27 0 -44 17.5t-17 43.5t17 43t44 17zM263 -11q-97 0 -172 56l39 54q36 -21 63 -29.5t66 -8.5q75 0 117.5 49t42.5 151q0 206 -150 206q-76 0 -137 -39l-41 54q81 56 177 56q113 0 177.5 -75.5t64.5 -203.5 q0 -127 -67 -198.5t-180 -71.5z" unicode="ͽ"/>
<glyph glyph-name="uni037E" d="M308 166q34 0 57.5 -23.5t23.5 -57.5q0 -36 -20 -79l-81 -186h-76l48 198q-33 25 -33 67q0 34 23.5 57.5t57.5 23.5zM308 511q34 0 57.5 -23.5t23.5 -56.5q0 -34 -23.5 -58t-57.5 -24t-57.5 24t-23.5 58q0 33 23.5 56.5t57.5 23.5z" unicode=";"/>
<glyph glyph-name="uni037F" d="M497 689v-460q0 -46 -12 -86.5t-37.5 -76.5t-73.5 -57t-113 -21q-105 0 -188 63l38 57q75 -47 149 -47q72 0 111 45.5t39 126.5v385h-204v71h291z" unicode="Ϳ"/>
<glyph glyph-name="tonos" d="M274 808l89 -17l-65 -195l-60 10z" unicode="΄"/>
<glyph glyph-name="dieresistonos" d="M401 735q23 0 39 -15.5t16 -38.5t-16 -38.5t-39 -15.5t-38.5 15.5t-15.5 38.5t15.5 38.5t38.5 15.5zM198 735q23 0 38.5 -15.5t15.5 -38.5t-15.5 -38.5t-38.5 -15.5t-39 15.5t-16 38.5t16 38.5t39 15.5zM298 914l89 -19l-59 -167l-59 9z" unicode="΅"/>
<glyph glyph-name="Alphatonos" d="M184 248h227l-113 367zM434 176h-273l-55 -176h-86l225 689h110l224 -689h-90zM89 705l99 -16l-71 -196l-65 10z" unicode="Ά"/>
<glyph glyph-name="anoteleia" d="M212 342q0 37 25.5 62t62.5 25q38 0 63 -25t25 -62q0 -38 -25 -63.5t-63 -25.5q-37 0 -62.5 25.5t-25.5 63.5z" unicode="·"/>
<glyph glyph-name="Epsilontonos" d="M212 617v-232h256v-71h-256v-244h314v-70h-400v689h391l-10 -72h-295zM7 705l99 -16l-71 -196l-65 10z" unicode="Έ"/>
<glyph glyph-name="Etatonos" d="M430 0v327h-260v-327h-87v689h87v-291h260v291h87v-689h-87zM-35 705l99 -16l-71 -196l-65 10z" unicode="Ή"/>
<glyph glyph-name="Iotatonos" d="M497 689v-70h-153v-550h153v-69h-394v69h153v550h-153v70h394zM-15 705l99 -16l-71 -196l-65 10z" unicode="Ί"/>
<glyph glyph-name="Omicrontonos" d="M463 344q0 141 -39 212t-124 71t-124 -71.5t-39 -212.5q0 -281 163 -281q85 0 124 70.5t39 211.5zM553 344q0 -161 -65.5 -258t-187.5 -97q-123 0 -188 95t-65 259q0 161 65.5 259t187.5 98t187.5 -96.5t65.5 -259.5zM-3 705l99 -16l-71 -196l-65 10z" unicode="Ό"/>
<glyph glyph-name="Upsilontonos" d="M344 266v-266h-88v265l-233 424h96l183 -346l185 346h90zM-85 705l99 -16l-71 -196l-65 10z" unicode="Ύ"/>
<glyph glyph-name="Omegatonos" d="M300 627q-82 0 -122.5 -66t-40.5 -212q0 -221 129 -284v-65h-208v70h119q-130 67 -130 279q0 166 68 258.5t185 92.5t185 -92.5t68 -258.5q0 -207 -131 -279h120v-70h-207v65q128 62 128 284q0 146 -41 212t-122 66zM-4 705l99 -16l-71 -196l-65 10z" unicode="Ώ"/>
<glyph glyph-name="iotadieresistonos" d="M240 455h-177l9 72h252v-397q0 -71 87 -71q42 0 89 18l22 -61q-46 -27 -125 -27q-72 0 -114.5 40t-42.5 111v315zM385 735q23 0 39 -15.5t16 -38.5t-16 -38.5t-39 -15.5t-38.5 15.5t-15.5 38.5t15.5 38.5t38.5 15.5zM182 735q23 0 38.5 -15.5t15.5 -38.5t-15.5 -38.5 t-38.5 -15.5t-39 15.5t-16 38.5t16 38.5t39 15.5zM282 914l89 -19l-59 -167l-59 9z" unicode="ΐ"/>
<glyph glyph-name="Alpha" d="M184 248h227l-113 367zM434 176h-273l-55 -176h-86l225 689h110l224 -689h-90z" unicode="Α"/>
<glyph glyph-name="Beta" d="M448 193q0 131 -148 131h-117v-252h114q151 0 151 121zM421 510q0 108 -135 108h-103v-222h111q127 0 127 114zM540 196q0 -54 -22 -93.5t-60 -61t-82 -31.5t-94 -10h-186v689h170q49 0 90 -8.5t77 -27.5t56.5 -54t20.5 -84q0 -62 -37 -99.5t-92 -50.5q159 -27 159 -169z " unicode="Β"/>
<glyph glyph-name="Gamma" d="M544 689l-9 -77h-312v-612h-87v689h408z" unicode="Γ"/>
<glyph glyph-name="uni0394" d="M298 613l-169 -542h337zM355 689l224 -689h-559l225 689h110z" unicode="Δ"/>
<glyph glyph-name="Epsilon" d="M212 617v-232h256v-71h-256v-244h314v-70h-400v689h391l-10 -72h-295z" unicode="Ε"/>
<glyph glyph-name="Zeta" d="M167 75h360l-10 -75h-445v70l363 544h-327v75h420v-72z" unicode="Ζ"/>
<glyph glyph-name="Eta" d="M430 0v327h-260v-327h-87v689h87v-291h260v291h87v-689h-87z" unicode="Η"/>
<glyph glyph-name="Theta" d="M402 316h-205v72h205v-72zM462 344q0 141 -38.5 212t-123.5 71t-123.5 -71.5t-38.5 -212.5q0 -281 162 -281q85 0 123.5 70.5t38.5 211.5zM553 344q0 -161 -65.5 -258t-187.5 -97q-123 0 -188 95t-65 259q0 161 65.5 259t187.5 98t187.5 -96.5t65.5 -259.5z" unicode="Θ"/>
<glyph glyph-name="Iota" d="M497 689v-70h-153v-550h153v-69h-394v69h153v550h-153v70h394z" unicode="Ι"/>
<glyph glyph-name="Kappa" d="M197 368l270 321h101l-269 -316l288 -373h-109zM192 0h-87v689h87v-689z" unicode="Κ"/>
<glyph glyph-name="Lambda" d="M355 689l219 -689h-90l-186 608l-187 -608h-87l221 689h110z" unicode="Λ"/>
<glyph glyph-name="Mu" d="M531 689l39 -689h-84l-21 360q-6 95 -6 249l-116 -485h-87l-124 485q2 -36 2 -96q0 -92 -4 -153l-18 -360h-82l39 689h121l112 -472l107 472h122z" unicode="Μ"/>
<glyph glyph-name="Nu" d="M395 0l-243 605q12 -180 12 -260v-345h-81v689h118l247 -608q0 5 -3.5 48.5t-6 101.5t-2.5 113v345h81v-689h-122z" unicode="Ν"/>
<glyph glyph-name="Xi" d="M523 81v-81h-446v81h446zM464 389v-80h-337v80h337zM513 689l-12 -80h-424v80h436z" unicode="Ξ"/>
<glyph glyph-name="Omicron" d="M463 344q0 141 -39 212t-124 71t-124 -71.5t-39 -212.5q0 -281 163 -281q85 0 124 70.5t39 211.5zM553 344q0 -161 -65.5 -258t-187.5 -97q-123 0 -188 95t-65 259q0 161 65.5 259t187.5 98t187.5 -96.5t65.5 -259.5z" unicode="Ο"/>
<glyph glyph-name="Pi" d="M430 0v613h-260v-613h-87v689h434v-689h-87z" unicode="Π"/>
<glyph glyph-name="Rho" d="M464 476q0 144 -162 144h-100v-295h97q78 0 121.5 34t43.5 117zM557 477q0 -115 -71 -168t-195 -53h-89v-256h-86v689h175q127 0 196.5 -53t69.5 -159z" unicode="Ρ"/>
<glyph glyph-name="Sigma" d="M404 315l-229 -242h352v-73h-454v73l255 271l-255 270v75h454v-74h-354l231 -238v-62z" unicode="Σ"/>
<glyph glyph-name="Tau" d="M342 614v-614h-87v614h-215v75h519l-9 -75h-208z" unicode="Τ"/>
<glyph glyph-name="Upsilon" d="M344 266v-266h-88v265l-233 424h96l183 -346l185 346h90z" unicode="Υ"/>
<glyph glyph-name="Phi" d="M341 545v-400q85 5 123 52.5t38 149.5q0 108 -38.5 152.5t-122.5 45.5zM259 545q-84 -2 -122.5 -46.5t-38.5 -151.5q0 -103 38 -150t123 -52v400zM342 689v-79q247 -13 247 -263q0 -128 -63 -195t-184 -71v-81h-84v81q-120 4 -183.5 71t-63.5 195q0 250 247 263v79h84z " unicode="Φ"/>
<glyph glyph-name="Chi" d="M49 689h100l151 -265l152 265h93l-195 -317l219 -372h-100l-171 311l-174 -311h-93l216 367z" unicode="Χ"/>
<glyph glyph-name="Psi" d="M256 0v192q-122 9 -182.5 73t-60.5 165v259h89v-254q0 -79 35 -120.5t120 -48.5v423h87v-422q83 7 118.5 48.5t35.5 119.5v254h89v-259q0 -100 -61 -163.5t-181 -73.5v-193h-89z" unicode="Ψ"/>
<glyph glyph-name="uni03A9" d="M300 627q-82 0 -122.5 -66t-40.5 -212q0 -221 129 -284v-65h-208v70h119q-130 67 -130 279q0 166 68 258.5t185 92.5t185 -92.5t68 -258.5q0 -207 -131 -279h120v-70h-207v65q128 62 128 284q0 146 -41 212t-122 66z" unicode="Ω"/>
<glyph glyph-name="Iotadieresis" d="M497 689v-70h-153v-550h153v-69h-394v69h153v550h-153v70h394zM403 767q-23 0 -38.5 15t-15.5 38q0 24 15.5 39.5t38.5 15.5t39 -15.5t16 -39.5q0 -22 -16 -37.5t-39 -15.5zM196 767q-23 0 -39 15.5t-16 37.5q0 24 16 39.5t39 15.5t38.5 -15.5t15.5 -39.5 q0 -23 -15.5 -38t-38.5 -15z" unicode="Ϊ"/>
<glyph glyph-name="Upsilondieresis" d="M344 266v-266h-88v265l-233 424h96l183 -346l185 346h90zM406 767q-23 0 -38.5 15t-15.5 38q0 24 15.5 39.5t38.5 15.5t39 -15.5t16 -39.5q0 -22 -16 -37.5t-39 -15.5zM199 767q-23 0 -39 15.5t-16 37.5q0 24 16 39.5t39 15.5t38.5 -15.5t15.5 -39.5q0 -23 -15.5 -38 t-38.5 -15z" unicode="Ϋ"/>
<glyph glyph-name="alphatonos" d="M261 470q-54 0 -83 -54.5t-29 -156.5q0 -202 108 -202q45 0 82 44.5t60 165.5q-20 115 -52.5 159t-85.5 44zM255 538q70 0 110 -37.5t56 -127.5l27 154h77l-51 -281l25 -136q7 -37 45 -52l-30 -71q-34 6 -60 31t-32 65l-9 56q-50 -150 -163 -150q-92 0 -141.5 68 t-49.5 202q0 126 50.5 202.5t145.5 76.5zM283 808l89 -17l-65 -195l-60 10z" unicode="ά"/>
<glyph glyph-name="epsilontonos" d="M391 241h-90q-67 0 -97 -20.5t-30 -65.5t38 -71t104 -26q104 0 185 58l45 -57q-92 -70 -236 -70q-100 0 -163.5 43t-63.5 120q0 111 132 130q-54 12 -82.5 42t-28.5 73q0 67 60.5 104t151.5 37q123 0 200 -54l-42 -52q-65 38 -155 38q-128 0 -128 -81q0 -37 31 -58.5 t85 -21.5h94zM323 808l89 -17l-65 -195l-60 10z" unicode="έ"/>
<glyph glyph-name="etatonos" d="M352 538q148 0 148 -156v-584l-84 -10v532q0 87 -16.5 119t-74.5 32q-42 0 -80 -26t-61 -61v-384h-84v354q0 76 -27 173l79 11q17 -31 24 -88q32 42 80 65t96 23zM306 808l89 -17l-65 -195l-60 10z" unicode="ή"/>
<glyph glyph-name="iotatonos" d="M240 455h-177l9 72h252v-397q0 -71 87 -71q42 0 89 18l22 -61q-46 -27 -125 -27q-72 0 -114.5 40t-42.5 111v315zM291 808l89 -17l-65 -195l-60 10z" unicode="ί"/>
<glyph glyph-name="upsilondieresistonos" d="M500 527q25 -138 25 -272q0 -131 -69.5 -198.5t-167.5 -67.5q-83 0 -134 44t-51 128v366h84v-358q0 -55 27 -83t77 -28q62 0 105.5 47t43.5 158q0 133 -26 264h86zM401 735q23 0 39 -15.5t16 -38.5t-16 -38.5t-39 -15.5t-38.5 15.5t-15.5 38.5t15.5 38.5t38.5 15.5z M198 735q23 0 38.5 -15.5t15.5 -38.5t-15.5 -38.5t-38.5 -15.5t-39 15.5t-16 38.5t16 38.5t39 15.5zM298 914l89 -19l-59 -167l-59 9z" unicode="ΰ"/>
<glyph glyph-name="alpha" d="M261 470q-54 0 -83 -54.5t-29 -156.5q0 -202 108 -202q45 0 82 44.5t60 165.5q-20 115 -52.5 159t-85.5 44zM255 538q70 0 110 -37.5t56 -127.5l27 154h77l-51 -281l25 -136q7 -37 45 -52l-30 -71q-34 6 -60 31t-32 65l-9 56q-50 -150 -163 -150q-92 0 -141.5 68 t-49.5 202q0 126 50.5 202.5t145.5 76.5z" unicode="α"/>
<glyph glyph-name="beta" d="M317 58q62 0 103 38t41 106q0 81 -46 122.5t-134 41.5h-54l10 65h53q56 0 90.5 32.5t34.5 99.5q0 59 -33.5 89t-88.5 30q-118 0 -118 -143v-430q51 -51 142 -51zM342 404q205 -21 205 -202q0 -95 -65.5 -154t-156.5 -59q-83 0 -150 52v-242l-84 -11v752q0 97 53.5 152.5 t147.5 55.5q85 0 143 -48t58 -129q0 -75 -42.5 -117t-108.5 -50z" unicode="β"/>
<glyph glyph-name="gamma" d="M472 538l85 -19l-217 -502q-23 -55 -23 -113q0 -38 12 -105l-68 -11q-26 52 -26 117q0 59 21 115q-35 149 -95 290.5t-118 196.5l85 30q52 -60 99 -174.5t77 -254.5z" unicode="γ"/>
<glyph glyph-name="delta" d="M291 454q-70 -32 -101 -83t-31 -129q0 -86 38 -135t106 -49q69 0 107 48t38 137q0 88 -32.5 130.5t-124.5 80.5zM318 749q94 0 165 -60l-42 -50q-58 45 -128 45q-44 0 -69.5 -18.5t-25.5 -51.5q0 -32 23.5 -49.5t95.5 -47.5q107 -43 154.5 -103.5t47.5 -169.5 q0 -106 -64.5 -180.5t-171.5 -74.5q-108 0 -171.5 73t-63.5 181q0 87 44 149t115 90q-52 26 -74.5 57t-22.5 72q0 65 52.5 101.5t135.5 36.5z" unicode="δ"/>
<glyph glyph-name="epsilon" d="M391 241h-90q-67 0 -97 -20.5t-30 -65.5t38 -71t104 -26q104 0 185 58l45 -57q-92 -70 -236 -70q-100 0 -163.5 43t-63.5 120q0 111 132 130q-54 12 -82.5 42t-28.5 73q0 67 60.5 104t151.5 37q123 0 200 -54l-42 -52q-65 38 -155 38q-128 0 -128 -81q0 -37 31 -58.5 t85 -21.5h94z" unicode="ε"/>
<glyph glyph-name="zeta" d="M519 739l11 -57q-90 -78 -143 -128t-99 -104.5t-65.5 -100.5t-19.5 -94q0 -71 34 -103t123 -62q47 -16 70 -25t48.5 -25t35 -36t9.5 -49q0 -56 -38.5 -99t-118.5 -79l-34 61q50 25 75 49t25 59q0 27 -21.5 40t-91.5 37q-112 39 -160 86.5t-48 142.5q0 101 79 199t259 231 q-32 -12 -146 -12h-150l10 69h356z" unicode="ζ"/>
<glyph glyph-name="eta" d="M352 538q148 0 148 -156v-584l-84 -10v532q0 87 -16.5 119t-74.5 32q-42 0 -80 -26t-61 -61v-384h-84v354q0 76 -27 173l79 11q17 -31 24 -88q32 42 80 65t96 23z" unicode="η"/>
<glyph glyph-name="theta" d="M438 339h-277q4 -147 37.5 -214t101.5 -67t101 66.5t37 214.5zM301 679q-69 0 -103 -65.5t-37 -207.5h278q-3 143 -36 208t-102 65zM301 749q110 0 168 -99t58 -278q0 -177 -59 -280t-168 -103q-110 0 -168.5 101.5t-58.5 280.5q0 176 59 277t169 101z" unicode="θ"/>
<glyph glyph-name="iota" d="M240 455h-177l9 72h252v-397q0 -71 87 -71q42 0 89 18l22 -61q-46 -27 -125 -27q-72 0 -114.5 40t-42.5 111v315z" unicode="ι"/>
<glyph glyph-name="kappa" d="M169 527q27 -76 27 -202v-325h-84v340q0 93 -25 187h82zM457 538l70 -49l-224 -204l147 -156q58 -60 111 -71l-30 -69q-40 6 -70 24.5t-63 53.5l-198 215z" unicode="κ"/>
<glyph glyph-name="lambda" d="M242 527h34q-22 74 -59.5 110t-115.5 48l13 66q115 -16 171.5 -73t86.5 -179q46 -195 88 -308t99 -170l-87 -32q-106 132 -175 473l-168 -475l-81 18z" unicode="λ"/>
<glyph glyph-name="uni03BC" d="M484 527v-359q0 -78 27 -168l-79 -12q-18 32 -24 85q-23 -38 -62 -61.5t-79 -23.5t-62 11.5t-42 39.5q9 -65 9 -88v-153l-84 -10v739h84v-296q0 -89 16.5 -128.5t72.5 -39.5q83 0 139 79v385h84z" unicode="μ"/>
<glyph glyph-name="nu" d="M237 0q-40 167 -94 311t-111 195l84 31q103 -119 178 -463l168 464l85 -20l-208 -518h-102z" unicode="ν"/>
<glyph glyph-name="xi" d="M357 749q112 0 195 -59l-41 -50q-67 44 -153 44q-65 0 -99.5 -26t-34.5 -76q0 -49 31.5 -76t87.5 -27h122l-11 -76h-119q-66 0 -105.5 -38.5t-39.5 -95.5q0 -40 9.5 -66t36.5 -45.5t57 -32t87 -30.5q94 -29 130 -57t36 -83q0 -56 -38.5 -98.5t-118.5 -79.5l-34 61 q51 24 75.5 49.5t24.5 61.5q0 26 -18 38.5t-75 31.5q-65 20 -106 38t-80.5 46t-58 68t-18.5 94q0 80 50 124.5t108 54.5q-55 21 -88 52t-33 84q0 77 64 123t157 46z" unicode="ξ"/>
<glyph glyph-name="omicron" d="M301 469q-137 0 -137 -206q0 -205 136 -205t136 206q0 205 -135 205zM301 538q109 0 167.5 -73.5t58.5 -200.5q0 -124 -59.5 -199.5t-167.5 -75.5q-109 0 -168 73.5t-59 200.5q0 125 59.5 200t168.5 75z" unicode="ο"/>
<glyph glyph-name="pi" d="M558 456h-84v-320q0 -39 11 -55.5t39 -22.5l-30 -69q-57 14 -80.5 45.5t-23.5 92.5v329h-191v-456h-85v456q-49 -1 -88 -11l-20 64q38 18 130 18h422v-71z" unicode="π"/>
<glyph glyph-name="rho" d="M305 471q-69 0 -98 -53.5t-29 -160.5v-132q44 -66 122 -66q65 0 99 52.5t34 152.5q0 207 -128 207zM307 538q217 0 217 -274q0 -118 -53.5 -196.5t-152.5 -78.5q-88 0 -140 60v-251l-84 -10v483q0 131 54 199t159 68z" unicode="ρ"/>
<glyph glyph-name="uni03C2" d="M348 538q103 0 179 -56l-42 -56q-34 22 -63 31.5t-71 9.5q-68 0 -114 -51.5t-46 -144.5q0 -73 30.5 -105.5t127.5 -68.5q87 -32 123.5 -60.5t36.5 -83.5q0 -54 -36.5 -92.5t-118.5 -74.5l-36 60q49 19 74.5 41.5t25.5 56.5q0 30 -22 44.5t-102 43.5q-100 36 -146 89.5 t-46 149.5q0 125 68.5 196t177.5 71z" unicode="ς"/>
<glyph glyph-name="sigma" d="M300 58q134 0 134 206q0 143 -71 204q-98 0 -148.5 -43t-50.5 -162q0 -205 136 -205zM559 527v-71l-123 9q85 -53 88 -200v-11q0 -120 -60 -192.5t-164 -72.5q-107 0 -167 74t-60 200q0 124 66 196.5t183 72.5q127 0 237 -5z" unicode="σ"/>
<glyph glyph-name="tau" d="M486 77l22 -61q-46 -27 -125 -27q-71 0 -113 40t-42 111v316h-45q-64 0 -130 -17l-14 66q61 22 156 22h312v-71h-195v-326q0 -71 86 -71q41 0 88 18z" unicode="τ"/>
<glyph glyph-name="upsilon" d="M500 527q25 -138 25 -272q0 -131 -69.5 -198.5t-167.5 -67.5q-83 0 -134 44t-51 128v366h84v-358q0 -55 27 -83t77 -28q62 0 105.5 47t43.5 158q0 133 -26 264h86z" unicode="υ"/>
<glyph glyph-name="phi" d="M401 471q-17 0 -29 -5.5t-19.5 -19t-12 -26t-6.5 -35.5t-2.5 -38.5t-0.5 -44.5v-247q83 9 116.5 59.5t33.5 153.5q0 110 -17.5 156.5t-62.5 46.5zM402 538q85 0 124.5 -67t39.5 -203q0 -257 -235 -278v-191l-79 -11v202q-218 19 -218 249q0 141 55 288h84 q-56 -165 -56 -267q0 -96 29.5 -145t105.5 -59v262q0 108 34.5 164t115.5 56z" unicode="φ"/>
<glyph glyph-name="chi" d="M357 188l196 -391l-88 -7l-158 333l-162 -331l-86 6l197 385q-60 136 -101 198.5t-101 124.5l82 31q49 -50 88 -116.5t83 -181.5l138 295l89 -5z" unicode="χ"/>
<glyph glyph-name="psi" d="M341 527v-464q85 10 114 56.5t29 142.5q0 115 -26 265h85q26 -143 26 -273q0 -240 -228 -260v-196l-80 -10v206q-110 8 -165 63t-55 136v334h84v-326q0 -65 30.5 -97.5t105.5 -40.5v464h80z" unicode="ψ"/>
<glyph glyph-name="omega" d="M523 527q51 -137 51 -288q0 -119 -39 -184.5t-114 -65.5q-107 0 -122 116q-24 -116 -122 -116q-151 0 -151 250q0 161 50 288h75q-42 -129 -42 -288q0 -87 17 -134t59 -47q75 0 75 173v126l80 11v-138q0 -83 16.5 -127.5t57.5 -44.5q43 0 60 47t17 134q0 145 -45 288h77z " unicode="ω"/>
<glyph glyph-name="iotadieresis" d="M240 455h-177l9 72h252v-397q0 -71 87 -71q42 0 89 18l22 -61q-46 -27 -125 -27q-72 0 -114.5 40t-42.5 111v315zM387 648q-23 0 -38.5 15t-15.5 38q0 24 15.5 39.5t38.5 15.5t39 -15.5t16 -39.5q0 -22 -16 -37.5t-39 -15.5zM180 648q-23 0 -39 15.5t-16 37.5 q0 24 16 39.5t39 15.5t38.5 -15.5t15.5 -39.5q0 -23 -15.5 -38t-38.5 -15z" unicode="ϊ"/>
<glyph glyph-name="upsilondieresis" d="M500 527q25 -138 25 -272q0 -131 -69.5 -198.5t-167.5 -67.5q-83 0 -134 44t-51 128v366h84v-358q0 -55 27 -83t77 -28q62 0 105.5 47t43.5 158q0 133 -26 264h86zM403 648q-23 0 -38.5 15t-15.5 38q0 24 15.5 39.5t38.5 15.5t39 -15.5t16 -39.5q0 -22 -16 -37.5 t-39 -15.5zM196 648q-23 0 -39 15.5t-16 37.5q0 24 16 39.5t39 15.5t38.5 -15.5t15.5 -39.5q0 -23 -15.5 -38t-38.5 -15z" unicode="ϋ"/>
<glyph glyph-name="omicrontonos" d="M301 469q-137 0 -137 -206q0 -205 136 -205t136 206q0 205 -135 205zM301 538q109 0 167.5 -73.5t58.5 -200.5q0 -124 -59.5 -199.5t-167.5 -75.5q-109 0 -168 73.5t-59 200.5q0 125 59.5 200t168.5 75zM307 808l89 -17l-65 -195l-60 10z" unicode="ό"/>
<glyph glyph-name="upsilontonos" d="M500 527q25 -138 25 -272q0 -131 -69.5 -198.5t-167.5 -67.5q-83 0 -134 44t-51 128v366h84v-358q0 -55 27 -83t77 -28q62 0 105.5 47t43.5 158q0 133 -26 264h86zM307 808l89 -17l-65 -195l-60 10z" unicode="ύ"/>
<glyph glyph-name="omegatonos" d="M523 527q51 -137 51 -288q0 -119 -39 -184.5t-114 -65.5q-107 0 -122 116q-24 -116 -122 -116q-151 0 -151 250q0 161 50 288h75q-42 -129 -42 -288q0 -87 17 -134t59 -47q75 0 75 173v126l80 11v-138q0 -83 16.5 -127.5t57.5 -44.5q43 0 60 47t17 134q0 145 -45 288h77z M307 808l89 -17l-65 -195l-60 10z" unicode="ώ"/>
<glyph glyph-name="uni03CF" d="M574 72v-72v-61q0 -73 -38.5 -111.5t-106.5 -38.5q-65 0 -112 37l33 57q37 -24 75 -24q63 0 63 75v66h-34l-262 368l249 321h103l-250 -316l217 -301h63zM100 0v689h87v-689h-87z" unicode="Ϗ"/>
<glyph glyph-name="uni03D0" d="M299 58q62 0 97 44.5t35 116.5q0 83 -24 125t-90 42q-51 0 -116 -32l-32 -16v-16q0 -130 29.5 -197t100.5 -67zM335 684q-60 0 -106.5 -66t-56.5 -207l31 13q103 45 148 89t45 108q0 63 -61 63zM353 438q168 0 168 -215q0 -94 -59.5 -164t-161.5 -70q-118 0 -169.5 90 t-51.5 266q0 190 78.5 297t183.5 107q73 0 108 -38t35 -90q0 -60 -42.5 -109.5t-119.5 -77.5q16 4 31 4z" unicode="ϐ"/>
<glyph glyph-name="uni03D1" d="M293 472l111 1q-16 207 -140 207q-46 0 -73.5 -29t-27.5 -74q0 -53 34.5 -79t92.5 -26h3zM536 474l-1 -70h-35v-2q0 -413 -234 -413q-70 0 -119.5 46t-49.5 126v188h85v-178q0 -113 86 -113h2q68 1 102 81t34 263v2h-113q-104 0 -160 47.5t-56 123.5q0 73 52.5 123.5 t132.5 50.5q105 0 164 -72.5t71 -202.5h39z" unicode="ϑ"/>
<glyph glyph-name="uni03D2" d="M576 625q-16 4 -30 4q-20 0 -34.5 -12.5t-29.5 -43.5l-144 -307v-266h-87v265l-213 424h96l164 -347l106 244q29 66 58 90t78 24q31 0 56 -11z" unicode="ϒ"/>
<glyph glyph-name="uni03D3" d="M576 625q-16 4 -30 4q-20 0 -34.5 -12.5t-29.5 -43.5l-144 -307v-266h-87v265l-213 424h96l164 -347l106 244q29 66 58 90t78 24q31 0 56 -11zM-76 705l99 -16l-71 -196l-65 10z" unicode="ϓ"/>
<glyph glyph-name="uni03D4" d="M576 625q-16 4 -30 4q-20 0 -34.5 -12.5t-29.5 -43.5l-144 -307v-266h-87v265l-213 424h96l164 -347l106 244q29 66 58 90t78 24q31 0 56 -11zM406 767q-23 0 -38.5 15t-15.5 38q0 24 15.5 39.5t38.5 15.5t39 -15.5t16 -39.5q0 -22 -16 -37.5t-39 -15.5zM199 767 q-23 0 -39 15.5t-16 37.5q0 24 16 39.5t39 15.5t38.5 -15.5t15.5 -39.5q0 -23 -15.5 -38t-38.5 -15z" unicode="ϔ"/>
<glyph glyph-name="uni03D5" d="M339 69q129 13 129 196q0 87 -33 137t-96 55v-388zM132 263q0 -184 130 -194v390q-130 -12 -130 -196zM555 265q0 -119 -58.5 -188t-156.5 -74v-205l-80 -10v215q-103 7 -159 76.5t-56 183.5q0 119 59 187.5t156 72.5v215l80 9v-224q103 -7 159 -76t56 -182z" unicode="ϕ"/>
<glyph glyph-name="uni03D6" d="M488 239q0 121 -26 223l-314 -1q-23 -93 -23 -222q0 -181 71 -181q69 0 69 173v106l81 11v-118q0 -172 70 -172q72 0 72 181zM591 528v-66h-63q44 -102 44 -222q0 -119 -38.5 -185t-110.5 -66q-49 0 -80 29.5t-38 86.5q-11 -56 -42 -86t-77 -30q-145 0 -145 251 q0 119 41 220q-30 -1 -59 -10l-14 62q36 13 108 14v2h49h5h323h97z" unicode="ϖ"/>
<glyph glyph-name="uni03D7" d="M538 51v-110q0 -74 -39 -113t-107 -39q-62 0 -111 37l34 54q37 -22 73 -22q64 0 64 75v89q-48 33 -48 123q0 26 4.5 88.5t10 126t5.5 71.5l-216 -438l-100 29v368q0 38 -10 55t-36 29l29 64q58 -16 81.5 -52.5t23.5 -103.5q0 -26 -4.5 -89t-10 -127t-5.5 -70l216 438 l100 -30v-368q0 -38 10 -55.5t36 -29.5z" unicode="ϗ"/>
<glyph glyph-name="uni03D8" d="M300 62q85 0 124 70.5t39 211.5t-39 212t-124 71t-124 -71.5t-39 -212.5q0 -281 163 -281zM553 344q0 -146 -54 -240.5t-156 -111.5v-193h-85v193q-103 16 -157 109t-54 242q0 161 65.5 259t187.5 98t187.5 -96.5t65.5 -259.5z" unicode="Ϙ"/>
<glyph glyph-name="uni03D9" d="M300 58q136 0 136 206q0 205 -135 205q-137 0 -137 -206q0 -205 136 -205zM527 264q0 -111 -48.5 -184t-136.5 -88v-194l-84 -10v204q-89 14 -137 86t-48 185q0 125 59.5 200t168.5 75t167.5 -73.5t58.5 -200.5z" unicode="ϙ"/>
<glyph glyph-name="uni03DA" d="M360 -214l-36 58q49 21 74 45t25 60q0 32 -26.5 51t-109.5 53q-112 46 -162.5 118t-50.5 194q0 66 18 122t55 102.5t102.5 73t153.5 26.5h147l-13 -74h-139q-115 0 -173.5 -67t-58.5 -181q0 -105 39 -159t139 -93q91 -36 130.5 -71t39.5 -91q0 -54 -36.5 -92.5 t-117.5 -74.5z" unicode="Ϛ"/>
<glyph glyph-name="uni03DB" d="M413 577l85 -6q0 -41 -12.5 -70t-39 -47t-54.5 -28.5t-71 -20.5q-44 -10 -69 -19t-48.5 -25t-33.5 -41t-10 -62q0 -72 35 -103.5t141 -64.5q85 -26 123.5 -54.5t38.5 -85.5q0 -52 -37 -90.5t-118 -73.5l-35 58q51 22 75 44t24 54q0 8 -1.5 14.5t-4 12t-7.5 10.5t-9 8.5 t-12.5 7.5t-14 6t-17 6t-18.5 6t-22 6.5t-23 6.5q-37 11 -64 22t-56 30t-47 42t-30 58t-12 79q0 165 193 210q96 23 118 38q33 21 33 72z" unicode="ϛ"/>
<glyph glyph-name="uni03DC" d="M526 612h-313v-228h149q59 0 104 -21l-23 -66q-40 14 -89 14h-141v-311h-87v689h409z" unicode="Ϝ"/>
<glyph glyph-name="uni03DD" d="M296 457q-46 0 -66 -20t-20 -66v-140h173q59 0 102 -21l-21 -61q-40 14 -89 14h-165v-364l-84 -12v577q0 163 166 163h235l-12 -69z" unicode="ϝ"/>
<glyph glyph-name="uni03DE" d="M530 310l-226 -310h-99l227 310h-344l-17 75l225 304h99l-226 -304h344z" unicode="Ϟ"/>
<glyph glyph-name="uni03DF" d="M513 399l-102 -205q-66 -131 -76 -205l-74 14q9 91 72 210l87 159l-310 -88l-23 70l96 193q66 130 77 205l73 -14q-9 -93 -72 -210l-80 -148l306 88z" unicode="ϟ"/>
<glyph glyph-name="uni03E0" d="M575 0h-90l-104 285l-90 -285l-84 2l136 386l-42 112l-186 -500h-90l238 596l-38 93h84z" unicode="Ϡ"/>
<glyph glyph-name="uni03E1" d="M98 751q213 -106 314 -260.5t101 -391.5q0 -163 -41 -310l-77 10q31 140 31 300q0 73 -11 142l-102 -241h-77l151 349q-19 55 -50 104l-219 -453h-87l255 521q-82 94 -218 170z" unicode="ϡ"/>
<glyph glyph-name="uni03F0" d="M492 136q0 -38 10 -55t36 -29l-29 -63q-58 16 -81.5 52t-23.5 104q0 26 4.5 88.5t10 126t5.5 71.5l-216 -438l-100 29v368q0 38 -10 55t-36 29l29 64q58 -16 81.5 -52.5t23.5 -103.5q0 -26 -4.5 -89t-10 -127t-5.5 -70l216 438l100 -29v-369z" unicode="ϰ"/>
<glyph glyph-name="uni03F1" d="M308 471q-71 0 -100.5 -53.5t-29.5 -161.5v-88q41 -77 120 -77q65 0 100 53t35 145q0 88 -32 135t-93 47zM318 -103q68 -10 101 -29t44 -51l-78 -32q-11 20 -31.5 28.5t-90.5 20.5q-89 14 -129 52.5t-40 123.5v261q0 267 212 267q106 0 162 -67t56 -182 q0 -110 -55 -188.5t-152 -78.5q-92 0 -139 70v-79q0 -61 26 -82t114 -34z" unicode="ϱ"/>
<glyph glyph-name="uni03F2" d="M339 61q69 0 137 46l40 -55q-33 -29 -82 -46t-95 -17q-117 0 -182.5 73.5t-65.5 198.5q0 122 66.5 199.5t181.5 77.5q102 0 176 -62l-41 -55q-69 46 -136 46q-71 0 -113.5 -52.5t-42.5 -153.5t42.5 -150.5t114.5 -49.5z" unicode="ϲ"/>
<glyph glyph-name="uni03F3" d="M445 527v-443q0 -127 -84.5 -197.5t-250.5 -98.5l-14 65q127 21 196 73.5t69 152.5v381h-219v67h303zM367 773q27 0 44 -16.5t17 -42.5t-17 -42.5t-44 -16.5t-44 16.5t-17 42.5t17 42.5t44 16.5z" unicode="ϳ"/>
<glyph glyph-name="uni03F4" d="M402 316h-205v72h205v-72zM462 344q0 141 -38.5 212t-123.5 71t-123.5 -71.5t-38.5 -212.5q0 -281 162 -281q85 0 123.5 70.5t38.5 211.5zM553 344q0 -161 -65.5 -258t-187.5 -97q-123 0 -188 95t-65 259q0 161 65.5 259t187.5 98t187.5 -96.5t65.5 -259.5z" unicode="ϴ"/>
<glyph glyph-name="uni03F5" d="M340 538q102 0 176 -58l-40 -55q-65 45 -138 45q-63 0 -106 -43t-52 -124h240v-66h-241q5 -90 48 -134t111 -44q74 0 139 45l39 -54q-34 -29 -82 -45t-93 -16q-119 0 -184.5 73.5t-65.5 198.5q0 122 66.5 199.5t182.5 77.5z" unicode="ϵ"/>
<glyph glyph-name="uni03F6" d="M278 538q118 0 178 -72t60 -200q0 -127 -63 -202t-180 -75q-106 0 -182 62l41 56q64 -48 140 -48q147 0 157 178h-248v66h247q-15 167 -151 167q-78 0 -141 -47l-40 54q73 61 182 61z" unicode="϶"/>
<glyph glyph-name="uni03F7" d="M303 503h-109v-305h109q78 0 119.5 34.5t41.5 120.5q0 150 -161 150zM194 689v-117h98q127 0 195.5 -54t68.5 -163q0 -116 -71 -171.5t-193 -55.5h-98v-128h-87v689h87z" unicode="Ϸ"/>
<glyph glyph-name="uni03F8" d="M316 470q-74 0 -132 -84v-261q45 -66 121 -66q131 0 131 205q0 206 -120 206zM184 749v-288q60 77 152 77q191 0 191 -274q0 -125 -52 -200t-151 -75q-86 0 -140 60v-251l-84 -10v951z" unicode="ϸ"/>
<glyph glyph-name="uni03F9" d="M358 700q64 0 110 -16.5t90 -50.5l-49 -57q-61 51 -145 51q-93 0 -151.5 -67.5t-58.5 -214.5q0 -146 57 -214t152 -68q87 0 160 57l45 -56q-77 -75 -206 -75q-131 0 -215 94t-84 262q0 167 84.5 261t210.5 94z" unicode="Ϲ"/>
<glyph glyph-name="uni03FA" d="M531 689l39 -689h-84l-21 360q-6 95 -6 249l-116 -485h-87l-124 485q2 -36 2 -96q0 -92 -4 -153l-18 -360h-82l39 689h121l112 -472l107 472h122z" unicode="Ϻ"/>
<glyph glyph-name="uni03FB" d="M20 -212l63 739h113l98 -388l109 388h113l43 -527h-83l-20 262q-7 93 -7 187l-116 -392h-81l-108 389q0 -111 -6 -183l-37 -464z" unicode="ϻ"/>
<glyph glyph-name="uni03FC" d="M210 257v-132q42 -66 121 -66q66 0 100 52.5t34 152.5q0 207 -129 207q-68 0 -97 -53.5t-29 -160.5zM350 -11q-88 0 -140 60v-114h160v-68h-160v-69l-84 -10v79h-81v68h81v336q0 131 54 199t158 68q218 0 218 -274q0 -118 -53.5 -196.5t-152.5 -78.5z" unicode="ϼ"/>
<glyph glyph-name="uni03FD" d="M252 700q133 0 209 -92t76 -263q0 -168 -84 -262t-215 -94q-129 0 -206 75l45 57q72 -58 160 -58q95 0 152 68t57 214q0 151 -51.5 216.5t-149.5 65.5q-87 0 -161 -51l-42 57q95 67 210 67z" unicode="Ͻ"/>
<glyph glyph-name="uni03FE" d="M362 406q28 0 45 -17t17 -42q0 -27 -17 -43.5t-45 -16.5q-27 0 -44 17t-17 43q0 25 17 42t44 17zM358 700q64 0 110 -16.5t90 -50.5l-49 -57q-61 51 -145 51q-93 0 -151.5 -67.5t-58.5 -214.5q0 -146 57 -214t152 -68q87 0 160 57l45 -56q-77 -75 -206 -75 q-131 0 -215 94t-84 262q0 167 84.5 261t210.5 94z" unicode="Ͼ"/>
<glyph glyph-name="uni03FF" d="M235 406q28 0 45 -17t17 -42q0 -27 -17 -43.5t-45 -16.5q-27 0 -44 17t-17 43q0 25 17 42t44 17zM252 700q133 0 209 -92t76 -263q0 -168 -84 -262t-215 -94q-129 0 -206 75l45 57q72 -58 160 -58q95 0 152 68t57 214q0 151 -51.5 216.5t-149.5 65.5q-87 0 -161 -51 l-42 57q95 67 210 67z" unicode="Ͽ"/>
<glyph glyph-name="uni0400" d="M212 617v-232h256v-71h-256v-244h314v-70h-400v689h391l-10 -72h-295zM252 909l185 -108l-26 -46l-205 82z" unicode="Ѐ"/>
<glyph glyph-name="uni0401" d="M212 617v-232h256v-71h-256v-244h314v-70h-400v689h391l-10 -72h-295zM424 767q-23 0 -38.5 15t-15.5 38q0 24 15.5 39.5t38.5 15.5t39 -15.5t16 -39.5q0 -22 -16 -37.5t-39 -15.5zM217 767q-23 0 -39 15.5t-16 37.5q0 24 16 39.5t39 15.5t38.5 -15.5t15.5 -39.5 q0 -23 -15.5 -38t-38.5 -15z" unicode="Ё"/>
<glyph glyph-name="uni0402" d="M244 616v-226q65 60 144 60q178 0 178 -204v-150q0 -99 -42.5 -150t-130.5 -81l-22 69q65 26 87 59.5t22 101.5v145q0 72 -25.5 103t-85.5 31q-70 0 -125 -53v-321h-87v616h-162v73h418l-9 -73h-160z" unicode="Ђ"/>
<glyph glyph-name="uni0403" d="M544 689l-9 -77h-312v-612h-87v689h408zM432 906l37 -72l-213 -79l-22 46z" unicode="Ѓ"/>
<glyph glyph-name="uni0404" d="M352 700q115 0 200 -67l-45 -53q-68 49 -149 49q-86 0 -142.5 -57.5t-66.5 -181.5h305v-72h-307q6 -130 63 -193.5t147 -63.5q93 0 159 60l46 -57q-81 -75 -208 -75q-133 0 -214.5 93t-81.5 263q0 167 84.5 261t209.5 94z" unicode="Є"/>
<glyph glyph-name="uni0405" d="M537 191q0 -91 -67 -146.5t-185 -55.5q-152 0 -242 87l52 59q79 -74 191 -74q68 0 114 33t46 95q0 51 -31.5 80t-118.5 54q-112 33 -167 77.5t-55 121.5q0 78 62 128t161 50q128 0 220 -79l-52 -56q-71 62 -165 62q-60 0 -99 -26t-39 -76q0 -44 37 -71t136 -56 q97 -28 149.5 -73t52.5 -134z" unicode="Ѕ"/>
<glyph glyph-name="uni0406" d="M497 689v-70h-153v-550h153v-69h-394v69h153v550h-153v70h394z" unicode="І"/>
<glyph glyph-name="uni0407" d="M497 689v-70h-153v-550h153v-69h-394v69h153v550h-153v70h394zM403 767q-23 0 -38.5 15t-15.5 38q0 24 15.5 39.5t38.5 15.5t39 -15.5t16 -39.5q0 -22 -16 -37.5t-39 -15.5zM196 767q-23 0 -39 15.5t-16 37.5q0 24 16 39.5t39 15.5t38.5 -15.5t15.5 -39.5 q0 -23 -15.5 -38t-38.5 -15z" unicode="Ї"/>
<glyph glyph-name="uni0408" d="M497 689v-460q0 -46 -12 -86.5t-37.5 -76.5t-73.5 -57t-113 -21q-105 0 -188 63l38 57q75 -47 149 -47q72 0 111 45.5t39 126.5v385h-204v71h291z" unicode="Ј"/>
<glyph glyph-name="uni0409" d="M371 366h-16v-296h15q72 0 106 32t34 118q0 79 -34.5 112.5t-104.5 33.5zM355 689v-256q124 0 184.5 -51.5t60.5 -160.5q0 -221 -237 -221h-94v617h-94l-23 -306q-9 -119 -24 -183.5t-31.5 -88.5t-50.5 -50l-44 57q26 30 41 81t26 186l30 376h256z" unicode="Љ"/>
<glyph glyph-name="uni040A" d="M371 349h-17v-281h17q72 0 105 29.5t33 113.5q0 75 -34 106.5t-104 31.5zM354 689v-275q125 0 185.5 -49t60.5 -153q0 -112 -61 -162t-176 -50h-94v349h-142v-349h-86v689h86v-275h142v275h85z" unicode="Њ"/>
<glyph glyph-name="uni040B" d="M413 689l-9 -73h-160v-226q62 60 144 60q178 0 178 -204v-246h-86v240q0 72 -25.5 103t-85.5 31q-70 0 -125 -53v-321h-87v616h-162v73h418z" unicode="Ћ"/>
<glyph glyph-name="uni040C" d="M261 326h-80v-326h-86v689h86v-290h81l212 290h94l-232 -325l251 -364h-105zM402 906l37 -72l-213 -79l-22 46z" unicode="Ќ"/>
<glyph glyph-name="uni040D" d="M83 0v689h86v-349q0 -145 -14 -263l250 612h112v-689h-86v349q0 133 14 257l-248 -606h-114zM231 909l185 -108l-26 -46l-205 82z" unicode="Ѝ"/>
<glyph glyph-name="uni040E" d="M580 689l-211 -509q-37 -91 -90 -134.5t-157 -56.5l-13 69q87 13 123.5 41.5t58.5 90.5h-37l-228 499h91l196 -443l180 443h87zM308 759q-58 0 -100 32.5t-47 86.5l57 13q25 -67 90 -67q70 0 93 67l58 -13q-6 -54 -49 -86.5t-102 -32.5z" unicode="Ў"/>
<glyph glyph-name="uni040F" d="M517 689v-689h-175v-147h-69l-14 147h-176v689h87v-617h73v1h99v-1h88v617h87z" unicode="Џ"/>
<glyph glyph-name="uni0410" d="M184 248h227l-113 367zM434 176h-273l-55 -176h-86l225 689h110l224 -689h-90z" unicode="А"/>
<glyph glyph-name="uni0411" d="M287 352h-100v-282h99q80 0 123 31t43 113q0 138 -165 138zM485 689l-8 -73h-290v-195h87q268 0 268 -206q0 -215 -267 -215h-174v689h384z" unicode="Б"/>
<glyph glyph-name="uni0412" d="M448 193q0 131 -148 131h-117v-252h114q151 0 151 121zM421 510q0 108 -135 108h-103v-222h111q127 0 127 114zM540 196q0 -54 -22 -93.5t-60 -61t-82 -31.5t-94 -10h-186v689h170q49 0 90 -8.5t77 -27.5t56.5 -54t20.5 -84q0 -62 -37 -99.5t-92 -50.5q159 -27 159 -169z " unicode="В"/>
<glyph glyph-name="uni0413" d="M544 689l-9 -77h-312v-612h-87v689h408z" unicode="Г"/>
<glyph glyph-name="uni0414" d="M426 73v542h-181l-15 -130q-27 -227 -44 -300t-59 -112h299zM514 73h51v-220h-69l-15 147h-21h-355h-22l-14 -147h-69v220h43q36 36 51 99t42 266q5 34 7 53l25 198h346v-616z" unicode="Д"/>
<glyph glyph-name="uni0415" d="M212 617v-232h256v-71h-256v-244h314v-70h-400v689h391l-10 -72h-295z" unicode="Е"/>
<glyph glyph-name="uni0416" d="M261 327h-61l-104 -327h-84l123 364l-108 325h83l91 -291h60v291h78v-291h60l92 291h82l-108 -325l123 -364h-86l-103 327h-60v-327h-78v327z" unicode="Ж"/>
<glyph glyph-name="uni0417" d="M281 700q108 0 172 -50t64 -130q0 -61 -40 -98.5t-102 -46.5q70 -6 118 -50.5t48 -119.5q0 -95 -71.5 -155.5t-191.5 -60.5q-151 0 -243 97l54 49q82 -73 189 -73q80 0 124.5 37t44.5 103t-44 98.5t-117 32.5h-121l10 73h105q63 0 105.5 28.5t42.5 84.5q0 53 -41.5 81.5 t-107.5 28.5q-96 0 -182 -66l-48 51q103 86 232 86z" unicode="З"/>
<glyph glyph-name="uni0418" d="M83 0v689h86v-349q0 -145 -14 -263l250 612h112v-689h-86v349q0 133 14 257l-248 -606h-114z" unicode="И"/>
<glyph glyph-name="uni0419" d="M83 0v689h86v-349q0 -145 -14 -263l250 612h112v-689h-86v349q0 133 14 257l-248 -606h-114zM298 773q-59 0 -100 29.5t-47 82.5l57 13q20 -60 90 -60q73 0 93 60l58 -13q-6 -53 -48.5 -82.5t-102.5 -29.5z" unicode="Й"/>
<glyph glyph-name="uni041A" d="M261 326h-80v-326h-86v689h86v-290h81l212 290h94l-232 -325l251 -364h-105z" unicode="К"/>
<glyph glyph-name="uni041B" d="M517 689v-689h-87v614h-185l-25 -204q-15 -119 -29 -191t-36 -117t-42.5 -66t-59.5 -47l-38 64q29 24 43.5 44.5t35 92t36.5 196.5l39 303h348z" unicode="Л"/>
<glyph glyph-name="uni041C" d="M531 689l39 -689h-84l-21 360q-6 95 -6 249l-116 -485h-87l-124 485q2 -36 2 -96q0 -92 -4 -153l-18 -360h-82l39 689h121l112 -472l107 472h122z" unicode="М"/>
<glyph glyph-name="uni041D" d="M430 0v327h-260v-327h-87v689h87v-291h260v291h87v-689h-87z" unicode="Н"/>
<glyph glyph-name="uni041E" d="M463 344q0 141 -39 212t-124 71t-124 -71.5t-39 -212.5q0 -281 163 -281q85 0 124 70.5t39 211.5zM553 344q0 -161 -65.5 -258t-187.5 -97q-123 0 -188 95t-65 259q0 161 65.5 259t187.5 98t187.5 -96.5t65.5 -259.5z" unicode="О"/>
<glyph glyph-name="uni041F" d="M430 0v613h-260v-613h-87v689h434v-689h-87z" unicode="П"/>
<glyph glyph-name="uni0420" d="M464 476q0 144 -162 144h-100v-295h97q78 0 121.5 34t43.5 117zM557 477q0 -115 -71 -168t-195 -53h-89v-256h-86v689h175q127 0 196.5 -53t69.5 -159z" unicode="Р"/>
<glyph glyph-name="uni0421" d="M358 700q64 0 110 -16.5t90 -50.5l-49 -57q-61 51 -145 51q-93 0 -151.5 -67.5t-58.5 -214.5q0 -146 57 -214t152 -68q87 0 160 57l45 -56q-77 -75 -206 -75q-131 0 -215 94t-84 262q0 167 84.5 261t210.5 94z" unicode="С"/>
<glyph glyph-name="uni0422" d="M342 614v-614h-87v614h-215v75h519l-9 -75h-208z" unicode="Т"/>
<glyph glyph-name="uni0423" d="M580 689l-211 -509q-37 -91 -90 -134.5t-157 -56.5l-13 69q87 13 123.5 41.5t58.5 90.5h-37l-228 499h91l196 -443l180 443h87z" unicode="У"/>
<glyph glyph-name="uni0424" d="M341 595v-500q84 8 121 66.5t37 185.5q0 131 -38 188t-120 60zM259 595q-82 -3 -120 -60t-38 -188q0 -127 37 -185.5t121 -66.5v500zM342 718v-59q125 -9 185 -86.5t60 -225.5q0 -152 -63 -231t-182 -85v-60h-84v60q-245 11 -245 316q0 148 60 225.5t185 86.5v59h84z" unicode="Ф"/>
<glyph glyph-name="uni0425" d="M49 689h100l151 -265l152 265h93l-195 -317l219 -372h-100l-171 311l-174 -311h-93l216 367z" unicode="Х"/>
<glyph glyph-name="uni0426" d="M517 73h61v-220h-69l-14 147h-412v689h87v-617h260v617h87v-616z" unicode="Ц"/>
<glyph glyph-name="uni0427" d="M430 689h87v-689h-87v282q-46 -34 -86 -48.5t-93 -14.5q-90 0 -145 55.5t-55 148.5v266h86v-259q0 -135 136 -135q96 0 157 61v333z" unicode="Ч"/>
<glyph glyph-name="uni0428" d="M554 689v-689h-508v689h82v-616h133v616h78v-616h133v616h82z" unicode="Ш"/>
<glyph glyph-name="uni0429" d="M554 73h61v-220h-69l-14 147h-486v689h82v-616h133v616h78v-616h133v616h82v-616z" unicode="Щ"/>
<glyph glyph-name="uni042A" d="M329 364h-120v-293h122q76 0 118 32.5t42 116.5q0 144 -162 144zM209 689v-256h106q266 0 266 -212q0 -115 -71 -168t-194 -53h-195v612h-121v77h209z" unicode="Ъ"/>
<glyph glyph-name="uni042B" d="M191 367h-72v-298h74q72 0 108.5 35.5t36.5 115.5q0 147 -147 147zM569 689v-689h-88v689h88zM119 689v-256h63q248 0 248 -212q0 -110 -63.5 -165.5t-182.5 -55.5h-153v689h88z" unicode="Ы"/>
<glyph glyph-name="uni042C" d="M297 364h-116v-293h115q78 0 120.5 32.5t42.5 116.5q0 144 -162 144zM181 689v-256h104q266 0 266 -212q0 -114 -71 -167.5t-194 -53.5h-192v689h87z" unicode="Ь"/>
<glyph glyph-name="uni042D" d="M269 700q127 0 198.5 -88t71.5 -259q0 -177 -74 -270.5t-204 -93.5q-134 0 -219 88l52 49q73 -65 162 -65q181 0 193 256h-303v74h303q-7 126 -53 182t-131 56q-89 0 -167 -65l-48 51q98 85 219 85z" unicode="Э"/>
<glyph glyph-name="uni042E" d="M388 629q-56 0 -78.5 -62.5t-22.5 -221.5t22.5 -222t78.5 -63q54 0 78 64t24 220t-24 220.5t-78 64.5zM388 700q105 0 148 -87t43 -269q0 -176 -45.5 -265.5t-145.5 -89.5q-102 0 -145 86t-45 246h-68v-321h-83v689h83v-296h69q6 154 50 230.5t139 76.5z" unicode="Ю"/>
<glyph glyph-name="uni042F" d="M430 619h-105q-80 0 -118.5 -32.5t-38.5 -101.5q0 -138 139 -138h123v272zM517 689v-689h-87v277h-153l-146 -277h-98l162 297q-120 54 -120 187q0 98 67 151.5t194 53.5h181z" unicode="Я"/>
<glyph glyph-name="uni0430" d="M260 52q39 0 74.5 20t58.5 55v135h-76q-158 0 -158 -110q0 -100 101 -100zM478 115q0 -31 10 -45.5t33 -21.5l-21 -60q-77 10 -96 75q-57 -74 -165 -74q-79 0 -124.5 44t-45.5 118q0 81 63.5 125t182.5 44h78v43q0 105 -125 105q-60 0 -137 -27l-23 64q93 33 173 33 q96 0 146.5 -45t50.5 -125v-253z" unicode="а"/>
<glyph glyph-name="uni0431" d="M299 58q62 0 97.5 42.5t35.5 148.5q0 174 -113 174q-99 0 -152 -104v-64q0 -94 35 -145.5t97 -51.5zM332 492q87 0 139.5 -64.5t52.5 -175.5q0 -125 -62 -194t-163 -69q-100 0 -162 75t-62 225q0 171 41 258.5t152 125.5q111 40 165 77l36 -65q-66 -41 -159 -76 q-47 -17 -73.5 -37t-45.5 -63.5t-26 -114.5q26 45 69.5 71.5t97.5 26.5z" unicode="б"/>
<glyph glyph-name="uni0432" d="M291 68q33 0 54.5 2.5t46.5 10t38 26.5t13 48q0 90 -133 90h-114v-177h95zM292 470q-50 0 -96 -6v-152h108q114 0 114 81q0 41 -30.5 59t-95.5 18zM398 285q134 -12 134 -129q0 -78 -64.5 -117t-160.5 -39h-195v519q93 19 178 19q100 0 157.5 -36t57.5 -102 q0 -88 -107 -115z" unicode="в"/>
<glyph glyph-name="uni0433" d="M242 0h-84v527h366l-10 -71h-272v-456z" unicode="г"/>
<glyph glyph-name="uni0434" d="M411 69v389h-178l-7 -95q-10 -145 -28.5 -203.5t-63.5 -90.5h9h268zM496 69h39v-216h-70l-14 147h-305h-35l-15 -147h-70v216h36q37 32 54.5 91t28.5 197l11 170h340v-458z" unicode="д"/>
<glyph glyph-name="uni0435" d="M309 469q-61 0 -99 -43.5t-43 -127.5h274q-1 83 -36 127t-96 44zM167 234q3 -87 45.5 -131t107.5 -44q70 0 141 47l39 -56q-79 -61 -180 -61q-114 0 -177.5 74.5t-63.5 199.5q0 121 62.5 198t166.5 77q100 0 157.5 -69.5t57.5 -189.5q0 -23 -2 -45h-354z" unicode="е"/>
<glyph glyph-name="uni0436" d="M263 0v247h-57l-104 -247h-82l122 283l-113 244h86l92 -215h56v215h74v-215h56l95 215h83l-113 -244l122 -283h-85l-104 247h-54v-247h-74z" unicode="ж"/>
<glyph glyph-name="uni0437" d="M191 309h95q53 0 83.5 22t30.5 58q0 81 -124 81q-88 0 -163 -46l-40 50q85 64 206 64q91 0 150 -37.5t59 -106.5q0 -82 -107 -113q51 -1 93.5 -35t42.5 -89q0 -81 -66 -124.5t-173 -43.5q-135 0 -224 73l40 54q81 -58 187 -58q71 0 108 26t37 71q0 86 -134 86h-106z" unicode="з"/>
<glyph glyph-name="uni0438" d="M500 527v-527h-84v246q0 42 2 85t4 69l3 27l-222 -427h-103v527h84v-247q0 -36 -2 -78.5t-4 -70t-2 -28.5l219 424h105z" unicode="и"/>
<glyph glyph-name="uni0439" d="M500 527v-527h-84v246q0 42 2 85t4 69l3 27l-222 -427h-103v527h84v-247q0 -36 -2 -78.5t-4 -70t-2 -28.5l219 424h105zM298 647q-59 0 -100 29.5t-47 82.5l57 13q20 -60 90 -60q73 0 93 60l58 -13q-6 -53 -48.5 -82.5t-102.5 -29.5z" unicode="й"/>
<glyph glyph-name="uni043A" d="M106 0v527h84v-214h105l152 214h95l-178 -244l205 -283h-102l-174 245h-103v-245h-84z" unicode="к"/>
<glyph glyph-name="uni043B" d="M510 527v-527h-84v456h-197l-12 -139q-10 -118 -25.5 -179.5t-39.5 -91t-74 -57.5l-36 54q29 18 44 37t29 75.5t22 158.5l16 213h357z" unicode="л"/>
<glyph glyph-name="uni043C" d="M519 527l39 -527h-81l-20 257q-6 90 -6 141q0 7 0.5 22t0.5 23h-4l-105 -355h-83l-116 355h-4q1 -16 1 -51q0 -53 -4 -133l-15 -259h-80l38 527h110l113 -360l104 360h112z" unicode="м"/>
<glyph glyph-name="uni043D" d="M416 0v234h-232v-234h-84v527h84v-224h232v224h84v-527h-84z" unicode="н"/>
<glyph glyph-name="uni043E" d="M301 469q-137 0 -137 -206q0 -205 136 -205t136 206q0 205 -135 205zM301 538q109 0 167.5 -73.5t58.5 -200.5q0 -124 -59.5 -199.5t-167.5 -75.5q-109 0 -168 73.5t-59 200.5q0 125 59.5 200t168.5 75z" unicode="о"/>
<glyph glyph-name="uni043F" d="M416 0v458h-232v-458h-84v527h400v-527h-84z" unicode="п"/>
<glyph glyph-name="uni0440" d="M316 470q-74 0 -132 -84v-261q45 -66 121 -66q131 0 131 205q0 206 -120 206zM336 538q191 0 191 -274q0 -125 -52 -200t-151 -75q-86 0 -140 60v-251l-84 -10v739h72l7 -74q60 85 157 85z" unicode="р"/>
<glyph glyph-name="uni0441" d="M339 61q69 0 137 46l40 -55q-33 -29 -82 -46t-95 -17q-117 0 -182.5 73.5t-65.5 198.5q0 122 66.5 199.5t181.5 77.5q102 0 176 -62l-41 -55q-69 46 -136 46q-71 0 -113.5 -52.5t-42.5 -153.5t42.5 -150.5t114.5 -49.5z" unicode="с"/>
<glyph glyph-name="uni0442" d="M541 527l-11 -70h-188v-457h-84v457h-193v70h476z" unicode="т"/>
<glyph glyph-name="uni0443" d="M538 527l-184 -530q-31 -91 -85 -145t-151 -64l-12 67q76 13 110.5 46t56.5 99h-28l-183 527h89l151 -463l149 463h87z" unicode="у"/>
<glyph glyph-name="uni0444" d="M417 471q-41 0 -79 -48v-317q37 -51 72 -51q75 0 75 209q0 112 -15.5 159.5t-52.5 47.5zM188 471q-37 0 -54.5 -48.5t-17.5 -158.5q0 -111 17.5 -160t54.5 -49q20 0 35.5 11.5t38.5 39.5v318q-21 26 -36.5 36.5t-37.5 10.5zM262 749l76 -11v-254q41 54 98 54 q74 0 104.5 -70.5t30.5 -203.5q0 -126 -37.5 -200.5t-106.5 -74.5q-51 0 -89 56v-246l-76 -11v257q-38 -56 -91 -56q-69 0 -105.5 74t-36.5 201q0 274 140 274q54 0 93 -52v263z" unicode="ф"/>
<glyph glyph-name="uni0445" d="M152 0h-96l194 278l-171 249h100l122 -196l123 196h97l-171 -245l194 -282h-102l-145 226z" unicode="х"/>
<glyph glyph-name="uni0446" d="M494 69h81v-216h-70l-14 147h-397v527h84v-457h232v457h84v-458z" unicode="ц"/>
<glyph glyph-name="uni0447" d="M489 527v-527h-84v223q-66 -59 -165 -59q-76 0 -115.5 40.5t-39.5 114.5v208h84v-198q0 -53 22 -76t70 -23q39 0 80 16.5t64 43.5v237h84z" unicode="ч"/>
<glyph glyph-name="uni0448" d="M551 527v-527h-502v527h79v-457h133v457h78v-457h134v457h78z" unicode="ш"/>
<glyph glyph-name="uni0449" d="M551 69h72v-216h-70l-14 147h-490v527h79v-457h133v457h78v-457h134v457h78v-458z" unicode="щ"/>
<glyph glyph-name="uni044A" d="M315 295h-73v-227h72q67 0 104 25t37 90q0 112 -140 112zM242 527v-166h63q240 0 240 -177q0 -184 -240 -184h-147v462h-125v65h209z" unicode="ъ"/>
<glyph glyph-name="uni044B" d="M181 293h-39v-228h39q67 0 100.5 26t33.5 91q0 59 -32 85t-102 26zM538 527v-527h-81v527h81zM142 527v-171h36q224 0 224 -173q0 -93 -59 -138t-165 -45h-116v527h80z" unicode="ы"/>
<glyph glyph-name="uni044C" d="M312 295h-102v-227h113q120 0 120 113q0 59 -29 86.5t-102 27.5zM210 527v-166h103q118 0 169.5 -46.5t51.5 -133.5q0 -89 -59 -135t-143 -46h-206v527h84z" unicode="ь"/>
<glyph glyph-name="uni044D" d="M278 538q118 0 178 -72t60 -200q0 -127 -63 -202t-180 -75q-106 0 -182 62l41 56q64 -48 140 -48q147 0 157 178h-248v66h247q-15 167 -151 167q-78 0 -141 -47l-40 54q73 61 182 61z" unicode="э"/>
<glyph glyph-name="uni044E" d="M385 469q-53 0 -73 -48.5t-20 -157.5q0 -103 20 -154t73 -51q54 0 74 51t20 155q0 107 -21 156t-73 49zM385 538q91 0 137 -71.5t46 -202.5q0 -128 -45.5 -201.5t-137.5 -73.5q-87 0 -131 66.5t-49 178.5h-67v-234h-82v527h82v-223h67q6 112 50.5 173t129.5 61z" unicode="ю"/>
<glyph glyph-name="uni044F" d="M288 271h114v188h-111q-117 0 -117 -92q0 -51 26.5 -73.5t87.5 -22.5zM293 527h193v-527h-84v204h-142l-112 -204h-95l125 223q-93 44 -93 144q0 78 54.5 119t153.5 41z" unicode="я"/>
<glyph glyph-name="uni0450" d="M309 469q-61 0 -99 -43.5t-43 -127.5h274q-1 83 -36 127t-96 44zM167 234q3 -87 45.5 -131t107.5 -44q70 0 141 47l39 -56q-79 -61 -180 -61q-114 0 -177.5 74.5t-63.5 199.5q0 121 62.5 198t166.5 77q100 0 157.5 -69.5t57.5 -189.5q0 -23 -2 -45h-354zM397 622l-203 93 l46 72l184 -119z" unicode="ѐ"/>
<glyph glyph-name="uni0451" d="M309 469q-61 0 -99 -43.5t-43 -127.5h274q-1 83 -36 127t-96 44zM167 234q3 -87 45.5 -131t107.5 -44q70 0 141 47l39 -56q-79 -61 -180 -61q-114 0 -177.5 74.5t-63.5 199.5q0 121 62.5 198t166.5 77q100 0 157.5 -69.5t57.5 -189.5q0 -23 -2 -45h-354zM413 648 q-23 0 -38.5 15t-15.5 38q0 24 15.5 39.5t38.5 15.5t39 -15.5t16 -39.5q0 -22 -16 -37.5t-39 -15.5zM206 648q-23 0 -39 15.5t-16 37.5q0 24 16 39.5t39 15.5t38.5 -15.5t15.5 -39.5q0 -23 -15.5 -38t-38.5 -15z" unicode="ё"/>
<glyph glyph-name="uni0452" d="M184 747v-82h169v-68h-169v-139q31 37 76.5 58.5t92.5 21.5q148 0 148 -156v-356q0 -71 -19 -117t-49.5 -70.5t-86.5 -49.5l-31 61q39 19 58 34.5t31.5 49.5t12.5 90v354q0 49 -22 71t-70 22q-41 0 -79 -26t-62 -61v-384h-84v597h-81v68h81v73z" unicode="ђ"/>
<glyph glyph-name="uni0453" d="M242 0h-84v527h366l-10 -71h-272v-456zM424 797l38 -72l-209 -85l-26 45z" unicode="ѓ"/>
<glyph glyph-name="uni0454" d="M340 538q102 0 176 -58l-40 -55q-65 45 -138 45q-63 0 -106 -43t-52 -124h240v-66h-241q5 -90 48 -134t111 -44q74 0 139 45l39 -54q-34 -29 -82 -45t-93 -16q-119 0 -184.5 73.5t-65.5 198.5q0 122 66.5 199.5t182.5 77.5z" unicode="є"/>
<glyph glyph-name="uni0455" d="M280 58q60 0 95 23t35 61t-24 59t-103 41q-92 23 -136 55.5t-44 96.5q0 66 55 105t145 39q110 0 192 -58l-38 -58q-69 48 -152 48q-114 0 -114 -69q0 -35 28 -52.5t111 -40.5q86 -23 128.5 -58.5t42.5 -103.5q0 -79 -64 -118t-157 -39q-124 0 -206 71l47 55 q69 -57 159 -57z" unicode="ѕ"/>
<glyph glyph-name="uni0456" d="M367 527v-460h148v-67h-394v67h162v393h-157v67h241zM300 773q28 0 45 -16.5t17 -42.5t-17 -42.5t-45 -16.5q-27 0 -43.5 16.5t-16.5 42.5t16.5 42.5t43.5 16.5z" unicode="і"/>
<glyph glyph-name="uni0457" d="M367 527v-460h148v-67h-394v67h162v393h-157v67h241zM404 648q-23 0 -38.5 15t-15.5 38q0 24 15.5 39.5t38.5 15.5t39 -15.5t16 -39.5q0 -22 -16 -37.5t-39 -15.5zM197 648q-23 0 -39 15.5t-16 37.5q0 24 16 39.5t39 15.5t38.5 -15.5t15.5 -39.5q0 -23 -15.5 -38 t-38.5 -15z" unicode="ї"/>
<glyph glyph-name="uni0458" d="M445 527v-443q0 -127 -84.5 -197.5t-250.5 -98.5l-14 65q127 21 196 73.5t69 152.5v381h-219v67h303zM367 773q27 0 44 -16.5t17 -42.5t-17 -42.5t-44 -16.5t-44 16.5t-17 42.5t17 42.5t44 16.5z" unicode="ј"/>
<glyph glyph-name="uni0459" d="M381 293h-18v-227h20q62 0 91.5 25.5t29.5 91.5q0 59 -29 84.5t-94 25.5zM363 527v-171h13q216 0 216 -173q0 -91 -57 -137t-158 -46h-95v460h-106l-6 -139q-5 -112 -21.5 -177t-41.5 -95.5t-73 -59.5l-31 56q24 20 37 39t27 77t20 154l11 212h265z" unicode="љ"/>
<glyph glyph-name="uni045A" d="M383 266h-17v-201h19q64 0 93 19t29 81q0 57 -29 79t-95 22zM366 527v-199h13q216 0 216 -163q0 -165 -213 -165h-97v266h-130v-266h-83v527h83v-199h130v199h81z" unicode="њ"/>
<glyph glyph-name="uni045B" d="M353 538q148 0 148 -156v-382h-84v381q0 47 -22 68.5t-70 21.5q-41 0 -79 -26t-62 -61v-384h-84v597h-81v68h81v73l84 9v-82h169v-68h-169v-143q31 40 76 62t93 22z" unicode="ћ"/>
<glyph glyph-name="uni045C" d="M106 0v527h84v-214h105l152 214h95l-178 -244l205 -283h-102l-174 245h-103v-245h-84zM404 797l38 -72l-209 -85l-26 45z" unicode="ќ"/>
<glyph glyph-name="uni045D" d="M500 527v-527h-84v246q0 42 2 85t4 69l3 27l-222 -427h-103v527h84v-247q0 -36 -2 -78.5t-4 -70t-2 -28.5l219 424h105zM387 622l-203 93l46 72l184 -119z" unicode="ѝ"/>
<glyph glyph-name="uni045E" d="M538 527l-184 -530q-31 -91 -85 -145t-151 -64l-12 67q76 13 110.5 46t56.5 99h-28l-183 527h89l151 -463l149 463h87zM298 647q-59 0 -100 29.5t-47 82.5l57 13q20 -60 90 -60q73 0 93 60l58 -13q-6 -53 -48.5 -82.5t-102.5 -29.5z" unicode="ў"/>
<glyph glyph-name="uni045F" d="M500 527v-527h-158v-147h-70l-14 147h-158v527h84v-457h232v457h84z" unicode="џ"/>
<glyph glyph-name="uni0460" d="M513 689q72 -194 72 -391q0 -309 -162 -309q-89 0 -122 104q-16 -52 -44.5 -78t-76.5 -26q-69 0 -116 74t-47 235q0 89 15 177t25 120.5t31 93.5h84q-70 -184 -70 -387q0 -242 92 -242q64 0 64 109v229h85v-228q0 -56 20 -83t50 -27q41 0 63.5 50t22.5 189q0 114 -18 203 t-52 187h84z" unicode="Ѡ"/>
<glyph glyph-name="uni0461" d="M523 527q51 -137 51 -288q0 -119 -39 -184.5t-114 -65.5q-107 0 -122 116q-24 -116 -122 -116q-151 0 -151 250q0 161 50 288h75q-42 -129 -42 -288q0 -87 17 -134t59 -47q75 0 75 173v126l80 11v-138q0 -83 16.5 -127.5t57.5 -44.5q43 0 60 47t17 134q0 145 -45 288h77z " unicode="ѡ"/>
<glyph glyph-name="uni0462" d="M310 71q79 0 122 33t43 115q0 141 -161 141h-73v-289h69zM312 428q120 0 188 -52.5t68 -154.5q0 -112 -72 -166.5t-196 -54.5h-146v530h-144v65h144v94h87v-94h153v-65h-153v-102h71z" unicode="Ѣ"/>
<glyph glyph-name="uni0463" d="M309 290h-80v-222h80q67 0 104 24t37 88q0 110 -141 110zM229 655v-119h133l-11 -68h-122v-112h70q241 0 241 -176q0 -180 -242 -180h-153v468h-87v68h87v109z" unicode="ѣ"/>
<glyph glyph-name="uni0464" d="M554 95l41 -58q-62 -48 -149 -48q-111 0 -177 85.5t-71 243.5h-70v-318h-88v688h88v-295h71q10 148 77.5 227.5t174.5 79.5q77 0 137 -41l-42 -57q-43 26 -93 26q-146 0 -165 -237h229v-74h-231q13 -255 163 -255q48 0 105 33z" unicode="Ѥ"/>
<glyph glyph-name="uni0465" d="M434 60q51 0 101 42l46 -52q-62 -61 -145 -61q-93 0 -149.5 65.5t-62.5 179.5h-64v-234h-84v527h84v-223h65q10 106 65 170t149 64q79 0 145 -57l-43 -52q-51 40 -104 40q-110 0 -129 -166h198v-66h-199q3 -89 37 -133t90 -44z" unicode="ѥ"/>
<glyph glyph-name="uni0466" d="M222 364h152l-76 248zM486 0l-89 290h-58v-290h-82v290h-58l-89 -290h-90l225 689h110l224 -689h-93z" unicode="Ѧ"/>
<glyph glyph-name="uni0467" d="M227 272h144l-72 186zM476 0l-79 204h-63v-204h-72v204h-61l-79 -204h-86l217 527h97l215 -527h-89z" unicode="ѧ"/>
<glyph glyph-name="uni0468" d="M319 360h115l-57 261zM514 0l-65 291h-36v-291h-73v291h-36l-65 -291h-81l70 291h-105v-291h-86v689h86v-329h107l2 -49l1 2l90 376h111l165 -689h-85z" unicode="Ѩ"/>
<glyph glyph-name="uni0469" d="M331 274h105l-52 186zM513 0l-58 205h-39v-205h-68v205h-36l-58 -205h-78l62 205h-103v-205h-83v527h83v-253h124l76 253h102l157 -527h-81z" unicode="ѩ"/>
<glyph glyph-name="uni046A" d="M183 626l120 -247l123 247h-243zM459 379l103 -379h-80l-82 311h-57v-311h-85v311h-57l-83 -311h-80l112 379h72l-129 252v58h59h337h24v-58l-135 -252h81z" unicode="Ѫ"/>
<glyph glyph-name="uni046B" d="M195 462l104 -163l104 163h-208zM469 299l109 -299h-77l-85 232h-75v-232h-83v232h-73l-84 -232h-79l109 299h91l-121 182v46h53h300h40v-46l-122 -182h97z" unicode="ѫ"/>
<glyph glyph-name="uni046C" d="M490 625h-213l106 -246zM528 379l100 -379h-82l-77 311h-46v-311h-86v311h-46l-78 -311h-82l89 311h-116v-311h-86v689h86v-310h201l-115 252v58h60h300h24v-58l-119 -252h73z" unicode="Ѭ"/>
<glyph glyph-name="uni046D" d="M292 464l92 -166l89 166h-181zM511 298l101 -298h-80l-73 229h-37v-229h-78v229h-36l-75 -229h-79l80 229h-117v-229h-82v527h82v-229h163h30l-107 183v46h55h264h36v-46l-107 -183h60z" unicode="ѭ"/>
<glyph glyph-name="uni046E" d="M291 376q110 0 168.5 -52.5t58.5 -146.5q0 -91 -59.5 -145.5t-151.5 -63.5q-74 -8 -99.5 -19t-25.5 -34q0 -36 73 -73l-32 -56q-127 55 -127 136q0 97 167 112q164 16 164 143q0 71 -37.5 102.5t-114.5 31.5h-106v64l211 241h-298v73h402v-73l-220 -240h27zM312 754h-57 l-135 108l38 43l125 -81l126 81l37 -43z" unicode="Ѯ"/>
<glyph glyph-name="uni046F" d="M216 -214q-130 57 -130 139q0 50 42 77.5t134 36.5q90 9 127.5 29t37.5 67q0 83 -87 83h-172v64l209 173h-297v72h409v-66l-224 -179h74q84 0 131.5 -36.5t47.5 -111.5q0 -139 -212 -163q-80 -8 -107 -19t-27 -34q0 -36 77 -76zM410 789l38 -41l-134 -119h-57l-135 119 l40 41l124 -90z" unicode="ѯ"/>
<glyph glyph-name="uni0470" d="M256 0v192q-122 9 -182.5 73t-60.5 165v259h89v-254q0 -79 35 -120.5t120 -48.5v423h87v-422q83 7 118.5 48.5t35.5 119.5v254h89v-259q0 -100 -61 -163.5t-181 -73.5v-193h-89z" unicode="Ѱ"/>
<glyph glyph-name="uni0471" d="M341 527v-464q85 10 114 56.5t29 142.5q0 115 -26 265h85q26 -143 26 -273q0 -240 -228 -260v-196l-80 -10v206q-110 8 -165 63t-55 136v334h84v-326q0 -65 30.5 -97.5t105.5 -40.5v464h80z" unicode="ѱ"/>
<glyph glyph-name="uni0472" d="M300 62q81 0 119.5 64t41.5 192h-323q6 -256 162 -256zM300 627q-78 0 -116.5 -60.5t-44.5 -182.5h321q-5 122 -43.5 182.5t-116.5 60.5zM553 344q0 -161 -65.5 -258t-187.5 -97q-123 0 -188 95t-65 259q0 161 65.5 259t187.5 98t187.5 -96.5t65.5 -259.5z" unicode="Ѳ"/>
<glyph glyph-name="uni0473" d="M435 234h-269q6 -91 39 -133.5t95 -42.5q123 0 135 176zM301 469q-127 0 -136 -167h270q-9 167 -134 167zM301 538q109 0 167.5 -73.5t58.5 -200.5q0 -124 -59.5 -199.5t-167.5 -75.5q-109 0 -168 73.5t-59 200.5q0 125 59.5 200t168.5 75z" unicode="ѳ"/>
<glyph glyph-name="uni0474" d="M566 626q-21 7 -34 7q-19 0 -30.5 -13t-19.5 -41l-154 -579h-96l-204 689h93l158 -589l125 491q15 57 43 83t75 26q34 0 72 -18z" unicode="Ѵ"/>
<glyph glyph-name="uni0475" d="M240 0l-183 527h92l143 -450l124 390q19 59 42.5 83t69.5 24q29 0 69 -19l-28 -56q-15 6 -31 6q-17 0 -26.5 -10t-17.5 -35l-152 -460h-102z" unicode="ѵ"/>
<glyph glyph-name="uni0476" d="M566 626q-21 7 -34 7q-19 0 -30.5 -13t-19.5 -41l-154 -579h-96l-204 689h93l158 -589l125 491q15 57 43 83t75 26q34 0 72 -18zM403 824l-56 -26l-97 164l75 36zM238 824l-53 -28l-108 163l74 39z" unicode="Ѷ"/>
<glyph glyph-name="uni0477" d="M240 0l-183 527h92l143 -450l124 390q19 59 42.5 83t69.5 24q29 0 69 -19l-28 -56q-15 6 -31 6q-17 0 -26.5 -10t-17.5 -35l-152 -460h-102zM413 662l-56 -26l-97 164l75 36zM248 662l-53 -28l-108 163l74 39z" unicode="ѷ"/>
<glyph glyph-name="uni0478" d="M349 -212l-11 64q44 13 69.5 47.5t35.5 100.5h-35l-84 527h76l61 -463l56 463h77l-83 -530q-27 -169 -162 -209zM164 55q44 0 59.5 65.5t15.5 223.5q0 157 -16 223t-59 66t-58.5 -66.5t-15.5 -223.5q0 -155 16.5 -221.5t57.5 -66.5zM164 -11q-83 0 -119 89t-36 265 q0 174 36 265.5t119 91.5t119.5 -90.5t36.5 -265.5q0 -176 -36.5 -265.5t-119.5 -89.5z" unicode="Ѹ"/>
<glyph glyph-name="uni0479" d="M153 56q39 0 54 48.5t15 159.5t-14.5 159.5t-53.5 48.5t-54 -48.5t-15 -160.5q0 -111 14.5 -159t53.5 -48zM270 -212l-12 63q80 16 118.5 48t54.5 101h-38l-94 527h89l66 -463l65 463h86l-92 -520q-19 -101 -78.5 -154.5t-164.5 -64.5zM153 -11q-153 0 -153 274 q0 128 37.5 201.5t116.5 73.5q153 0 153 -274q0 -128 -37.5 -201.5t-116.5 -73.5z" unicode="ѹ"/>
<glyph glyph-name="uni048A" d="M517 69h90l-78 -216h-68l35 147h-65v349q0 133 14 257l-248 -606h-114v689h86v-349q0 -145 -14 -263l250 612h112v-620zM298 773q-59 0 -100 29.5t-47 82.5l57 13q20 -60 90 -60q73 0 93 60l58 -13q-6 -53 -48.5 -82.5t-102.5 -29.5z" unicode="Ҋ"/>
<glyph glyph-name="uni048B" d="M484 66h77l-66 -213h-69l34 147h-58v246q0 116 10 203l-217 -449h-102v527h82v-247q0 -128 -14 -200l220 447h103v-461zM286 647q-59 0 -100 29.5t-47 82.5l58 13q19 -60 89 -60q73 0 93 60l58 -13q-6 -53 -48 -82.5t-103 -29.5z" unicode="ҋ"/>
<glyph glyph-name="uni048C" d="M311 71q79 0 122 33t43 115q0 141 -161 141h-103v-289h99zM314 428q119 0 187 -52.5t68 -154.5q0 -112 -72 -166.5t-196 -54.5h-176v531h-95v63h95v95h87v-95h131v-63h-131v-103h102z" unicode="Ҍ"/>
<glyph glyph-name="uni048D" d="M304 68q64 0 100.5 23t36.5 82q0 96 -125 96h-76v-201h64zM318 335q103 0 158 -42.5t55 -118.5q0 -85 -62 -129.5t-176 -44.5h-137v396h-86v68h86v63h84v-63h129l-11 -68h-118v-61h78z" unicode="ҍ"/>
<glyph glyph-name="uni048E" d="M298 325q46 0 77 10l-89 144h79l67 -110q31 35 31 105q0 146 -162 146h-99v-295h96zM557 475q0 -112 -85 -171l83 -136h-79l-64 106q-54 -18 -121 -18h-89v-256h-86v689h175q127 0 196.5 -53.5t69.5 -160.5z" unicode="Ҏ"/>
<glyph glyph-name="uni048F" d="M306 59q22 0 40 3l-95 157h79l75 -123q33 43 33 168q0 206 -120 206q-75 0 -131 -84v-261q43 -66 119 -66zM529 264q0 -166 -84 -235l75 -121h-79l-55 89q-29 -8 -60 -8q-86 0 -139 60v-251l-84 -10v739h71l7 -74q61 85 157 85q191 0 191 -274z" unicode="ҏ"/>
<glyph glyph-name="uni0490" d="M460 835h84v-146l-9 -77h-312v-612h-87v689h324v146z" unicode="Ґ"/>
<glyph glyph-name="uni0491" d="M439 659h85v-132l-10 -71h-272v-456h-84v527h281v132z" unicode="ґ"/>
<glyph glyph-name="uni0492" d="M566 612h-313v-179h158v-67h-158v-366h-86v366h-101v67h101v256h408z" unicode="Ғ"/>
<glyph glyph-name="uni0493" d="M545 456h-273v-154h125v-67h-125v-235h-84v235h-94v67h94v225h367z" unicode="ғ"/>
<glyph glyph-name="uni0494" d="M353 450q90 0 143 -57.5t53 -157.5v-235v-61q0 -73 -38.5 -111.5t-106.5 -38.5q-63 0 -112 37l33 57q37 -24 76 -24q62 0 62 75v67v233q0 140 -125 140q-95 0 -167 -80v-294h-86v689h86h298l-11 -73h-287v-242q73 76 182 76z" unicode="Ҕ"/>
<glyph glyph-name="uni0495" d="M497 -61q0 -73 -39.5 -111.5t-106.5 -38.5q-64 0 -113 37l33 54q42 -23 76 -23q66 0 66 75v68v185q0 98 -85 98q-75 0 -141 -84l-1 1v-200h-84v527h322l-10 -67h-228v-187q64 76 160 76q66 0 108.5 -42t42.5 -114v-254z" unicode="ҕ"/>
<glyph glyph-name="uni0496" d="M563 73h47v-220h-71l-15 147h-24l1 4l-102 323h-60v-327h-78v327h-61l-104 -327h-84l123 364l-108 325h83l91 -291h60v291h78v-291h60l92 291h82l-108 -325z" unicode="Җ"/>
<glyph glyph-name="uni0497" d="M547 69h54v-216h-61l-14 147h-35l-100 247h-54v-247h-74v247h-57l-99 -247h-83l118 283l-108 244h85l88 -215h56v215h74v-215h56l91 215h82l-108 -244z" unicode="җ"/>
<glyph glyph-name="uni0498" d="M541 205q0 -87 -61.5 -146t-165.5 -69v-47q46 -4 69.5 -27.5t23.5 -55.5q0 -47 -35.5 -72.5t-86.5 -25.5q-63 0 -105 24l27 48q30 -16 67 -16q60 0 60 41q0 26 -21 35t-65 9l6 86q-134 9 -219 97l54 49q82 -73 189 -73q80 0 124.5 37t44.5 103t-44 98.5t-117 32.5h-121 l10 73h105q63 0 105.5 28.5t42.5 84.5q0 53 -41.5 81.5t-107.5 28.5q-96 0 -182 -66l-48 51q103 86 232 86q108 0 172 -50t64 -130q0 -61 -40 -98.5t-102 -46.5q70 -6 118 -50.5t48 -119.5z" unicode="Ҙ"/>
<glyph glyph-name="uni0499" d="M517 157q0 -72 -53.5 -114.5t-142.5 -51.5v-48q46 -4 69.5 -27.5t23.5 -55.5q0 -47 -35.5 -72.5t-86.5 -25.5q-63 0 -105 24l27 48q30 -16 67 -16q60 0 60 41q0 26 -21 35t-65 9l6 86q-121 4 -207 73l40 54q81 -58 187 -58q71 0 108 26t37 71q0 86 -134 86h-106l5 68h95 q53 0 83.5 22t30.5 58q0 81 -124 81q-88 0 -163 -46l-40 50q85 64 206 64q91 0 150 -37.5t59 -106.5q0 -82 -107 -113q51 -1 93.5 -35t42.5 -89z" unicode="ҙ"/>
<glyph glyph-name="uni049A" d="M536 73h51v-220h-69l-14 147h-22l-221 326h-80v-326h-86v689h86v-290h81l212 290h94l-232 -325z" unicode="Қ"/>
<glyph glyph-name="uni049B" d="M519 69h68v-216h-70l-14 147h-36l-174 245h-103v-245h-84v527h84v-214h105l152 214h95l-178 -244z" unicode="қ"/>
<glyph glyph-name="uni049C" d="M228 150v176h-48v-326h-85v689h85v-291h48v172h54v-172h26l169 291h91l-192 -325l211 -364h-97l-182 326h-26v-176h-54z" unicode="Ҝ"/>
<glyph glyph-name="uni049D" d="M106 0v527h85v-212h45v115h46v-115h28l144 212h88l-164 -243l191 -284h-92l-167 244h-28v-124h-46v124h-45v-244h-85z" unicode="ҝ"/>
<glyph glyph-name="uni049E" d="M353 364l231 -364h-105l-201 326h-80v-326h-86v523h-75v70h75v96h86v-96h115v-70h-115v-124h82l191 290h94z" unicode="Ҟ"/>
<glyph glyph-name="uni049F" d="M357 283l204 -283h-102l-174 245h-83v-245h-84v567h-79v68h79v104l84 10v-114h149v-68h-149v-254h85l152 214h95z" unicode="ҟ"/>
<glyph glyph-name="uni04A0" d="M289 325h-69v-325h-88v612h-121v77h209v-290h71l195 290h94l-215 -325l234 -364h-105z" unicode="Ҡ"/>
<glyph glyph-name="uni04A1" d="M382 283l206 -283h-102l-175 245h-94v-245h-84v462h-125v65h209v-214h95l154 214h94z" unicode="ҡ"/>
<glyph glyph-name="uni04A2" d="M517 73h61v-220h-69l-14 147h-65v327h-260v-327h-87v689h87v-291h260v291h87v-616z" unicode="Ң"/>
<glyph glyph-name="uni04A3" d="M485 69h81v-216h-69l-15 147h-81v234h-231v-234h-84v527h84v-224h231v224h84v-458z" unicode="ң"/>
<glyph glyph-name="uni04A4" d="M604 689l-8 -72h-134v-617h-87v327h-221v-327h-86v689h86v-291h221v291h87h142z" unicode="Ҥ"/>
<glyph glyph-name="uni04A5" d="M602 527l-8 -69h-136v-458h-84v234h-201v-234h-84v527h84v-224h201v224h228z" unicode="ҥ"/>
<glyph glyph-name="uni04A6" d="M449 451q66 0 105 -42.5t39 -114.5v-294v-58q0 -74 -40 -113.5t-105 -39.5q-64 0 -113 37l34 57q39 -23 75 -23q62 0 62 75v66v294q0 79 -70 79q-46 0 -88 -36v-338h-87v611h-147v-611h-87v689h321v-278q43 40 101 40z" unicode="Ҧ"/>
<glyph glyph-name="uni04A7" d="M466 349q57 0 93.5 -38t36.5 -100v-211v-60q0 -73 -40 -112t-108 -39q-64 0 -113 37l34 55q39 -22 75 -22q67 0 67 75v67v204q0 77 -65 77q-49 0 -90 -39v-243h-86v457h-155v-457h-87v527h328v-220q44 42 110 42z" unicode="ҧ"/>
<glyph glyph-name="uni04A8" d="M345 255q0 -84 60 -171q86 44 88 176q0 101 -72 101q-37 0 -56.5 -28t-19.5 -78zM582 259q0 -70 -34.5 -134.5t-96.5 -100.5q4 -5 33 -41.5t45 -58.5l-57 -43q-18 23 -49.5 62.5t-41.5 52.5q-37 -7 -67 -7q-128 0 -203.5 92.5t-75.5 263.5q0 167 79 261t191 94 q59 0 100.5 -16t83.5 -51l-45 -57q-66 51 -136 51q-77 0 -128 -67.5t-51 -214.5q0 -280 188 -280h13q-71 105 -71 189q0 76 45.5 126.5t116.5 50.5q76 0 118.5 -47.5t42.5 -124.5z" unicode="Ҩ"/>
<glyph glyph-name="uni04A9" d="M342 214q0 -62 50 -136q76 41 76 141q0 37 -16 58.5t-45 21.5q-32 0 -48.5 -23t-16.5 -62zM550 219q0 -59 -31 -111.5t-86 -83.5q12 -15 40 -48.5t43 -51.5l-57 -43q-17 21 -49.5 59.5t-46.5 56.5q-29 -8 -72 -8q-109 0 -171.5 71.5t-62.5 198.5t60.5 203t164.5 76 q69 0 122 -30l-34 -61q-38 20 -84 20q-65 0 -101 -52t-36 -154q0 -203 145 -203h23q-58 88 -58 157q0 63 39.5 106.5t107.5 43.5q66 0 105 -40t39 -106z" unicode="ҩ"/>
<glyph glyph-name="uni04AA" d="M394 -10q74 -48 74 -118q0 -50 -33.5 -80.5t-91.5 -30.5q-57 0 -97 25l22 51q38 -18 70 -18q57 0 57 56q0 69 -76 116q-114 16 -185 108.5t-71 245.5q0 167 84.5 261t210.5 94q64 0 110 -16.5t90 -50.5l-49 -57q-61 51 -145 51q-93 0 -151.5 -67.5t-58.5 -214.5 q0 -146 57 -214t152 -68q87 0 160 57l45 -56q-65 -65 -174 -74z" unicode="Ҫ"/>
<glyph glyph-name="uni04AB" d="M380 -8q77 -48 77 -120q0 -50 -33.5 -80.5t-91.5 -30.5q-57 0 -97 25l22 51q38 -18 70 -18q57 0 57 56q0 66 -74 115q-104 9 -161.5 81.5t-57.5 189.5q0 122 66.5 199.5t181.5 77.5q102 0 176 -62l-41 -55q-69 46 -136 46q-71 0 -113.5 -52.5t-42.5 -153.5t42.5 -150.5 t114.5 -49.5q69 0 137 46l40 -55q-55 -47 -136 -60z" unicode="ҫ"/>
<glyph glyph-name="uni04AC" d="M550 614h-208v-541h61v-220h-69l-14 147h-65v614h-215v75h519z" unicode="Ҭ"/>
<glyph glyph-name="uni04AD" d="M530 457h-188v-388h81v-216h-70l-14 147h-81v457h-193v70h476z" unicode="ҭ"/>
<glyph glyph-name="uni04AE" d="M344 266v-266h-88v265l-233 424h96l183 -346l185 346h90z" unicode="Ү"/>
<glyph glyph-name="uni04AF" d="M259 -212v228l-201 511h89l155 -430l153 430h87l-201 -511v-218z" unicode="ү"/>
<glyph glyph-name="uni04B0" d="M577 689l-204 -370h99v-68h-128v-251h-88v251h-128v68h98l-203 370h96l183 -346l185 346h90z" unicode="Ұ"/>
<glyph glyph-name="uni04B1" d="M542 527l-179 -455h83v-68h-105v-206l-82 -10v216h-105v68h83l-179 455h89l155 -430l153 430h87z" unicode="ұ"/>
<glyph glyph-name="uni04B2" d="M526 73h48v-220h-69l-14 147h-22l-171 311l-174 -311h-93l216 367l-198 322h100l151 -265l152 265h93l-195 -317z" unicode="Ҳ"/>
<glyph glyph-name="uni04B3" d="M342 69v-216h-70l-14 147h-36l3 69h117zM152 0h-96l194 278l-171 249h100l122 -196l123 196h97l-171 -245l194 -282h-102l-145 226z" unicode="ҳ"/>
<glyph glyph-name="uni04B4" d="M514 73h50v-220h-71l-15 147h-350v617h-128v72h217h129l-9 -72h-120v-545h208v617h89v-616z" unicode="Ҵ"/>
<glyph glyph-name="uni04B5" d="M495 69h60v-216h-71l-14 147h-345v460h-125v67h211h128l-10 -67h-118v-390h198v457h86v-458z" unicode="ҵ"/>
<glyph glyph-name="uni04B6" d="M517 73h61v-220h-69l-14 147h-65v282q-46 -34 -86 -48.5t-93 -14.5q-90 0 -145 55.5t-55 148.5v266h86v-259q0 -135 136 -135q96 0 157 61v333h87v-616z" unicode="Ҷ"/>
<glyph glyph-name="uni04B7" d="M479 69h81v-216h-69l-15 147h-81v223q-66 -59 -165 -59q-76 0 -115.5 40.5t-39.5 114.5v208h84v-198q0 -53 22 -76t70 -23q39 0 80 16.5t64 43.5v237h84v-458z" unicode="ҷ"/>
<glyph glyph-name="uni04B8" d="M430 689h87v-689h-87v282q-59 -44 -112 -56v-107h-58v100h-9q-90 0 -145 55.5t-55 148.5v266h86v-259q0 -128 123 -134v242h58v-239q65 12 112 57v333z" unicode="Ҹ"/>
<glyph glyph-name="uni04B9" d="M405 527h84v-527h-84v223q-40 -37 -100 -51v-81h-54v73h-11q-76 0 -115.5 40.5t-39.5 114.5v208h84v-198q0 -50 20 -73.5t62 -25.5v159h54v-153q64 13 100 54v237z" unicode="ҹ"/>
<glyph glyph-name="uni04BA" d="M352 450q90 0 143 -57.5t53 -157.5v-235h-87v234q0 140 -124 140q-95 0 -167 -80v-294h-87v689h87v-315q73 76 182 76z" unicode="Һ"/>
<glyph glyph-name="uni04BB" d="M343 477q72 0 114.5 -43t42.5 -117v-317h-84v303q0 107 -89 107q-82 0 -142 -92v-318h-84v738l84 9v-352q59 82 158 82z" unicode="һ"/>
<glyph glyph-name="uni04BC" d="M220 379h265q-10 251 -126 251q-125 0 -139 -251zM567 357q0 -22 -3 -49h-344q3 -128 44 -188.5t106 -60.5q29 0 54.5 8t37.5 15t35 23l41 -52q-74 -64 -167 -64q-106 0 -169.5 81.5t-68.5 237.5q-63 1 -97.5 33.5t-34.5 80.5q0 52 39 105l57 -26q-21 -44 -21 -72 q0 -50 51 -50h6q9 150 70.5 235.5t157.5 85.5q95 0 150.5 -88t55.5 -255z" unicode="Ҽ"/>
<glyph glyph-name="uni04BD" d="M227 298h247q-3 172 -118 172q-56 0 -90 -43.5t-39 -128.5zM555 279q0 -23 -2 -45h-326q2 -86 42 -130.5t102 -44.5q56 0 118 40l40 -53q-69 -57 -159 -57q-100 0 -160 66.5t-67 179.5q-65 1 -98.5 31t-33.5 80q0 44 39 102l53 -27q-20 -44 -20 -71q0 -52 51 -52h10 q8 106 65 173t146 67q95 0 147.5 -69t52.5 -190z" unicode="ҽ"/>
<glyph glyph-name="uni04BE" d="M220 379h265q-10 251 -126 251q-125 0 -139 -251zM567 357q0 -22 -3 -49h-344q3 -128 44 -188.5t106 -60.5q29 0 54.5 8t37.5 15t35 23l41 -52q-44 -38 -91 -53q-72 -31 -98 -58t-26 -56q0 -48 56 -48q27 0 61 7l-8 -68q-42 -6 -64 -6q-56 0 -89 27.5t-33 70.5 q0 74 88 122q-90 14 -143.5 94.5t-57.5 222.5q-63 1 -97.5 33.5t-34.5 80.5q0 52 39 105l57 -26q-21 -44 -21 -72q0 -50 51 -50h6q9 150 70.5 235.5t157.5 85.5q95 0 150.5 -88t55.5 -255z" unicode="Ҿ"/>
<glyph glyph-name="uni04BF" d="M227 298h247q-3 172 -118 172q-56 0 -90 -43.5t-39 -128.5zM555 279q0 -23 -2 -45h-326q2 -86 42 -130.5t102 -44.5q56 0 118 40l40 -53q-39 -32 -85 -46q-72 -31 -98 -58t-26 -56q0 -48 56 -48q27 0 61 7l-8 -68q-42 -6 -64 -6q-56 0 -89 27.5t-33 70.5q0 74 88 122 q-83 13 -132.5 78t-55.5 166q-65 1 -98.5 31t-33.5 80q0 44 39 102l53 -27q-20 -44 -20 -71q0 -52 51 -52h10q8 106 65 173t146 67q95 0 147.5 -69t52.5 -190z" unicode="ҿ"/>
<glyph glyph-name="uni04C0" d="M497 689v-70h-153v-550h153v-69h-394v69h153v550h-153v70h394z" unicode="Ӏ"/>
<glyph glyph-name="uni04C1" d="M261 327h-61l-104 -327h-84l123 364l-108 325h83l91 -291h60v291h78v-291h60l92 291h82l-108 -325l123 -364h-86l-103 327h-60v-327h-78v327zM298 773q-59 0 -100 29.5t-47 82.5l57 13q20 -60 90 -60q73 0 93 60l58 -13q-6 -53 -48.5 -82.5t-102.5 -29.5z" unicode="Ӂ"/>
<glyph glyph-name="uni04C2" d="M263 0v247h-57l-104 -247h-82l122 283l-113 244h86l92 -215h56v215h74v-215h56l95 215h83l-113 -244l122 -283h-85l-104 247h-54v-247h-74zM298 647q-59 0 -100 29.5t-47 82.5l57 13q20 -60 90 -60q73 0 93 60l58 -13q-6 -53 -48.5 -82.5t-102.5 -29.5z" unicode="ӂ"/>
<glyph glyph-name="uni04C3" d="M351 384q181 -19 181 -213v-171v-61q0 -73 -38.5 -111.5t-106.5 -38.5q-65 0 -112 37l33 57q37 -24 75 -24q62 0 62 75v67v169q0 142 -131 142v9l-5 -9h-139v-312h-87v689h87v-304h99l172 304h93z" unicode="Ӄ"/>
<glyph glyph-name="uni04C4" d="M342 300q146 -14 146 -164v-136v-61q0 -73 -39.5 -111.5t-106.5 -38.5q-63 0 -112 37l33 54q41 -23 76 -23q65 0 65 75v69v124q0 60 -24.5 84t-84.5 24h-104v-233h-84v527h84v-226h68l141 226h91z" unicode="ӄ"/>
<glyph glyph-name="uni04C5" d="M491 69h90l-78 -216h-68l35 147h-66v614h-155l-25 -204q-19 -156 -42 -239t-48 -115t-77 -67l-38 64q29 24 43.5 44.5t35 92t36.5 196.5l39 303h318v-620z" unicode="Ӆ"/>
<glyph glyph-name="uni04C6" d="M480 66h77l-66 -213h-69l35 147h-61v456h-167l-12 -139q-10 -118 -25.5 -179.5t-40 -91t-74.5 -57.5l-35 54q28 18 43 37t29 76t22 158l16 213h328v-461z" unicode="ӆ"/>
<glyph glyph-name="uni04C7" d="M517 -61q0 -73 -38.5 -111.5t-106.5 -38.5q-64 0 -113 37l34 57q37 -24 75 -24q62 0 62 75v66v327h-260v-327h-87v689h87v-291h260v291h87v-750z" unicode="Ӈ"/>
<glyph glyph-name="uni04C8" d="M500 -61q0 -73 -39.5 -111.5t-106.5 -38.5q-64 0 -113 37l34 54q41 -23 75 -23q66 0 66 75v68v234h-232v-234h-84v527h84v-224h232v224h84v-588z" unicode="ӈ"/>
<glyph glyph-name="uni04C9" d="M487 69h90l-78 -216h-68l35 147h-66v327h-241v-327h-87v689h87v-291h241v291h87v-620z" unicode="Ӊ"/>
<glyph glyph-name="uni04CA" d="M482 66h78l-66 -213h-69l35 147h-62v234h-212v-234h-84v527h84v-224h212v224h84v-461z" unicode="ӊ"/>
<glyph glyph-name="uni04CB" d="M430 689h87v-689h-63l-14 -147h-69v220h59v209q-46 -34 -86 -48.5t-93 -14.5q-90 0 -145 55.5t-55 148.5v266h86v-259q0 -135 136 -135q96 0 157 61v333z" unicode="Ӌ"/>
<glyph glyph-name="uni04CC" d="M405 527h84v-527h-70l-15 -147h-69v216h70v161q-66 -59 -165 -59q-76 0 -115.5 40.5t-39.5 114.5v201h84v-191q0 -52 22 -75t70 -23q39 0 80 16.5t64 43.5v229z" unicode="ӌ"/>
<glyph glyph-name="uni04CD" d="M525 69h79l-77 -216h-71l35 147h-45l-22 360q-5 93 -5 211v32l-102 -479h-87l-108 479v-58q0 -128 -3 -185l-19 -360h-81l39 689h121l97 -472l92 472h122z" unicode="Ӎ"/>
<glyph glyph-name="uni04CE" d="M525 66h72l-66 -213h-68l34 147h-49l-20 257q-5 70 -5 135q0 39 1 60l-89 -364h-84l-101 364q1 -23 1 -70q0 -69 -3 -123l-15 -259h-81l38 527h110l94 -360l86 360h111z" unicode="ӎ"/>
<glyph glyph-name="uni04CF" d="M306 739v-609q0 -71 87 -71q41 0 88 18l22 -61q-50 -27 -125 -27q-71 0 -113.5 39t-42.5 106v538h-162v67h246z" unicode="ӏ"/>
<glyph glyph-name="uni04D0" d="M184 248h227l-113 367zM434 176h-273l-55 -176h-86l225 689h110l224 -689h-90zM298 773q-59 0 -100 29.5t-47 82.5l57 13q20 -60 90 -60q73 0 93 60l58 -13q-6 -53 -48.5 -82.5t-102.5 -29.5z" unicode="Ӑ"/>
<glyph glyph-name="uni04D1" d="M260 52q39 0 74.5 20t58.5 55v135h-76q-158 0 -158 -110q0 -100 101 -100zM478 115q0 -31 10 -45.5t33 -21.5l-21 -60q-77 10 -96 75q-57 -74 -165 -74q-79 0 -124.5 44t-45.5 118q0 81 63.5 125t182.5 44h78v43q0 105 -125 105q-60 0 -137 -27l-23 64q93 33 173 33 q96 0 146.5 -45t50.5 -125v-253zM290 647q-59 0 -100 29.5t-47 82.5l57 13q20 -60 90 -60q73 0 93 60l58 -13q-6 -53 -48.5 -82.5t-102.5 -29.5z" unicode="ӑ"/>
<glyph glyph-name="uni04D2" d="M184 248h227l-113 367zM434 176h-273l-55 -176h-86l225 689h110l224 -689h-90zM403 767q-23 0 -38.5 15t-15.5 38q0 24 15.5 39.5t38.5 15.5t39 -15.5t16 -39.5q0 -22 -16 -37.5t-39 -15.5zM196 767q-23 0 -39 15.5t-16 37.5q0 24 16 39.5t39 15.5t38.5 -15.5t15.5 -39.5 q0 -23 -15.5 -38t-38.5 -15z" unicode="Ӓ"/>
<glyph glyph-name="uni04D3" d="M260 52q39 0 74.5 20t58.5 55v135h-76q-158 0 -158 -110q0 -100 101 -100zM478 115q0 -31 10 -45.5t33 -21.5l-21 -60q-77 10 -96 75q-57 -74 -165 -74q-79 0 -124.5 44t-45.5 118q0 81 63.5 125t182.5 44h78v43q0 105 -125 105q-60 0 -137 -27l-23 64q93 33 173 33 q96 0 146.5 -45t50.5 -125v-253zM395 648q-23 0 -38.5 15t-15.5 38q0 24 15.5 39.5t38.5 15.5t39 -15.5t16 -39.5q0 -22 -16 -37.5t-39 -15.5zM188 648q-23 0 -39 15.5t-16 37.5q0 24 16 39.5t39 15.5t38.5 -15.5t15.5 -39.5q0 -23 -15.5 -38t-38.5 -15z" unicode="ӓ"/>
<glyph glyph-name="uni04D4" d="M148 248h166l-73 372zM330 175h-204l-49 -175h-89l202 689h376l-10 -71h-236l51 -233h186v-71h-173l52 -243h171v-71h-241z" unicode="Ӕ"/>
<glyph glyph-name="uni04D5" d="M254 262h-42q-69 0 -98 -27.5t-29 -78.5q0 -50 20 -76.5t54 -26.5q31 0 55.5 23t53.5 74q-14 45 -14 112zM432 468q-46 0 -68 -38t-28 -131h189q-2 86 -23 127.5t-70 41.5zM435 538q172 0 172 -259q0 -22 -2 -46h-269q7 -91 33.5 -132.5t79.5 -41.5q47 0 99 40l39 -58 q-67 -52 -140 -52q-98 0 -148 89q-35 -48 -69.5 -68.5t-83.5 -20.5q-70 0 -111 44t-41 118q0 83 54.5 126t159.5 43h46v43q0 105 -91 105q-42 0 -105 -27l-22 63q71 34 135 34q103 0 138 -88q14 41 46.5 64.5t79.5 23.5z" unicode="ӕ"/>
<glyph glyph-name="uni04D6" d="M212 617v-232h256v-71h-256v-244h314v-70h-400v689h391l-10 -72h-295zM319 773q-59 0 -100 29.5t-47 82.5l57 13q20 -60 90 -60q73 0 93 60l58 -13q-6 -53 -48.5 -82.5t-102.5 -29.5z" unicode="Ӗ"/>
<glyph glyph-name="uni04D7" d="M309 469q-61 0 -99 -43.5t-43 -127.5h274q-1 83 -36 127t-96 44zM167 234q3 -87 45.5 -131t107.5 -44q70 0 141 47l39 -56q-79 -61 -180 -61q-114 0 -177.5 74.5t-63.5 199.5q0 121 62.5 198t166.5 77q100 0 157.5 -69.5t57.5 -189.5q0 -23 -2 -45h-354zM308 647 q-59 0 -100 29.5t-47 82.5l57 13q20 -60 90 -60q73 0 93 60l58 -13q-6 -53 -48.5 -82.5t-102.5 -29.5z" unicode="ӗ"/>
<glyph glyph-name="uni04D8" d="M298 60q151 0 164 249h-333q6 -133 47 -191t122 -58zM45 331q0 14 2 50h415q-8 249 -172 249q-78 0 -157 -58l-45 51q91 77 205 77q126 0 192 -87.5t66 -259.5q0 -171 -68 -267.5t-186 -96.5q-119 0 -185.5 87t-66.5 255z" unicode="Ә"/>
<glyph glyph-name="uni04D9" d="M294 57q68 0 102.5 39.5t38.5 131.5h-279v-8q0 -78 36.5 -120.5t101.5 -42.5zM292 538q119 0 176 -72t57 -202q0 -129 -61.5 -202t-169.5 -73q-103 0 -162 68.5t-59 189.5q0 32 2 46h359q-5 91 -40 132.5t-104 41.5q-81 0 -139 -49l-40 58q78 62 181 62z" unicode="ә"/>
<glyph glyph-name="uni04DA" d="M298 60q151 0 164 249h-333q6 -133 47 -191t122 -58zM45 331q0 14 2 50h415q-8 249 -172 249q-78 0 -157 -58l-45 51q91 77 205 77q126 0 192 -87.5t66 -259.5q0 -171 -68 -267.5t-186 -96.5q-119 0 -185.5 87t-66.5 255zM396 767q-23 0 -38.5 15t-15.5 38 q0 24 15.5 39.5t38.5 15.5t39 -15.5t16 -39.5q0 -22 -16 -37.5t-39 -15.5zM189 767q-23 0 -39 15.5t-16 37.5q0 24 16 39.5t39 15.5t38.5 -15.5t15.5 -39.5q0 -23 -15.5 -38t-38.5 -15z" unicode="Ӛ"/>
<glyph glyph-name="uni04DB" d="M294 57q68 0 102.5 39.5t38.5 131.5h-279v-8q0 -78 36.5 -120.5t101.5 -42.5zM292 538q119 0 176 -72t57 -202q0 -129 -61.5 -202t-169.5 -73q-103 0 -162 68.5t-59 189.5q0 32 2 46h359q-5 91 -40 132.5t-104 41.5q-81 0 -139 -49l-40 58q78 62 181 62zM403 648 q-23 0 -38.5 15t-15.5 38q0 24 15.5 39.5t38.5 15.5t39 -15.5t16 -39.5q0 -22 -16 -37.5t-39 -15.5zM196 648q-23 0 -39 15.5t-16 37.5q0 24 16 39.5t39 15.5t38.5 -15.5t15.5 -39.5q0 -23 -15.5 -38t-38.5 -15z" unicode="ӛ"/>
<glyph glyph-name="uni04DC" d="M261 327h-61l-104 -327h-84l123 364l-108 325h83l91 -291h60v291h78v-291h60l92 291h82l-108 -325l123 -364h-86l-103 327h-60v-327h-78v327zM403 767q-23 0 -38.5 15t-15.5 38q0 24 15.5 39.5t38.5 15.5t39 -15.5t16 -39.5q0 -22 -16 -37.5t-39 -15.5zM196 767 q-23 0 -39 15.5t-16 37.5q0 24 16 39.5t39 15.5t38.5 -15.5t15.5 -39.5q0 -23 -15.5 -38t-38.5 -15z" unicode="Ӝ"/>
<glyph glyph-name="uni04DD" d="M263 0v247h-57l-104 -247h-82l122 283l-113 244h86l92 -215h56v215h74v-215h56l95 215h83l-113 -244l122 -283h-85l-104 247h-54v-247h-74zM403 648q-23 0 -38.5 15t-15.5 38q0 24 15.5 39.5t38.5 15.5t39 -15.5t16 -39.5q0 -22 -16 -37.5t-39 -15.5zM196 648 q-23 0 -39 15.5t-16 37.5q0 24 16 39.5t39 15.5t38.5 -15.5t15.5 -39.5q0 -23 -15.5 -38t-38.5 -15z" unicode="ӝ"/>
<glyph glyph-name="uni04DE" d="M281 700q108 0 172 -50t64 -130q0 -61 -40 -98.5t-102 -46.5q70 -6 118 -50.5t48 -119.5q0 -95 -71.5 -155.5t-191.5 -60.5q-151 0 -243 97l54 49q82 -73 189 -73q80 0 124.5 37t44.5 103t-44 98.5t-117 32.5h-121l10 73h105q63 0 105.5 28.5t42.5 84.5q0 53 -41.5 81.5 t-107.5 28.5q-96 0 -182 -66l-48 51q103 86 232 86zM401 767q-23 0 -38.5 15t-15.5 38q0 24 15.5 39.5t38.5 15.5t39 -15.5t16 -39.5q0 -22 -16 -37.5t-39 -15.5zM194 767q-23 0 -39 15.5t-16 37.5q0 24 16 39.5t39 15.5t38.5 -15.5t15.5 -39.5q0 -23 -15.5 -38t-38.5 -15z " unicode="Ӟ"/>
<glyph glyph-name="uni04DF" d="M191 309h95q53 0 83.5 22t30.5 58q0 81 -124 81q-88 0 -163 -46l-40 50q85 64 206 64q91 0 150 -37.5t59 -106.5q0 -82 -107 -113q51 -1 93.5 -35t42.5 -89q0 -81 -66 -124.5t-173 -43.5q-135 0 -224 73l40 54q81 -58 187 -58q71 0 108 26t37 71q0 86 -134 86h-106z M397 648q-23 0 -38.5 15t-15.5 38q0 24 15.5 39.5t38.5 15.5t39 -15.5t16 -39.5q0 -22 -16 -37.5t-39 -15.5zM190 648q-23 0 -39 15.5t-16 37.5q0 24 16 39.5t39 15.5t38.5 -15.5t15.5 -39.5q0 -23 -15.5 -38t-38.5 -15z" unicode="ӟ"/>
<glyph glyph-name="uni04E0" d="M295 400q122 0 178.5 -52t56.5 -143q0 -97 -67.5 -156.5t-180.5 -59.5q-71 0 -119 18.5t-93 55.5l45 55q41 -29 77.5 -42.5t90.5 -13.5q76 0 116 38t40 107q0 124 -141 124h-120v64l222 221h-303v73h404v-73l-223 -216h17z" unicode="Ӡ"/>
<glyph glyph-name="uni04E1" d="M280 205q112 0 174.5 -51t62.5 -148q0 -98 -66.5 -158t-171.5 -60q-141 0 -217 91l51 45q36 -35 73.5 -50.5t91.5 -15.5q70 0 109 39t39 112q0 70 -39.5 101t-120.5 31h-87v63l218 251h-304v72h401v-66l-225 -256h11z" unicode="ӡ"/>
<glyph glyph-name="uni04E2" d="M83 0v689h86v-349q0 -145 -14 -263l250 612h112v-689h-86v349q0 133 14 257l-248 -606h-114zM434 795h-269v64h269v-64z" unicode="Ӣ"/>
<glyph glyph-name="uni04E3" d="M500 527v-527h-84v246q0 42 2 85t4 69l3 27l-222 -427h-103v527h84v-247q0 -36 -2 -78.5t-4 -70t-2 -28.5l219 424h105zM434 676h-269v64h269v-64z" unicode="ӣ"/>
<glyph glyph-name="uni04E4" d="M83 0v689h86v-349q0 -145 -14 -263l250 612h112v-689h-86v349q0 133 14 257l-248 -606h-114zM403 767q-23 0 -38.5 15t-15.5 38q0 24 15.5 39.5t38.5 15.5t39 -15.5t16 -39.5q0 -22 -16 -37.5t-39 -15.5zM196 767q-23 0 -39 15.5t-16 37.5q0 24 16 39.5t39 15.5 t38.5 -15.5t15.5 -39.5q0 -23 -15.5 -38t-38.5 -15z" unicode="Ӥ"/>
<glyph glyph-name="uni04E5" d="M500 527v-527h-84v246q0 42 2 85t4 69l3 27l-222 -427h-103v527h84v-247q0 -36 -2 -78.5t-4 -70t-2 -28.5l219 424h105zM403 648q-23 0 -38.5 15t-15.5 38q0 24 15.5 39.5t38.5 15.5t39 -15.5t16 -39.5q0 -22 -16 -37.5t-39 -15.5zM196 648q-23 0 -39 15.5t-16 37.5 q0 24 16 39.5t39 15.5t38.5 -15.5t15.5 -39.5q0 -23 -15.5 -38t-38.5 -15z" unicode="ӥ"/>
<glyph glyph-name="uni04E6" d="M463 344q0 141 -39 212t-124 71t-124 -71.5t-39 -212.5q0 -281 163 -281q85 0 124 70.5t39 211.5zM553 344q0 -161 -65.5 -258t-187.5 -97q-123 0 -188 95t-65 259q0 161 65.5 259t187.5 98t187.5 -96.5t65.5 -259.5zM403 767q-23 0 -38.5 15t-15.5 38q0 24 15.5 39.5 t38.5 15.5t39 -15.5t16 -39.5q0 -22 -16 -37.5t-39 -15.5zM196 767q-23 0 -39 15.5t-16 37.5q0 24 16 39.5t39 15.5t38.5 -15.5t15.5 -39.5q0 -23 -15.5 -38t-38.5 -15z" unicode="Ӧ"/>
<glyph glyph-name="uni04E7" d="M301 469q-137 0 -137 -206q0 -205 136 -205t136 206q0 205 -135 205zM301 538q109 0 167.5 -73.5t58.5 -200.5q0 -124 -59.5 -199.5t-167.5 -75.5q-109 0 -168 73.5t-59 200.5q0 125 59.5 200t168.5 75zM403 648q-23 0 -38.5 15t-15.5 38q0 24 15.5 39.5t38.5 15.5 t39 -15.5t16 -39.5q0 -22 -16 -37.5t-39 -15.5zM196 648q-23 0 -39 15.5t-16 37.5q0 24 16 39.5t39 15.5t38.5 -15.5t15.5 -39.5q0 -23 -15.5 -38t-38.5 -15z" unicode="ӧ"/>
<glyph glyph-name="uni04E8" d="M300 62q81 0 119.5 64t41.5 192h-323q6 -256 162 -256zM300 627q-78 0 -116.5 -60.5t-44.5 -182.5h321q-5 122 -43.5 182.5t-116.5 60.5zM553 344q0 -161 -65.5 -258t-187.5 -97q-123 0 -188 95t-65 259q0 161 65.5 259t187.5 98t187.5 -96.5t65.5 -259.5z" unicode="Ө"/>
<glyph glyph-name="uni04E9" d="M435 234h-269q6 -91 39 -133.5t95 -42.5q123 0 135 176zM301 469q-127 0 -136 -167h270q-9 167 -134 167zM301 538q109 0 167.5 -73.5t58.5 -200.5q0 -124 -59.5 -199.5t-167.5 -75.5q-109 0 -168 73.5t-59 200.5q0 125 59.5 200t168.5 75z" unicode="ө"/>
<glyph glyph-name="uni04EA" d="M300 62q81 0 119.5 64t41.5 192h-323q6 -256 162 -256zM300 627q-78 0 -116.5 -60.5t-44.5 -182.5h321q-5 122 -43.5 182.5t-116.5 60.5zM553 344q0 -161 -65.5 -258t-187.5 -97q-123 0 -188 95t-65 259q0 161 65.5 259t187.5 98t187.5 -96.5t65.5 -259.5zM403 767 q-23 0 -38.5 15t-15.5 38q0 24 15.5 39.5t38.5 15.5t39 -15.5t16 -39.5q0 -22 -16 -37.5t-39 -15.5zM196 767q-23 0 -39 15.5t-16 37.5q0 24 16 39.5t39 15.5t38.5 -15.5t15.5 -39.5q0 -23 -15.5 -38t-38.5 -15z" unicode="Ӫ"/>
<glyph glyph-name="uni04EB" d="M435 234h-269q6 -91 39 -133.5t95 -42.5q123 0 135 176zM301 469q-127 0 -136 -167h270q-9 167 -134 167zM301 538q109 0 167.5 -73.5t58.5 -200.5q0 -124 -59.5 -199.5t-167.5 -75.5q-109 0 -168 73.5t-59 200.5q0 125 59.5 200t168.5 75zM404 648q-23 0 -38.5 15 t-15.5 38q0 24 15.5 39.5t38.5 15.5t39 -15.5t16 -39.5q0 -22 -16 -37.5t-39 -15.5zM197 648q-23 0 -39 15.5t-16 37.5q0 24 16 39.5t39 15.5t38.5 -15.5t15.5 -39.5q0 -23 -15.5 -38t-38.5 -15z" unicode="ӫ"/>
<glyph glyph-name="uni04EC" d="M269 700q127 0 198.5 -88t71.5 -259q0 -177 -74 -270.5t-204 -93.5q-134 0 -219 88l52 49q73 -65 162 -65q181 0 193 256h-303v74h303q-7 126 -53 182t-131 56q-89 0 -167 -65l-48 51q98 85 219 85zM392 767q-23 0 -38.5 15t-15.5 38q0 24 15.5 39.5t38.5 15.5t39 -15.5 t16 -39.5q0 -22 -16 -37.5t-39 -15.5zM185 767q-23 0 -39 15.5t-16 37.5q0 24 16 39.5t39 15.5t38.5 -15.5t15.5 -39.5q0 -23 -15.5 -38t-38.5 -15z" unicode="Ӭ"/>
<glyph glyph-name="uni04ED" d="M278 538q118 0 178 -72t60 -200q0 -127 -63 -202t-180 -75q-106 0 -182 62l41 56q64 -48 140 -48q147 0 157 178h-248v66h247q-15 167 -151 167q-78 0 -141 -47l-40 54q73 61 182 61zM397 648q-23 0 -38.5 15t-15.5 38q0 24 15.5 39.5t38.5 15.5t39 -15.5t16 -39.5 q0 -22 -16 -37.5t-39 -15.5zM190 648q-23 0 -39 15.5t-16 37.5q0 24 16 39.5t39 15.5t38.5 -15.5t15.5 -39.5q0 -23 -15.5 -38t-38.5 -15z" unicode="ӭ"/>
<glyph glyph-name="uni04EE" d="M580 689l-211 -509q-37 -91 -90 -134.5t-157 -56.5l-13 69q87 13 123.5 41.5t58.5 90.5h-37l-228 499h91l196 -443l180 443h87zM444 795h-269v64h269v-64z" unicode="Ӯ"/>
<glyph glyph-name="uni04EF" d="M538 527l-184 -530q-31 -91 -85 -145t-151 -64l-12 67q76 13 110.5 46t56.5 99h-28l-183 527h89l151 -463l149 463h87zM434 676h-269v64h269v-64z" unicode="ӯ"/>
<glyph glyph-name="uni04F0" d="M580 689l-211 -509q-37 -91 -90 -134.5t-157 -56.5l-13 69q87 13 123.5 41.5t58.5 90.5h-37l-228 499h91l196 -443l180 443h87zM413 767q-23 0 -38.5 15t-15.5 38q0 24 15.5 39.5t38.5 15.5t39 -15.5t16 -39.5q0 -22 -16 -37.5t-39 -15.5zM206 767q-23 0 -39 15.5 t-16 37.5q0 24 16 39.5t39 15.5t38.5 -15.5t15.5 -39.5q0 -23 -15.5 -38t-38.5 -15z" unicode="Ӱ"/>
<glyph glyph-name="uni04F1" d="M538 527l-184 -530q-31 -91 -85 -145t-151 -64l-12 67q76 13 110.5 46t56.5 99h-28l-183 527h89l151 -463l149 463h87zM403 648q-23 0 -38.5 15t-15.5 38q0 24 15.5 39.5t38.5 15.5t39 -15.5t16 -39.5q0 -22 -16 -37.5t-39 -15.5zM196 648q-23 0 -39 15.5t-16 37.5 q0 24 16 39.5t39 15.5t38.5 -15.5t15.5 -39.5q0 -23 -15.5 -38t-38.5 -15z" unicode="ӱ"/>
<glyph glyph-name="uni04F2" d="M580 689l-211 -509q-37 -91 -90 -134.5t-157 -56.5l-13 69q87 13 123.5 41.5t58.5 90.5h-37l-228 499h91l196 -443l180 443h87zM357 781l87 174l74 -39l-108 -163zM192 781l78 174l75 -36l-97 -164z" unicode="Ӳ"/>
<glyph glyph-name="uni04F3" d="M538 527l-184 -530q-31 -91 -85 -145t-151 -64l-12 67q76 13 110.5 46t56.5 99h-28l-183 527h89l151 -463l149 463h87zM341 662l87 174l74 -39l-108 -163zM176 662l78 174l75 -36l-97 -164z" unicode="ӳ"/>
<glyph glyph-name="uni04F4" d="M430 689h87v-689h-87v282q-46 -34 -86 -48.5t-93 -14.5q-90 0 -145 55.5t-55 148.5v266h86v-259q0 -135 136 -135q96 0 157 61v333zM392 767q-23 0 -38.5 15t-15.5 38q0 24 15.5 39.5t38.5 15.5t39 -15.5t16 -39.5q0 -22 -16 -37.5t-39 -15.5zM185 767q-23 0 -39 15.5 t-16 37.5q0 24 16 39.5t39 15.5t38.5 -15.5t15.5 -39.5q0 -23 -15.5 -38t-38.5 -15z" unicode="Ӵ"/>
<glyph glyph-name="uni04F5" d="M489 527v-527h-84v223q-66 -59 -165 -59q-76 0 -115.5 40.5t-39.5 114.5v208h84v-198q0 -53 22 -76t70 -23q39 0 80 16.5t64 43.5v237h84zM390 648q-23 0 -38.5 15t-15.5 38q0 24 15.5 39.5t38.5 15.5t39 -15.5t16 -39.5q0 -22 -16 -37.5t-39 -15.5zM183 648 q-23 0 -39 15.5t-16 37.5q0 24 16 39.5t39 15.5t38.5 -15.5t15.5 -39.5q0 -23 -15.5 -38t-38.5 -15z" unicode="ӵ"/>
<glyph glyph-name="uni04F6" d="M535 612h-312v-539h59v-220h-69l-14 147h-63v689h408z" unicode="Ӷ"/>
<glyph glyph-name="uni04F7" d="M514 456h-272v-387h81v-216h-70l-14 147h-81v527h366z" unicode="ӷ"/>
<glyph glyph-name="uni04F8" d="M191 367h-72v-298h74q72 0 108.5 35.5t36.5 115.5q0 147 -147 147zM569 689v-689h-88v689h88zM119 689v-256h63q248 0 248 -212q0 -110 -63.5 -165.5t-182.5 -55.5h-153v689h88zM403 767q-23 0 -38.5 15t-15.5 38q0 24 15.5 39.5t38.5 15.5t39 -15.5t16 -39.5 q0 -22 -16 -37.5t-39 -15.5zM196 767q-23 0 -39 15.5t-16 37.5q0 24 16 39.5t39 15.5t38.5 -15.5t15.5 -39.5q0 -23 -15.5 -38t-38.5 -15z" unicode="Ӹ"/>
<glyph glyph-name="uni04F9" d="M181 293h-39v-228h39q67 0 100.5 26t33.5 91q0 59 -32 85t-102 26zM538 527v-527h-81v527h81zM142 527v-171h36q224 0 224 -173q0 -93 -59 -138t-165 -45h-116v527h80zM403 648q-23 0 -38.5 15t-15.5 38q0 24 15.5 39.5t38.5 15.5t39 -15.5t16 -39.5q0 -22 -16 -37.5 t-39 -15.5zM196 648q-23 0 -39 15.5t-16 37.5q0 24 16 39.5t39 15.5t38.5 -15.5t15.5 -39.5q0 -23 -15.5 -38t-38.5 -15z" unicode="ӹ"/>
<glyph glyph-name="uni04FA" d="M574 612h-313v-179h158v-67h-158v-293h60v-72v-62q0 -73 -38.5 -111.5t-106.5 -38.5q-64 0 -113 37l33 57q38 -24 76 -24q62 0 62 75v66h-59v366h-101v67h101v256h408z" unicode="Ӻ"/>
<glyph glyph-name="uni04FB" d="M545 456h-273v-154h125v-67h-125v-166h80v-68v-62q0 -73 -39.5 -111.5t-106.5 -38.5q-64 0 -113 37l33 54q42 -23 76 -23q66 0 66 75v68h-80v235h-94v67h94v225h367z" unicode="ӻ"/>
<glyph glyph-name="uni04FC" d="M576 73v-73v-61q0 -73 -38.5 -111.5t-106.5 -38.5q-63 0 -112 37l33 57q38 -24 76 -24q62 0 62 75v66h-37l-171 311l-174 -311h-93l216 367l-198 322h100l151 -265l152 265h93l-195 -317l176 -299h66z" unicode="Ӽ"/>
<glyph glyph-name="uni04FD" d="M550 69v-69v-61q0 -73 -39 -111.5t-106 -38.5q-64 0 -113 37l33 54q42 -23 76 -23q65 0 65 75v68h-35v1l-144 225l-145 -226h-96l194 278l-171 249h100l122 -196l123 196h97l-171 -245l147 -213h63z" unicode="ӽ"/>
<glyph glyph-name="uni04FE" d="M372 334l197 -334h-100l-171 311l-174 -311h-93l197 334h-156v66h155l-178 289h100l151 -265l152 265h93l-177 -289h160v-66h-156z" unicode="Ӿ"/>
<glyph glyph-name="uni04FF" d="M371 251l173 -251h-102l-142 236l-148 -236h-96l175 251h-122v59h119l-149 217h100l121 -206l124 206h97l-151 -217h121v-59h-120z" unicode="ӿ"/>
<glyph glyph-name="uni0500" d="M304 71h115v287h-112q-166 0 -166 -148q0 -139 163 -139zM303 0q-113 0 -183.5 54t-70.5 156t70 159t190 57h110v263h87v-689h-203z" unicode="Ԁ"/>
<glyph glyph-name="uni0501" d="M296 470q-66 0 -101.5 -52t-35.5 -155q0 -207 127 -207q75 0 130 84v262q-46 68 -120 68zM416 749l84 -10v-739h-74l-8 69q-57 -80 -149 -80q-100 0 -150.5 73t-50.5 201q0 121 55.5 198t150.5 77q87 0 142 -63v274z" unicode="ԁ"/>
<glyph glyph-name="uni0502" d="M180 56q32 0 54.5 21t43.5 65v217h-48q-63 0 -98.5 -42t-35.5 -127q0 -134 84 -134zM580 377q5 -65 5 -127q0 -133 -45.5 -198.5t-119.5 -65.5q-88 0 -124 80q-48 -80 -132 -80q-65 0 -110 53t-45 151q0 113 56.5 174.5t166.5 61.5h46v98v165h87v-198v-336q0 -99 56 -99 q77 0 77 192q0 59 -5 129h87z" unicode="Ԃ"/>
<glyph glyph-name="uni0503" d="M179 58q28 0 51 20t48 66v262q-21 31 -40.5 47t-46.5 16q-43 0 -67.5 -52.5t-24.5 -153.5q0 -205 80 -205zM585 377q5 -65 5 -124q0 -136 -45 -201.5t-122 -65.5q-97 0 -130 95q-49 -92 -122 -92q-78 0 -120 73.5t-42 197.5q0 123 45.5 200.5t121.5 77.5q60 0 102 -53 v264l84 -10v-578q0 -50 16.5 -77.5t45.5 -27.5q39 0 59.5 44t20.5 151q0 56 -5 126h86z" unicode="ԃ"/>
<glyph glyph-name="uni0504" d="M570 380q5 -65 5 -125q0 -136 -48 -201t-130 -65q-63 0 -105 33t-75 105l-79 168h-83v69h72q77 0 116.5 31t39.5 100q0 66 -40 95t-128 29h-90v70h91q127 0 193 -49.5t66 -144.5q0 -141 -150 -184l71 -160q24 -52 46 -73t55 -21q92 0 92 198q0 55 -5 125h86z" unicode="Ԅ"/>
<glyph glyph-name="uni0505" d="M571 377q5 -65 5 -124q0 -135 -51.5 -201t-134.5 -66q-64 0 -106 31.5t-81 100.5l-48 88h-106v65h99q116 0 116 96q0 49 -32 71.5t-98 22.5h-123v66h124q105 0 161 -41t56 -119q0 -106 -118 -146l50 -91q24 -42 49 -58t58 -16q99 0 99 195q0 56 -5 126h86z" unicode="ԅ"/>
<glyph glyph-name="uni0506" d="M490 73h65v-220h-69l-14 147h-37l-188 295h-145v68h152q156 0 156 132q0 66 -37.5 95t-118.5 29h-181v70h171q259 0 259 -194q0 -74 -46 -122.5t-122 -67.5z" unicode="Ԇ"/>
<glyph glyph-name="uni0507" d="M453 69h82v-216h-70l-14 147h-47l-130 205h-159v66h150q116 0 116 96q0 49 -32.5 71.5t-98.5 22.5h-174v66h176q105 0 161 -41t56 -119q0 -107 -117 -146z" unicode="ԇ"/>
<glyph glyph-name="uni0508" d="M582 377q5 -65 5 -127q0 -133 -46 -198.5t-120 -65.5q-62 0 -101.5 44t-39.5 128v366v92h-95l-18 -246q-7 -104 -16.5 -169t-25 -105.5t-29.5 -60t-41 -46.5l-50 60q21 22 31.5 46t22 93.5t22.5 199.5l24 301h261v-355v-179q0 -99 57 -99q77 0 77 192q0 59 -5 129h87z " unicode="Ԉ"/>
<glyph glyph-name="uni0509" d="M584 377q5 -65 5 -124q0 -134 -47.5 -200.5t-123.5 -66.5q-61 0 -102.5 42t-41.5 122v127v179h-100l-11 -131q-9 -118 -24 -182.5t-35.5 -94.5t-62.5 -59l-36 56q22 19 33 37t22.5 76t19.5 162l16 207h264v-252h-52l52 -4v-131q0 -37 15 -60.5t44 -23.5q84 0 84 195 q0 56 -5 126h86z" unicode="ԉ"/>
<glyph glyph-name="uni050A" d="M585 377q5 -65 5 -127q0 -133 -46 -198.5t-119 -65.5q-62 0 -101.5 44t-39.5 128v169h-149v-327h-86v689h86v-290h149v290h86v-404v-130q0 -99 57 -99q77 0 77 192q0 59 -5 129h86z" unicode="Ԋ"/>
<glyph glyph-name="uni050B" d="M589 377q5 -65 5 -124q0 -134 -47.5 -200.5t-123.5 -66.5q-62 0 -103.5 42t-41.5 122v84h-147v-234h-86v527h86v-224h147v224h85v-331v-56q0 -37 15.5 -60.5t45.5 -23.5q83 0 83 195q0 56 -5 126h87z" unicode="ԋ"/>
<glyph glyph-name="uni050C" d="M314 -11q-126 0 -197.5 90.5t-71.5 265.5q0 169 84.5 262t204.5 93q65 0 109 -18t87 -58l-52 -54q-61 57 -144 57q-84 0 -140 -67t-56 -215q0 -147 45.5 -215t137.5 -68q73 0 131 33v209h-135l-10 73h232v-328q-106 -60 -225 -60z" unicode="Ԍ"/>
<glyph glyph-name="uni050D" d="M318 538q98 0 179 -63l-49 -54q-61 46 -130 46q-65 0 -110 -50.5t-45 -149.5q0 -209 143 -209q60 0 107 23v147h-101l-9 67h193v-253q-87 -52 -191 -52q-110 0 -171 70.5t-61 206.5q0 122 71.5 196.5t173.5 74.5z" unicode="ԍ"/>
<glyph glyph-name="uni050E" d="M563 379q5 -65 5 -123q0 -68 -19 -121.5t-50 -84t-67 -46t-74 -15.5q-71 0 -117.5 47.5t-46.5 134.5v121v321h-179v76h470l-9 -76h-195v-428q0 -128 80 -128q53 0 87 46t34 153q0 53 -5 123h86z" unicode="Ԏ"/>
<glyph glyph-name="uni050F" d="M543 371q4 -72 4 -126q0 -127 -61 -193t-145 -66q-74 0 -122 47t-48 129v276v18h-168v71h424l-10 -71h-162v-210v-79q0 -55 23.5 -83t63.5 -28q51 0 85 44.5t34 146.5q0 46 -4 124h86z" unicode="ԏ"/>
<glyph glyph-name="uni0510" d="M320 700q130 0 231 -86l-48 -51q-86 66 -182 66q-66 0 -107.5 -28.5t-41.5 -82.5q0 -56 42 -84t106 -28h117l-10 -73h-113q-73 0 -117 -32.5t-44 -99.5q0 -65 44.5 -102t124.5 -37q106 0 191 73l52 -49q-91 -97 -246 -97q-119 0 -189.5 59t-70.5 152q0 76 48 121.5 t118 53.5q-61 9 -101.5 46.5t-40.5 95.5q0 82 66 132.5t171 50.5z" unicode="Ԑ"/>
<glyph glyph-name="uni0511" d="M417 309l-6 -68h-103q-134 0 -134 -86q0 -45 37 -71t108 -26q106 0 187 58l40 -54q-89 -73 -226 -73q-107 0 -172 43.5t-65 123.5q0 56 42.5 89.5t93.5 35.5q-107 31 -107 113q0 67 59 105.5t150 38.5q121 0 206 -64l-40 -50q-75 46 -163 46q-124 0 -124 -81 q0 -36 30.5 -58t83.5 -22h103z" unicode="ԑ"/>
<glyph glyph-name="uni0512" d="M517 -61q0 -73 -38.5 -111.5t-106.5 -38.5q-64 0 -113 37l34 57q37 -24 75 -24q62 0 62 75v66v614h-185l-25 -204q-15 -119 -29 -191t-36 -117t-42.5 -66t-59.5 -47l-38 64q29 24 43.5 44.5t35 92t36.5 196.5l39 303h348v-750z" unicode="Ԓ"/>
<glyph glyph-name="uni0513" d="M510 527v-527v-61q0 -73 -39.5 -111.5t-106.5 -38.5q-64 0 -113 37l34 54q41 -23 75 -23q66 0 66 75v69v455h-197l-12 -139q-10 -118 -25.5 -179.5t-39.5 -91t-74 -57.5l-36 54q29 18 44 37t29 75.5t22 158.5l16 213h357z" unicode="ԓ"/>
<glyph glyph-name="uni0514" d="M451 368l157 -368h-88l-124 307l-118 -307h-84l155 368l-107 244h-58l-18 -242q-7 -104 -16.5 -169t-25 -105.5t-29 -60t-40.5 -46.5l-51 60q21 22 31.5 46t22 93.5t22.5 199.5l24 301l6 -6l-5 6h179h13l106 -263l103 263h83z" unicode="Ԕ"/>
<glyph glyph-name="uni0515" d="M456 282l142 -282h-89l-103 226l-104 -226h-83l142 278l-90 181h-85l-11 -134q-10 -119 -24.5 -182.5t-35.5 -94t-62 -59.5l-36 56q21 19 32 37t23 76t20 162l16 207h197h20l86 -196l88 196h81z" unicode="ԕ"/>
<glyph glyph-name="uni0516" d="M172 326q136 0 136 150q0 71 -34.5 107t-96.5 36h-39v-293h34zM589 0h-94l-162 321q-60 -65 -158 -65h-37v-256h-83v689h120q100 0 157.5 -58.5t57.5 -153.5v-16l112 228h86l-176 -336z" unicode="Ԗ"/>
<glyph glyph-name="uni0517" d="M223 59q39 0 64.5 49.5t25.5 155.5q0 111 -18.5 158.5t-61.5 47.5q-53 0 -101 -77v-265q45 -69 91 -69zM596 0h-93l-106 233q-6 -111 -50.5 -177.5t-107.5 -66.5q-67 0 -107 57v-247l-88 -11v739h75l7 -64q48 75 121 75q139 0 149 -234l100 223h86l-120 -256z" unicode="ԗ"/>
<glyph glyph-name="uni0518" d="M294 348v271h-42q-66 0 -102.5 -34.5t-36.5 -100.5q0 -68 32.5 -102t88.5 -34h60zM383 70h215v-70h-304v277h-70l-117 -277h-99l133 297q-123 52 -123 186q0 95 65 150.5t179 55.5h121h206l-10 -72h-196v-231h156v-72h-156v-244z" unicode="Ԙ"/>
<glyph glyph-name="uni0519" d="M103 361q0 -92 109 -92h22q0 121 53 196h-70q-114 0 -114 -104zM515 299q-3 171 -92 171q-94 0 -104 -171h196zM556 100l39 -49q-77 -62 -166 -62q-79 0 -129.5 58.5t-62.5 156.5h-49l-100 -204h-82l106 220q-92 42 -92 141q0 75 55 120.5t144 45.5h143q28 11 60 11 q84 0 127.5 -68.5t43.5 -190.5q0 -23 -2 -45h-272q3 -90 33.5 -134t81.5 -44q37 0 62 9.5t60 34.5z" unicode="ԙ"/>
<glyph glyph-name="uni051A" d="M463 344q0 141 -39 212t-124 71q-164 0 -164 -284q0 -281 164 -281q85 0 124 70.5t39 211.5zM554 344q0 -239 -143 -317q74 -15 115.5 -52t66.5 -112l-92 -36q-34 85 -80 124t-131 39q-117 0 -181 95.5t-64 257.5q0 161 66 259t189 98q122 0 188 -96.5t66 -259.5z" unicode="Ԛ"/>
<glyph glyph-name="uni051B" d="M295 470q-131 0 -131 -207q0 -204 121 -204q78 0 131 81v262q-44 68 -121 68zM274 538q92 0 147 -69l7 58h72v-739l-84 10v268q-56 -77 -149 -77q-194 0 -194 274q0 122 53 198.5t148 76.5z" unicode="ԛ"/>
<glyph glyph-name="uni051C" d="M595 689l-104 -689h-114l-79 520l-80 -520h-117l-96 689h87l73 -594l83 514h106l79 -514l82 594h80z" unicode="Ԝ"/>
<glyph glyph-name="uni051D" d="M491 0h-119l-69 386l-74 -386h-116l-95 527h85l68 -475l84 408h99l79 -408l68 475h81z" unicode="ԝ"/>
<glyph glyph-name="uni051E" d="M330 364l251 -364h-105l-220 326h-80v-326h-87v689h87v-290h81l90 124l-120 78l38 55l122 -79l81 112h94l-110 -154l108 -70l-38 -56l-109 71z" unicode="Ԟ"/>
<glyph glyph-name="uni051F" d="M362 283l205 -283h-102l-174 245h-104v-245h-84v527h84v-214h106l51 71l-88 58l36 53l89 -58l64 90h94l-95 -131l86 -56l-36 -54l-88 58z" unicode="ԟ"/>
<glyph glyph-name="uni0520" d="M449 451q62 0 98 -41t36 -105v-305v-58q0 -74 -40 -113.5t-106 -39.5q-64 0 -113 37l34 58q37 -23 75 -23q62 0 62 74v66v294q0 79 -60 79q-42 0 -81 -35v-339h-86v616h-95l-18 -246q-7 -104 -16.5 -169t-25 -105.5t-29.5 -60t-41 -46.5l-50 60q21 22 31.5 46t22 93.5 t22.5 199.5l24 301h261v-278q42 40 95 40z" unicode="Ԡ"/>
<glyph glyph-name="uni0521" d="M466 349q57 0 93.5 -38t36.5 -100v-211v-60q0 -73 -40 -112t-108 -39q-64 0 -113 37l34 55q39 -22 75 -22q67 0 67 75v67v204q0 77 -65 77q-51 0 -90 -39v-243h-86v456h-110l-12 -131q-9 -118 -24 -182.5t-35.5 -94.5t-62.5 -59l-35 56q21 19 32 37t22.5 76t19.5 162 l16 207h275v-220q44 42 110 42z" unicode="ԡ"/>
<glyph glyph-name="uni0522" d="M449 451q66 0 105 -42.5t39 -114.5v-294v-58q0 -74 -40 -113.5t-105 -39.5q-64 0 -113 37l34 57q39 -23 75 -23q62 0 62 75v66v294q0 79 -70 79q-46 0 -89 -36v-338h-86v327h-149v-327h-86v689h86v-290h149v290h86v-278q43 40 102 40z" unicode="Ԣ"/>
<glyph glyph-name="uni0523" d="M466 349q57 0 93.5 -38t36.5 -100v-211v-60q0 -73 -40 -112t-108 -39q-64 0 -113 37l34 55q39 -22 75 -22q67 0 67 75v67v204q0 77 -65 77q-49 0 -90 -39v-243h-85v234h-157v-234h-86v527h86v-224h157v224h85v-220q44 42 110 42z" unicode="ԣ"/>
<glyph glyph-name="uni0524" d="M517 73h61v-220h-69l-14 147h-65v613h-260v-613h-87v689h434v-616z" unicode="Ԥ"/>
<glyph glyph-name="uni0525" d="M493 69h81v-216h-69l-15 147h-81v458h-231v-458h-84v527h399v-458z" unicode="ԥ"/>
<glyph glyph-name="uni0526" d="M541 73h60v-220h-69l-15 147h-62v234q0 140 -133 140q-90 0 -152 -79v-295h-87v689h87v-310q65 71 171 71q94 0 147 -57t53 -158v-162z" unicode="Ԧ"/>
<glyph glyph-name="uni0527" d="M495 69h81v-216h-69l-15 147h-81v303q0 107 -89 107q-83 0 -142 -93v-317h-84v738l84 9v-353q60 83 159 83q72 0 114 -43t42 -117v-248z" unicode="ԧ"/>
<glyph glyph-name="uni0528" d="M430 689h87v-689h-87v327h-260v-327v-62q0 -73 -38.5 -111.5t-106.5 -38.5q-64 0 -113 37l34 57q37 -24 75 -24q62 0 62 75v67v689h87v-291h260v291z" unicode="Ԩ"/>
<glyph glyph-name="uni0529" d="M416 527h84v-527h-84v234h-232v-234h1v-62q0 -73 -39.5 -111.5t-106.5 -38.5q-64 0 -113 37l34 54q41 -23 75 -23q66 0 66 75v69h-1v527h84v-224h232v224z" unicode="ԩ"/>
<glyph glyph-name="uni052A" d="M353 323h-51v-259h51v259zM229 64v558h-55l-11 -191q-8 -157 -25 -236t-48 -131h139zM515 362l97 -362h-83l-77 323h-26v-323h-59v-147h-64l-16 147h-198h-23l-15 -147h-64v211h34q17 47 25 74t20.5 106.5t19.5 190.5l16 254h200v-294h51v294h73v-294h27l66 294h72z" unicode="Ԫ"/>
<glyph glyph-name="uni052B" d="M286 71h48v173h-48v-173zM208 71v383h-51l-7 -114q-10 -145 -21 -192t-45 -77h124zM501 283l108 -283h-83l-90 244h-24v-244h-56v-147h-68l-13 147h-171h-34l-14 -147h-66v218h23q16 15 24 30.5t17.5 70t16.5 155.5l14 200h201v-213h48v213h78v-213h25l78 213h76z" unicode="ԫ"/>
<glyph glyph-name="uni052C" d="M177 73h263v263h-144h-6q-35 -182 -113 -263zM327 614l-15 -130q-6 -51 -10 -77h138v207h-113zM527 73h35v-220h-68l-15 147h-321h-22l-14 -147h-69v220h36q70 72 111 273q-139 34 -139 212v131h89v-127q0 -111 64 -140l9 66l25 201h279v-616z" unicode="Ԭ"/>
<glyph glyph-name="uni052D" d="M179 70h229v186h-139q-26 -148 -90 -186zM288 456l-9 -116q0 -9 -1 -13h130v129h-120zM496 70h66v-217h-71l-14 147h-305h-35l-15 -147h-71v217h38q77 46 99 191q-70 12 -102 55t-32 121v90h84v-87q0 -86 57 -106l14 193h287v-457z" unicode="ԭ"/>
<glyph glyph-name="uni052E" d="M486 73h61v-220h-68l-15 147h-65v614h-166l-25 -204q-19 -156 -42 -239t-48 -115t-77 -67l-38 64q29 24 43.5 44.5t35 92t36.5 196.5l39 303h329v-616z" unicode="Ԯ"/>
<glyph glyph-name="uni052F" d="M485 69h81v-216h-70l-14 147h-81v456h-178l-11 -139q-10 -118 -25.5 -179.5t-40 -91t-74.5 -57.5l-36 54q29 18 44 37t29 75.5t22 158.5l16 213h338v-458z" unicode="ԯ"/>
<glyph glyph-name="Wgrave" d="M595 689l-104 -689h-114l-79 520l-80 -520h-117l-96 689h87l73 -594l83 514h106l79 -514l82 594h80zM231 909l185 -108l-26 -46l-205 82z" unicode="Ẁ"/>
<glyph glyph-name="wgrave" d="M491 0h-119l-69 386l-74 -386h-116l-95 527h85l68 -475l84 408h99l79 -408l68 475h81zM387 622l-203 93l46 72l184 -119z" unicode="ẁ"/>
<glyph glyph-name="Wacute" d="M595 689l-104 -689h-114l-79 520l-80 -520h-117l-96 689h87l73 -594l83 514h106l79 -514l82 594h80zM383 906l37 -72l-213 -79l-22 46z" unicode="Ẃ"/>
<glyph glyph-name="wacute" d="M491 0h-119l-69 386l-74 -386h-116l-95 527h85l68 -475l84 408h99l79 -408l68 475h81zM384 797l38 -72l-209 -85l-26 45z" unicode="ẃ"/>
<glyph glyph-name="Wdieresis" d="M595 689l-104 -689h-114l-79 520l-80 -520h-117l-96 689h87l73 -594l83 514h106l79 -514l82 594h80zM403 767q-23 0 -38.5 15t-15.5 38q0 24 15.5 39.5t38.5 15.5t39 -15.5t16 -39.5q0 -22 -16 -37.5t-39 -15.5zM196 767q-23 0 -39 15.5t-16 37.5q0 24 16 39.5t39 15.5 t38.5 -15.5t15.5 -39.5q0 -23 -15.5 -38t-38.5 -15z" unicode="Ẅ"/>
<glyph glyph-name="wdieresis" d="M491 0h-119l-69 386l-74 -386h-116l-95 527h85l68 -475l84 408h99l79 -408l68 475h81zM403 648q-23 0 -38.5 15t-15.5 38q0 24 15.5 39.5t38.5 15.5t39 -15.5t16 -39.5q0 -22 -16 -37.5t-39 -15.5zM196 648q-23 0 -39 15.5t-16 37.5q0 24 16 39.5t39 15.5t38.5 -15.5 t15.5 -39.5q0 -23 -15.5 -38t-38.5 -15z" unicode="ẅ"/>
<glyph glyph-name="Ygrave" d="M344 266v-266h-88v265l-233 424h96l183 -346l185 346h90zM234 909l185 -108l-26 -46l-205 82z" unicode="Ỳ"/>
<glyph glyph-name="ygrave" d="M538 527l-184 -530q-31 -91 -85 -145t-151 -64l-12 67q76 13 110.5 46t56.5 99h-28l-183 527h89l151 -463l149 463h87zM387 622l-203 93l46 72l184 -119z" unicode="ỳ"/>
<glyph glyph-name="uni1F00" d="M261 470q-54 0 -83 -54.5t-29 -156.5q0 -202 108 -202q45 0 82 44.5t60 165.5q-20 115 -52.5 159t-85.5 44zM255 538q70 0 110 -37.5t56 -127.5l27 154h77l-51 -281l25 -136q7 -37 45 -52l-30 -71q-34 6 -60 31t-32 65l-9 56q-50 -150 -163 -150q-92 0 -141.5 68 t-49.5 202q0 126 50.5 202.5t145.5 76.5zM311 805q23 0 39 -15.5t16 -37.5q0 -20 -15 -55l-51 -107h-50l29 117q-22 17 -22 45q0 23 15.5 38t38.5 15z" unicode="ἀ"/>
<glyph glyph-name="uni1F01" d="M261 470q-54 0 -83 -54.5t-29 -156.5q0 -202 108 -202q45 0 82 44.5t60 165.5q-20 115 -52.5 159t-85.5 44zM255 538q70 0 110 -37.5t56 -127.5l27 154h77l-51 -281l25 -136q7 -37 45 -52l-30 -71q-34 6 -60 31t-32 65l-9 56q-50 -150 -163 -150q-92 0 -141.5 68 t-49.5 202q0 126 50.5 202.5t145.5 76.5zM237 805q23 0 38.5 -15t15.5 -38q0 -28 -22 -45l29 -117h-50l-51 107q-15 35 -15 55q0 22 16 37.5t39 15.5z" unicode="ἁ"/>
<glyph glyph-name="uni1F02" d="M261 470q-54 0 -83 -54.5t-29 -156.5q0 -202 108 -202q45 0 82 44.5t60 165.5q-20 115 -52.5 159t-85.5 44zM255 538q70 0 110 -37.5t56 -127.5l27 154h77l-51 -281l25 -136q7 -37 45 -52l-30 -71q-34 6 -60 31t-32 65l-9 56q-50 -150 -163 -150q-92 0 -141.5 68 t-49.5 202q0 126 50.5 202.5t145.5 76.5zM354 792l48 -202l-57 -16l-68 199zM191 797q23 0 39 -15.5t16 -37.5q0 -20 -15 -55l-51 -107h-50l29 117q-22 17 -22 45q0 23 15.5 38t38.5 15z" unicode="ἂ"/>
<glyph glyph-name="uni1F03" d="M261 470q-54 0 -83 -54.5t-29 -156.5q0 -202 108 -202q45 0 82 44.5t60 165.5q-20 115 -52.5 159t-85.5 44zM255 538q70 0 110 -37.5t56 -127.5l27 154h77l-51 -281l25 -136q7 -37 45 -52l-30 -71q-34 6 -60 31t-32 65l-9 56q-50 -150 -163 -150q-92 0 -141.5 68 t-49.5 202q0 126 50.5 202.5t145.5 76.5zM335 792l48 -202l-57 -16l-68 199zM167 797q23 0 38.5 -15t15.5 -38q0 -28 -22 -45l29 -117h-50l-51 107q-15 35 -15 55q0 22 16 37.5t39 15.5z" unicode="ἃ"/>
<glyph glyph-name="uni1F04" d="M261 470q-54 0 -83 -54.5t-29 -156.5q0 -202 108 -202q45 0 82 44.5t60 165.5q-20 115 -52.5 159t-85.5 44zM255 538q70 0 110 -37.5t56 -127.5l27 154h77l-51 -281l25 -136q7 -37 45 -52l-30 -71q-34 6 -60 31t-32 65l-9 56q-50 -150 -163 -150q-92 0 -141.5 68 t-49.5 202q0 126 50.5 202.5t145.5 76.5zM362 792l77 -19l-68 -199l-57 16zM235 797q23 0 39 -15.5t16 -37.5q0 -20 -15 -55l-51 -107h-50l29 117q-22 17 -22 45q0 23 15.5 38t38.5 15z" unicode="ἄ"/>
<glyph glyph-name="uni1F05" d="M261 470q-54 0 -83 -54.5t-29 -156.5q0 -202 108 -202q45 0 82 44.5t60 165.5q-20 115 -52.5 159t-85.5 44zM255 538q70 0 110 -37.5t56 -127.5l27 154h77l-51 -281l25 -136q7 -37 45 -52l-30 -71q-34 6 -60 31t-32 65l-9 56q-50 -150 -163 -150q-92 0 -141.5 68 t-49.5 202q0 126 50.5 202.5t145.5 76.5zM340 792l77 -19l-68 -199l-57 16zM207 799q23 0 38.5 -15t15.5 -38q0 -28 -22 -45l29 -117h-50l-51 107q-15 35 -15 55q0 22 16 37.5t39 15.5z" unicode="ἅ"/>
<glyph glyph-name="uni1F06" d="M261 470q-54 0 -83 -54.5t-29 -156.5q0 -202 108 -202q45 0 82 44.5t60 165.5q-20 115 -52.5 159t-85.5 44zM255 538q70 0 110 -37.5t56 -127.5l27 154h77l-51 -281l25 -136q7 -37 45 -52l-30 -71q-34 6 -60 31t-32 65l-9 56q-50 -150 -163 -150q-92 0 -141.5 68 t-49.5 202q0 126 50.5 202.5t145.5 76.5zM249 577l20 62q-31 18 -31 49q0 23 16 38t40 15q23 0 38.5 -15t15.5 -38q0 -26 -29 -76l-19 -35h-51zM351 746q-28 0 -64 24t-52 24q-28 0 -53 -46l-53 26q41 85 106 85q30 0 65 -24.5t51 -24.5q27 0 53 45l54 -27q-38 -82 -107 -82 z" unicode="ἆ"/>
<glyph glyph-name="uni1F07" d="M261 470q-54 0 -83 -54.5t-29 -156.5q0 -202 108 -202q45 0 82 44.5t60 165.5q-20 115 -52.5 159t-85.5 44zM255 538q70 0 110 -37.5t56 -127.5l27 154h77l-51 -281l25 -136q7 -37 45 -52l-30 -71q-34 6 -60 31t-32 65l-9 56q-50 -150 -163 -150q-92 0 -141.5 68 t-49.5 202q0 126 50.5 202.5t145.5 76.5zM321 578h-50l-20 35q-29 52 -29 76q0 23 15.5 38t39.5 15q23 0 39 -15t16 -38q0 -32 -31 -49zM338 747q-28 0 -64 24t-52 24q-28 0 -53 -46l-53 26q41 85 106 85q30 0 65 -24.5t51 -24.5q27 0 53 45l54 -27q-38 -82 -107 -82z" unicode="ἇ"/>
<glyph glyph-name="uni1F08" d="M184 248h227l-113 367zM434 176h-273l-55 -176h-86l225 689h110l224 -689h-90zM118 705q23 0 39 -15.5t16 -37.5q0 -20 -15 -55l-51 -107h-50l29 117q-22 17 -22 45q0 23 15.5 38t38.5 15z" unicode="Ἀ"/>
<glyph glyph-name="uni1F09" d="M184 248h227l-113 367zM434 176h-273l-55 -176h-86l225 689h110l224 -689h-90zM96 705q23 0 38.5 -15t15.5 -38q0 -28 -22 -45l29 -117h-50l-51 107q-15 35 -15 55q0 22 16 37.5t39 15.5z" unicode="Ἁ"/>
<glyph glyph-name="uni1F0A" d="M184 248h227l-113 367zM112 687l48 -202l-57 -16l-68 199zM434 176h-273l-55 -176h-86l225 689h110l224 -689h-90zM-51 692q23 0 39 -15.5t16 -37.5q0 -21 -15 -55l-51 -107h-50l29 117q-22 17 -22 45q0 23 15.5 38t38.5 15z" unicode="Ἂ"/>
<glyph glyph-name="uni1F0B" d="M184 248h227l-113 367zM108 687l48 -202l-57 -16l-68 199zM434 176h-273l-55 -176h-86l225 689h110l224 -689h-90zM-60 692q23 0 38.5 -15t15.5 -38q0 -28 -22 -45l29 -117h-50l-51 107q-15 34 -15 55q0 22 16 37.5t39 15.5z" unicode="Ἃ"/>
<glyph glyph-name="uni1F0C" d="M184 248h227l-113 367zM99 687l77 -19l-68 -199l-57 16zM434 176h-273l-55 -176h-86l225 689h110l224 -689h-90zM-28 692q23 0 39 -15.5t16 -37.5q0 -21 -15 -55l-51 -107h-50l29 117q-22 17 -22 45q0 23 15.5 38t38.5 15z" unicode="Ἄ"/>
<glyph glyph-name="uni1F0D" d="M184 248h227l-113 367zM105 687l77 -19l-68 -199l-57 16zM434 176h-273l-55 -176h-86l225 689h110l224 -689h-90zM-28 694q23 0 38.5 -15t15.5 -38q0 -28 -22 -45l29 -117h-50l-51 107q-15 34 -15 55q0 22 16 37.5t39 15.5z" unicode="Ἅ"/>
<glyph glyph-name="uni1F0E" d="M-1 414l20 62q-31 19 -31 49q0 23 16 38.5t40 15.5q23 0 38.5 -15.5t15.5 -38.5q0 -25 -29 -76l-19 -35h-51zM184 248h227l-113 367zM434 176h-273l-55 -176h-86l225 689h110l224 -689h-90zM101 584q-28 0 -64 24t-52 24q-28 0 -53 -46l-53 26q41 85 106 85 q30 0 65 -24.5t51 -24.5q27 0 53 45l54 -27q-38 -82 -107 -82z" unicode="Ἆ"/>
<glyph glyph-name="uni1F0F" d="M84 415h-50l-20 35q-29 53 -29 77q0 23 15.5 38t39.5 15q23 0 39 -15.5t16 -37.5q0 -32 -31 -50zM184 248h227l-113 367zM434 176h-273l-55 -176h-86l225 689h110l224 -689h-90zM101 585q-28 0 -64 24t-52 24q-28 0 -53 -46l-53 26q41 85 106 85q30 0 65 -24.5t51 -24.5 q27 0 53 45l54 -27q-38 -82 -107 -82z" unicode="Ἇ"/>
<glyph glyph-name="uni1F10" d="M391 241h-90q-67 0 -97 -20.5t-30 -65.5t38 -71t104 -26q104 0 185 58l45 -57q-92 -70 -236 -70q-100 0 -163.5 43t-63.5 120q0 111 132 130q-54 12 -82.5 42t-28.5 73q0 67 60.5 104t151.5 37q123 0 200 -54l-42 -52q-65 38 -155 38q-128 0 -128 -81q0 -37 31 -58.5 t85 -21.5h94zM351 805q23 0 39 -15.5t16 -37.5q0 -20 -15 -55l-51 -107h-50l29 117q-22 17 -22 45q0 23 15.5 38t38.5 15z" unicode="ἐ"/>
<glyph glyph-name="uni1F11" d="M391 241h-90q-67 0 -97 -20.5t-30 -65.5t38 -71t104 -26q104 0 185 58l45 -57q-92 -70 -236 -70q-100 0 -163.5 43t-63.5 120q0 111 132 130q-54 12 -82.5 42t-28.5 73q0 67 60.5 104t151.5 37q123 0 200 -54l-42 -52q-65 38 -155 38q-128 0 -128 -81q0 -37 31 -58.5 t85 -21.5h94zM277 805q23 0 38.5 -15t15.5 -38q0 -28 -22 -45l29 -117h-50l-51 107q-15 35 -15 55q0 22 16 37.5t39 15.5z" unicode="ἑ"/>
<glyph glyph-name="uni1F12" d="M391 241h-90q-67 0 -97 -20.5t-30 -65.5t38 -71t104 -26q104 0 185 58l45 -57q-92 -70 -236 -70q-100 0 -163.5 43t-63.5 120q0 111 132 130q-54 12 -82.5 42t-28.5 73q0 67 60.5 104t151.5 37q123 0 200 -54l-42 -52q-65 38 -155 38q-128 0 -128 -81q0 -37 31 -58.5 t85 -21.5h94zM394 792l48 -202l-57 -16l-68 199zM231 797q23 0 39 -15.5t16 -37.5q0 -20 -15 -55l-51 -107h-50l29 117q-22 17 -22 45q0 23 15.5 38t38.5 15z" unicode="ἒ"/>
<glyph glyph-name="uni1F13" d="M391 241h-90q-67 0 -97 -20.5t-30 -65.5t38 -71t104 -26q104 0 185 58l45 -57q-92 -70 -236 -70q-100 0 -163.5 43t-63.5 120q0 111 132 130q-54 12 -82.5 42t-28.5 73q0 67 60.5 104t151.5 37q123 0 200 -54l-42 -52q-65 38 -155 38q-128 0 -128 -81q0 -37 31 -58.5 t85 -21.5h94zM375 792l48 -202l-57 -16l-68 199zM207 797q23 0 38.5 -15t15.5 -38q0 -28 -22 -45l29 -117h-50l-51 107q-15 35 -15 55q0 22 16 37.5t39 15.5z" unicode="ἓ"/>
<glyph glyph-name="uni1F14" d="M391 241h-90q-67 0 -97 -20.5t-30 -65.5t38 -71t104 -26q104 0 185 58l45 -57q-92 -70 -236 -70q-100 0 -163.5 43t-63.5 120q0 111 132 130q-54 12 -82.5 42t-28.5 73q0 67 60.5 104t151.5 37q123 0 200 -54l-42 -52q-65 38 -155 38q-128 0 -128 -81q0 -37 31 -58.5 t85 -21.5h94zM402 792l77 -19l-68 -199l-57 16zM275 797q23 0 39 -15.5t16 -37.5q0 -20 -15 -55l-51 -107h-50l29 117q-22 17 -22 45q0 23 15.5 38t38.5 15z" unicode="ἔ"/>
<glyph glyph-name="uni1F15" d="M391 241h-90q-67 0 -97 -20.5t-30 -65.5t38 -71t104 -26q104 0 185 58l45 -57q-92 -70 -236 -70q-100 0 -163.5 43t-63.5 120q0 111 132 130q-54 12 -82.5 42t-28.5 73q0 67 60.5 104t151.5 37q123 0 200 -54l-42 -52q-65 38 -155 38q-128 0 -128 -81q0 -37 31 -58.5 t85 -21.5h94zM379 792l77 -19l-68 -199l-57 16zM246 799q23 0 38.5 -15t15.5 -38q0 -28 -22 -45l29 -117h-50l-51 107q-15 35 -15 55q0 22 16 37.5t39 15.5z" unicode="ἕ"/>
<glyph glyph-name="uni1F18" d="M212 617v-232h256v-71h-256v-244h314v-70h-400v689h391l-10 -72h-295zM36 705q23 0 39 -15.5t16 -37.5q0 -20 -15 -55l-51 -107h-50l29 117q-22 17 -22 45q0 23 15.5 38t38.5 15z" unicode="Ἐ"/>
<glyph glyph-name="uni1F19" d="M212 617v-232h256v-71h-256v-244h314v-70h-400v689h391l-10 -72h-295zM13 705q23 0 38.5 -15t15.5 -38q0 -28 -22 -45l29 -117h-50l-51 107q-15 35 -15 55q0 22 16 37.5t39 15.5z" unicode="Ἑ"/>
<glyph glyph-name="uni1F1A" d="M37 687l48 -202l-57 -16l-68 199zM212 617v-232h256v-71h-256v-244h314v-70h-400v689h391l-10 -72h-295zM-126 692q23 0 39 -15.5t16 -37.5q0 -21 -15 -55l-51 -107h-50l29 117q-22 17 -22 45q0 23 15.5 38t38.5 15z" unicode="Ἒ"/>
<glyph glyph-name="uni1F1B" d="M37 687l48 -202l-57 -16l-68 199zM212 617v-232h256v-71h-256v-244h314v-70h-400v689h391l-10 -72h-295zM-131 692q23 0 38.5 -15t15.5 -38q0 -28 -22 -45l29 -117h-50l-51 107q-15 34 -15 55q0 22 16 37.5t39 15.5z" unicode="Ἓ"/>
<glyph glyph-name="uni1F1C" d="M16 687l77 -19l-68 -199l-57 16zM212 617v-232h256v-71h-256v-244h314v-70h-400v689h391l-10 -72h-295zM-111 692q23 0 39 -15.5t16 -37.5q0 -21 -15 -55l-51 -107h-50l29 117q-22 17 -22 45q0 23 15.5 38t38.5 15z" unicode="Ἔ"/>
<glyph glyph-name="uni1F1D" d="M23 687l77 -19l-68 -199l-57 16zM212 617v-232h256v-71h-256v-244h314v-70h-400v689h391l-10 -72h-295zM-110 694q23 0 38.5 -15t15.5 -38q0 -28 -22 -45l29 -117h-50l-51 107q-15 34 -15 55q0 22 16 37.5t39 15.5z" unicode="Ἕ"/>
<glyph glyph-name="uni1F20" d="M352 538q148 0 148 -156v-584l-84 -10v532q0 87 -16.5 119t-74.5 32q-42 0 -80 -26t-61 -61v-384h-84v354q0 76 -27 173l79 11q17 -31 24 -88q32 42 80 65t96 23zM334 805q23 0 39 -15.5t16 -37.5q0 -20 -15 -55l-51 -107h-50l29 117q-22 17 -22 45q0 23 15.5 38t38.5 15 z" unicode="ἠ"/>
<glyph glyph-name="uni1F21" d="M352 538q148 0 148 -156v-584l-84 -10v532q0 87 -16.5 119t-74.5 32q-42 0 -80 -26t-61 -61v-384h-84v354q0 76 -27 173l79 11q17 -31 24 -88q32 42 80 65t96 23zM259 805q23 0 38.5 -15t15.5 -38q0 -28 -22 -45l29 -117h-50l-51 107q-15 35 -15 55q0 22 16 37.5t39 15.5 z" unicode="ἡ"/>
<glyph glyph-name="uni1F22" d="M352 538q148 0 148 -156v-584l-84 -10v532q0 87 -16.5 119t-74.5 32q-42 0 -80 -26t-61 -61v-384h-84v354q0 76 -27 173l79 11q17 -31 24 -88q32 42 80 65t96 23zM377 792l48 -202l-57 -16l-68 199zM214 797q23 0 39 -15.5t16 -37.5q0 -20 -15 -55l-51 -107h-50l29 117 q-22 17 -22 45q0 23 15.5 38t38.5 15z" unicode="ἢ"/>
<glyph glyph-name="uni1F23" d="M352 538q148 0 148 -156v-584l-84 -10v532q0 87 -16.5 119t-74.5 32q-42 0 -80 -26t-61 -61v-384h-84v354q0 76 -27 173l79 11q17 -31 24 -88q32 42 80 65t96 23zM357 792l48 -202l-57 -16l-68 199zM189 797q23 0 38.5 -15t15.5 -38q0 -28 -22 -45l29 -117h-50l-51 107 q-15 35 -15 55q0 22 16 37.5t39 15.5z" unicode="ἣ"/>
<glyph glyph-name="uni1F24" d="M352 538q148 0 148 -156v-584l-84 -10v532q0 87 -16.5 119t-74.5 32q-42 0 -80 -26t-61 -61v-384h-84v354q0 76 -27 173l79 11q17 -31 24 -88q32 42 80 65t96 23zM385 792l77 -19l-68 -199l-57 16zM258 797q23 0 39 -15.5t16 -37.5q0 -20 -15 -55l-51 -107h-50l29 117 q-22 17 -22 45q0 23 15.5 38t38.5 15z" unicode="ἤ"/>
<glyph glyph-name="uni1F25" d="M352 538q148 0 148 -156v-584l-84 -10v532q0 87 -16.5 119t-74.5 32q-42 0 -80 -26t-61 -61v-384h-84v354q0 76 -27 173l79 11q17 -31 24 -88q32 42 80 65t96 23zM362 792l77 -19l-68 -199l-57 16zM229 799q23 0 38.5 -15t15.5 -38q0 -28 -22 -45l29 -117h-50l-51 107 q-15 35 -15 55q0 22 16 37.5t39 15.5z" unicode="ἥ"/>
<glyph glyph-name="uni1F26" d="M352 538q148 0 148 -156v-584l-84 -10v532q0 87 -16.5 119t-74.5 32q-42 0 -80 -26t-61 -61v-384h-84v354q0 76 -27 173l79 11q17 -31 24 -88q32 42 80 65t96 23zM272 577l20 62q-31 18 -31 49q0 23 16 38t40 15q23 0 38.5 -15t15.5 -38q0 -26 -29 -76l-19 -35h-51z M374 746q-28 0 -64 24t-52 24q-28 0 -53 -46l-53 26q41 85 106 85q30 0 65 -24.5t51 -24.5q27 0 53 45l54 -27q-38 -82 -107 -82z" unicode="ἦ"/>
<glyph glyph-name="uni1F27" d="M352 538q148 0 148 -156v-584l-84 -10v532q0 87 -16.5 119t-74.5 32q-42 0 -80 -26t-61 -61v-384h-84v354q0 76 -27 173l79 11q17 -31 24 -88q32 42 80 65t96 23zM343 578h-50l-20 35q-29 52 -29 76q0 23 15.5 38t39.5 15q23 0 39 -15t16 -38q0 -32 -31 -49zM360 747 q-28 0 -64 24t-52 24q-28 0 -53 -46l-53 26q41 85 106 85q30 0 65 -24.5t51 -24.5q27 0 53 45l54 -27q-38 -82 -107 -82z" unicode="ἧ"/>
<glyph glyph-name="uni1F28" d="M430 0v327h-260v-327h-87v689h87v-291h260v291h87v-689h-87zM-7 705q23 0 39 -15.5t16 -37.5q0 -20 -15 -55l-51 -107h-50l29 117q-22 17 -22 45q0 23 15.5 38t38.5 15z" unicode="Ἠ"/>
<glyph glyph-name="uni1F29" d="M430 0v327h-260v-327h-87v689h87v-291h260v291h87v-689h-87zM-29 705q23 0 38.5 -15t15.5 -38q0 -28 -22 -45l29 -117h-50l-51 107q-15 35 -15 55q0 22 16 37.5t39 15.5z" unicode="Ἡ"/>
<glyph glyph-name="uni1F2A" d="M-5 687l48 -202l-57 -16l-68 199zM430 0v327h-260v-327h-87v689h87v-291h260v291h87v-689h-87zM-168 692q23 0 39 -15.5t16 -37.5q0 -21 -15 -55l-51 -107h-50l29 117q-22 17 -22 45q0 23 15.5 38t38.5 15z" unicode="Ἢ"/>
<glyph glyph-name="uni1F2B" d="M-5 687l48 -202l-57 -16l-68 199zM430 0v327h-260v-327h-87v689h87v-291h260v291h87v-689h-87zM-173 692q23 0 38.5 -15t15.5 -38q0 -28 -22 -45l29 -117h-50l-51 107q-15 34 -15 55q0 22 16 37.5t39 15.5z" unicode="Ἣ"/>
<glyph glyph-name="uni1F2C" d="M-26 687l77 -19l-68 -199l-57 16zM430 0v327h-260v-327h-87v689h87v-291h260v291h87v-689h-87zM-153 692q23 0 39 -15.5t16 -37.5q0 -21 -15 -55l-51 -107h-50l29 117q-22 17 -22 45q0 23 15.5 38t38.5 15z" unicode="Ἤ"/>
<glyph glyph-name="uni1F2D" d="M-19 687l77 -19l-68 -199l-57 16zM430 0v327h-260v-327h-87v689h87v-291h260v291h87v-689h-87zM-152 694q23 0 38.5 -15t15.5 -38q0 -28 -22 -45l29 -117h-50l-51 107q-15 34 -15 55q0 22 16 37.5t39 15.5z" unicode="Ἥ"/>
<glyph glyph-name="uni1F2E" d="M-135 415l20 62q-31 18 -31 49q0 23 16 38t40 15q23 0 38.5 -15t15.5 -38q0 -26 -29 -76l-19 -35h-51zM430 0v327h-260v-327h-87v689h87v-291h260v291h87v-689h-87zM-33 584q-28 0 -64 24t-52 24q-28 0 -53 -46l-53 26q41 85 106 85q30 0 65 -24.5t51 -24.5q27 0 53 45 l54 -27q-38 -82 -107 -82z" unicode="Ἦ"/>
<glyph glyph-name="uni1F2F" d="M-51 416h-50l-20 35q-29 52 -29 76q0 23 15.5 38t39.5 15q23 0 39 -15t16 -38q0 -32 -31 -49zM430 0v327h-260v-327h-87v689h87v-291h260v291h87v-689h-87zM-34 585q-28 0 -64 24t-52 24q-28 0 -53 -46l-53 26q41 85 106 85q30 0 65 -24.5t51 -24.5q27 0 53 45l54 -27 q-38 -82 -107 -82z" unicode="Ἧ"/>
<glyph glyph-name="uni1F30" d="M240 455h-177l9 72h252v-397q0 -71 87 -71q42 0 89 18l22 -61q-46 -27 -125 -27q-72 0 -114.5 40t-42.5 111v315zM319 805q23 0 39 -15.5t16 -37.5q0 -20 -15 -55l-51 -107h-50l29 117q-22 17 -22 45q0 23 15.5 38t38.5 15z" unicode="ἰ"/>
<glyph glyph-name="uni1F31" d="M240 455h-177l9 72h252v-397q0 -71 87 -71q42 0 89 18l22 -61q-46 -27 -125 -27q-72 0 -114.5 40t-42.5 111v315zM245 805q23 0 38.5 -15t15.5 -38q0 -28 -22 -45l29 -117h-50l-51 107q-15 35 -15 55q0 22 16 37.5t39 15.5z" unicode="ἱ"/>
<glyph glyph-name="uni1F32" d="M240 455h-177l9 72h252v-397q0 -71 87 -71q42 0 89 18l22 -61q-46 -27 -125 -27q-72 0 -114.5 40t-42.5 111v315zM362 792l48 -202l-57 -16l-68 199zM199 797q23 0 39 -15.5t16 -37.5q0 -20 -15 -55l-51 -107h-50l29 117q-22 17 -22 45q0 23 15.5 38t38.5 15z" unicode="ἲ"/>
<glyph glyph-name="uni1F33" d="M240 455h-177l9 72h252v-397q0 -71 87 -71q42 0 89 18l22 -61q-46 -27 -125 -27q-72 0 -114.5 40t-42.5 111v315zM343 792l48 -202l-57 -16l-68 199zM175 797q23 0 38.5 -15t15.5 -38q0 -28 -22 -45l29 -117h-50l-51 107q-15 35 -15 55q0 22 16 37.5t39 15.5z" unicode="ἳ"/>
<glyph glyph-name="uni1F34" d="M240 455h-177l9 72h252v-397q0 -71 87 -71q42 0 89 18l22 -61q-46 -27 -125 -27q-72 0 -114.5 40t-42.5 111v315zM370 792l77 -19l-68 -199l-57 16zM243 797q23 0 39 -15.5t16 -37.5q0 -20 -15 -55l-51 -107h-50l29 117q-22 17 -22 45q0 23 15.5 38t38.5 15z" unicode="ἴ"/>
<glyph glyph-name="uni1F35" d="M240 455h-177l9 72h252v-397q0 -71 87 -71q42 0 89 18l22 -61q-46 -27 -125 -27q-72 0 -114.5 40t-42.5 111v315zM347 792l77 -19l-68 -199l-57 16zM214 799q23 0 38.5 -15t15.5 -38q0 -28 -22 -45l29 -117h-50l-51 107q-15 35 -15 55q0 22 16 37.5t39 15.5z" unicode="ἵ"/>
<glyph glyph-name="uni1F36" d="M240 455h-177l9 72h252v-397q0 -71 87 -71q42 0 89 18l22 -61q-46 -27 -125 -27q-72 0 -114.5 40t-42.5 111v315zM257 577l20 62q-31 18 -31 49q0 23 16 38t40 15q23 0 38.5 -15t15.5 -38q0 -26 -29 -76l-19 -35h-51zM359 746q-28 0 -64 24t-52 24q-28 0 -53 -46l-53 26 q41 85 106 85q30 0 65 -24.5t51 -24.5q27 0 53 45l54 -27q-38 -82 -107 -82z" unicode="ἶ"/>
</font>
</defs>
</svg>
